<svg xmlns="http://www.w3.org/2000/svg"><defs><font horiz-adv-x="712"><font-face units-per-em="2048" ascent="1536" descent="-512"/><glyph horiz-adv-x="430"/><glyph horiz-adv-x="430"/><glyph horiz-adv-x="430"/><glyph unicode="!" horiz-adv-x="190" d="M18 2v88h64v-88h-64zm0 201v1179h64v-1179h-64z"/><glyph unicode=""" horiz-adv-x="331" d="M20 1200v180h64v-180h-64zm121 0v180h66v-180h-66z"/><glyph unicode="#" horiz-adv-x="1110" d="M-41 463v65h299l64 322h-299v65h311l90 465h68l-93-465h291l88 465h66l-88-465h245v-65h-260l-61-322h258v-65h-272l-88-463h-66l88 463h-289l-90-463h-65l90 463h-287zm365 65h288l64 322h-289z"/><glyph unicode="$" horiz-adv-x="655" d="M39 965q0 135 61 219 57 82 162 94v102h64v-102q41-4 80.5-19.5t71.5-51.5 51.5-95 19.5-147v-33h-64v33q0 74-14 121t-36.5 74.5-51.5 38.5-57 15v-514q4-2 7-3t7-3q27-12 63.5-32.5t68.5-53.5 54.5-82 22.5-120q0-66-15.5-120.5t-46.5-95.5q-59-78-161-90v-100h-64v100q-41 4-81 20.5t-71.5 51.5-51 93.5-19.5 148.5v32h63v-32q0-74 14.5-121t37-75 51-40 57.5-14v498l-8 4-8 4-63 35q-36 20-67.5 54t-54 84-22.5 122zm63 0q0-53 15.5-91t38-64 51.5-44 55-31v477q-43-6-73.5-29.5t-50-58-28-75.5-8.5-84zm224-799q76 10 117.5 72.5t41.5 167.5q0 53-15 89.5t-38.5 62.5-52.5 42l-53 29v-463z"/><glyph unicode="%" horiz-adv-x="919" d="M0 922v176q0 84 47 136t121 52 121-52 47-136v-176q0-84-47-136.5t-121-52.5-121 52.5-47 136.5zm63 0q0-43 24-83t81-40 79.5 40 22.5 83v176q0 43-22.5 83t-79.5 40-81-40-24-83v-176zm46-922l553 1380h69l-553-1380h-69zm393 281v176q0 84 46 135t122 51q74 0 120-51t46-135v-176q0-84-46.5-136.5t-119.5-52.5q-76 0-122 52.5t-46 136.5zm63 0q0-43 22.5-84t82.5-41q57 0 79.5 41t22.5 84v176q0 20-5 41.5t-17.5 40-32 30-48 11.5-49-11.5-33-30-17.5-40-5-41.5v-176z"/><glyph unicode="&" horiz-adv-x="878" d="M0 340q0 68 16.5 119t44 91 63.5 73l73 65q16 16 34 32l37 32q-14 20-36.5 59t-44 86-37 99.5-15.5 103.5q0 70 9.5 118t25.5 82q43 80 139 80 104 0 146-94 18-41 23-92t5-94q0-74-15-133.5t-35.5-104.5-44-74.5-38.5-46.5l268-460q29 78 35 160.5t6 148.5v20h66v-20q0-78-10-180.5t-53-194.5q0-2-1.5-2t-1.5-2l123-211h-73l-86 147q-104-147-314-147-143 0-227 100-82 95-82 240zm63 0q0-51 14.5-101.5t45.5-89 77-62.5 109-24q190 0 277 146l-285 485-32-27-31-28q-37-31-69-60.5t-55.5-63.5-37-76-13.5-99zm138 760q0-41 12-85t29.5-85 37-76 33.5-57q10 10 20.5 24.5t20.5 30.5q63 106 64 248 0 68-8.5 109.5t-21.5 66-33.5 33-45.5 8.5q-23 0-42-7t-33.5-30-23.5-65.5-9-114.5z"/><glyph unicode="'" horiz-adv-x="165" d="M20 1200v180h64v-180h-64z"/><glyph unicode="(" horiz-adv-x="339" d="M14 686q0 209 30 342t64.5 210 65.5 106.5 35 31.5l37-55q-12-10-27-27-12-14-26.5-36.5t-30.5-57.5q-29-66-56.5-188.5t-27.5-325.5q0-201 27.5-323.5t56.5-186.5q16-35 29.5-56.5t25.5-35.5q12-16 27-25l-33-55q-4 4-36 33t-66 104q-47 98-71 234.5t-24 310.5z"/><glyph unicode=")" horiz-adv-x="323" d="M27 1321h2l32 55q4-4 36-31.5t67-105.5q94-195 94-545 0-209-29.5-342t-65.5-209.5-68-106.5-34-32l-34 55q10 10 24 27l26 37q15 23 32 57 29 63 56.5 187.5t27.5 326.5q0 100-7.5 181t-19.5 143.5-26.5 109-28.5 76.5q-31 68-56.5 92.5t-27.5 24.5z"/><glyph unicode="*" horiz-adv-x="604" d="M20 1174l23 61 199-74v211h63v-211l199 74 22-61-198-74 149-168-49-43-156 176-153-176-49 43 147 168z"/><glyph unicode="+" horiz-adv-x="786" d="M25 651v66h299v299h65v-299h299v-66h-299v-299h-65v299h-299z"/><glyph unicode="," horiz-adv-x="174" d="M27-82v170h63v-170h-63z"/><glyph unicode="-" horiz-adv-x="612" d="M27 657v64h499v-64h-499z"/><glyph unicode="." horiz-adv-x="165" d="M25 0v88h65v-88h-65z"/><glyph unicode="/" horiz-adv-x="786" d="M43 0l553 1380h70l-553-1380h-70z"/><glyph unicode="0" horiz-adv-x="655" d="M18 371v641q0 176 62 268 63 100 194 100 129 0 193-100 63-96 63-268v-641q0-172-61-269-68-102-195-102-129 0-194 102-62 93-62 269zm64 0q0-307 192-308 190 0 191 308v641q0 305-191 305-193 0-192-305v-641z"/><glyph unicode="1" horiz-adv-x="397" d="M16 1108l209 272h64v-1380h-66v1270l-157-203z"/><glyph unicode="2" horiz-adv-x="655" d="M25 1010v32q0 162 63.5 250t192.5 88q123 0 194-98 61-90 62-231 0-279-234-488-109-96-159-215t-54-285h447v-63h-512v33q0 92 12 167.5t37 141.5q53 150 186 270 211 193 211 439 0 123-49 194.5t-141 71.5q-96 0-142-64-49-68-49-211v-32h-65z"/><glyph unicode="3" horiz-adv-x="620" d="M20 365v32h66v-32q0-158 51-230 47-72 139-72 88 0 140 80 27 39 39 93.5t12 119.5q0 92-28.5 147.5t-59.5 84.5q-41 39-83 54t-73 15h-59v64h59q37 0 80 18.5t79 55 60.5 93 24.5 134.5q0 66-12.5 120t-38.5 95q-49 80-140 80-190 0-190-303v-33h-66v33q0 174 62 266 68 100 194.5 100t194.5-110q61-92 61-248 0-106-35.5-174t-72.5-103q-37-37-78-57 45-23 78-55 37-35 72.5-101.5t35.5-175.5q0-164-69.5-260t-186.5-96q-127 0-194 98-62 93-62 267z"/><glyph unicode="4" horiz-adv-x="663" d="M20 422v61l486 897h61v-1380h-65v422h-482zm76 63h406v750z"/><glyph unicode="5" horiz-adv-x="634" d="M18 360v23h66v-23q0-156 51-227 45-70 139-70 90 0 140 84 27 41 39 95.5t12 117.5v146q0 152-49 223-45 66-142 66-90 0-139-78-51-80-51-211v-12h-66v886h512v-63h-446v-561q70 104 190 104 125 0 195-94 61-90 61-260v-146q0-72-16-136t-45-111q-70-113-195-113-127 0-192 96-64 94-64 264z"/><glyph unicode="6" horiz-adv-x="638" d="M18 324v604q0 147 27 237t66 137.5 84 62.5 79 15q127 0 193-90 63-82 63-225v-31h-65v31q0 121-49 186.5t-142 65.5q-61 0-99-40t-58.5-99.5-26.5-127-6-122.5v-154q70 104 190 105 131 0 195-95 61-92 61-266v-149q0-74-16-139.5t-45-114.5q-68-115-195-115-121 0-188.5 85t-67.5 239zm66 0q0-37 6-82t26.5-85 58.5-67 99-27q90 0 140 87 27 41 39 97t12 122v149q0 156-49 230-47 68-142 67-90 0-139-82-51-80-51-213v-196z"/><glyph unicode="7" horiz-adv-x="770" d="M12 1317v63h682v-61l-551-1319h-69l551 1317h-613z"/><glyph unicode="8" horiz-adv-x="679" d="M14 360.5q0 178.5 66 268.5 30 41 70 61-41 23-70 62-66 90-66 268t66 268q68 92 213 92 143 0 211-92 66-86 65.5-268t-65.5-268q-29-39-70-62 41-20 70-61 66-86 65.5-268.5t-65.5-268.5q-68-92-211-92-145 0-213 92-66 90-66 268.5zm66 0q0-159.5 51-229.5 51-68 161.5-68t160.5 68q51 70 51 229.5t-51 231.5q-49 68-160 67.5t-162-67.5q-51-72-51-231.5zm0 659.5q0-160 51-229 51-68 161.5-68t160.5 68q51 70 51 229.5t-51 228.5q-49 68-160 68t-162-68q-51-69-51-229z"/><glyph unicode="9" horiz-adv-x="630" d="M16 334v33h66v-33q0-133 49-203 49-68 141-68 59 0 96.5 36t59 92.5 28.5 125 7 134.5v155q-33-51-81-78.5t-110-27.5q-127 0-192 96-63 90-64 268v152q0 166 70 265t186 99q127 0 193-88 63-82 63-231v-610q0-211-59-326-66-125-197-125-127 0-192 94-64 88-64 240zm66 530q0-160 51-231 45-68 139-68 90 0 140 82 25 39 38 94.5t13 120.5v199q0 127-49 192-47 63-142 64-88 0-139-82-51-84-51-219v-152z"/><glyph unicode=":" horiz-adv-x="231" d="M29 334v155h63v-155h-63zm0 563v156h63v-156h-63z"/><glyph unicode=";" horiz-adv-x="198" d="M27 260v229h65v-229h-65zm0 637v156h65v-156h-65z"/><glyph unicode="<" horiz-adv-x="1705"/><glyph unicode="=" horiz-adv-x="638" d="M27 412v63h499v-63h-499zm0 430v63h499v-63h-499z"/><glyph unicode=">" horiz-adv-x="1705"/><glyph unicode="?" horiz-adv-x="620" d="M29 997v31q0 166 63 258 66 96 193 96 121 0 194-104 31-47 46.5-107.5t15.5-132.5q0-74-17.5-128t-42-94-52.5-66.5-50-44.5l-19-15q-8-6-12-12-41-47-64-160-22-104-22-249v-64h-63v39q0 61 3 130.5t14 134 31.5 121 53.5 91.5q12 16 37 33l45 41q25 23 45.5 56.5t33.5 78.5 13 108q0 61-12 113.5t-37 89.5q-53 78-141 78-94 0-140-70-51-70-51-221v-31h-65zm168-995v88h65v-88h-65z"/><glyph unicode="@" horiz-adv-x="1325" d="M25 727q18 117 66 214t122 175q68 70 152 115t180 65q68 14 133 14 22 0 44-1 87-6 164-35t140.5-79 108.5-120q33-51 51-115.5t23-133.5q2-26 2-53 0-42-5-85-8-70-32-131-23-55-69-99t-102.5-74-114.5-40q-27-5-51-5-29 0-53 7-43 10-64 43-18 28-18 65v15q-31-23-69.5-28t-85.5-5q-113 0-162 58-43 48-43 134 0 28 4 60 14 125 74 191 66 70 178 69 29 0 76-6t82-31q12-8 16-14l4 16 4 31 64-10-4-33-5-29-13-71-16-95q-9-52-16-101l-14-86q-6-38-8-54-1-7-1-14 0-33 36-43 16-4 33-5 33 0 74.5 12.5t81.5 36 73 56.5 49 74q20 53 29 114 5 38 5 76 0 24-2 48-5 62-21.5 119.5t-43.5 100.5q-39 61-96 105.5t-124.5 69-144.5 29.5q-18 1-37 1-59 0-120-12-74-16-148.5-53t-140-100.5-115-153.5-67.5-209q-10-61-10-119 0-112 38-205 56-141 193-225 86-53 191-76 82-18 166-18 23 0 47 2 109 6 212 38.5t187 94.5l25 18 39-51-27-20q-88-63-198.5-101.5t-233.5-44.5h-45q-111 0-212.5 25.5t-185.5 77.5q-154 96-219 253-43 102-42 225 0 65 12 136zm385-47q-3-28-4-51 0-65 26-92 33-35 115-35 51 0 79.5 5t49.5 23q23 23 39 74t33 139q5 27 4 47 0 22-6 34-11 24-27 34-16 12-48 18.5t-73 6.5q-86 0-131-47-23-27-37-65t-20-91z"/><glyph unicode="A" horiz-adv-x="802" d="M20 0l109 479v6l209 895h51l316-1380h-66l-94 422h-365l-94-422h-66zm177 485h333l-168 721z"/><glyph unicode="B" horiz-adv-x="688" d="M35 0v1380h227q158 0 234-90 72-90 71-270 0-178-71-268-16-20-35-35t-41-27q43-20 76-59 72-90 71.5-270.5t-71.5-270.5q-76-90-234-90h-227zm65 63h162q129 0 184.5 69t55.5 228.5-58 229.5q-55 70-182 69h-162v-596zm0 660h162q127 0 182 70 57 70 58 227 0 160-55.5 228.5t-184.5 68.5h-162v-594z"/><glyph unicode="C" horiz-adv-x="704" d="M16 367v649q0 113 27 184.5t70 111.5 95 54 103 14q49 0 101.5-14t95.5-54 69.5-112 26.5-184v-33h-65v33q0 158-58 229-59 72-170 72-113 0-172-72-57-72-57-229v-649q0-158 59-232 55-72 170-72 111 0 170 72 57 76 58 232v32h65v-32q0-115-26.5-185.5t-69.5-111.5-95.5-55.5-101.5-14.5q-51 0-103 14.5t-95 55.5-70 111.5-27 185.5z"/><glyph unicode="D" d="M25 0v1380h235q164 0 244-98 76-90 76-274v-635q0-184-76-275-80-98-244-98h-235zm63 63h172q133 0 193.5 75t60.5 235v635q0 160-60.5 234.5t-193.5 74.5h-172v-1254z"/><glyph unicode="E" horiz-adv-x="620" d="M20 0v1380h496v-63h-432v-594h432v-64h-432v-596h432v-63h-496z"/><glyph unicode="F" horiz-adv-x="630" d="M14 0v1380h496v-63h-432v-594h432v-64h-432v-659h-64z"/><glyph unicode="G" horiz-adv-x="720" d="M20 365v653q0 178 72 268 76 94 223.5 94t221.5-94q74-90 73-268v-33h-65v33q0 100-22.5 159.5t-56.5 90-74 40-76.5 9.5-77.5-9.5-75-40-56.5-90-22.5-159.5v-653q0-154 59-230 55-72 172-72 115 0 170 72 59 76 60 230v180h-299v65h364v-245q0-178-73-271-74-94-221.5-94t-223.5 94q-72 95-72 271z"/><glyph unicode="H" horiz-adv-x="704" d="M20 0v1380h66v-659h418v659h65v-1380h-65v657h-418v-657h-66z"/><glyph unicode="I" horiz-adv-x="223" d="M47 0v1380h64v-1380h-64z"/><glyph unicode="J" horiz-adv-x="663" d="M0 338v31h63v-31q0-92 20.5-146.5t51.5-83 68-37 71-8.5q102 0 156 64 53 70 53 211v1042h64v-1042q0-168-68-250-68-88-205-88t-206 88q-68 82-68 250z"/><glyph unicode="K" horiz-adv-x="737" d="M16 0v1380h66v-784l524 784h78l-424-632 424-748h-74l-389 686-139-207v-479h-66z"/><glyph unicode="L" horiz-adv-x="604" d="M8 0v1380h66v-1317h463v-63h-529z"/><glyph unicode="M" horiz-adv-x="968" d="M14 0v1380h56l354-1230 352 1230h58v-1380h-66v1118l-319-1118h-50l-321 1118v-1118h-64z"/><glyph unicode="N" horiz-adv-x="737" d="M18 0v1380h56l475-1181v1181h65v-1380h-53l-477 1182v-1182h-66z"/><glyph unicode="O" horiz-adv-x="729" d="M20 367v649q0 176 72 270 76 94 221 94 147 0 222-94 74-92 73-270v-649q0-115-26.5-185.5t-69.5-111.5-95-55.5-104-14.5q-49 0-101 14.5t-95 55.5-70 111.5-27 185.5zm64 0q0-156 59-232 55-72 170-72 113 0 172 72 57 72 58 232v649q0 158-57.5 229.5t-172.5 71.5q-117 0-170-72-59-76-59-229v-649z"/><glyph unicode="P" horiz-adv-x="696" d="M23 0v1380h247q166 0 244-90t78-270-78-270.5-244-90.5h-184v-659h-63zm63 723h184q135 0 197 70 59 72 59 227 0 160-59 228.5t-197 68.5h-184v-594z"/><glyph unicode="Q" d="M12 373v649q0 176 74 266 74 92 221 92 145 0 219-92 74-90 74-266v-649q0-176-72-273l-4-4 133-159h-84l-94 114q-70-51-172-51-147 0-221 100-74 95-74 273zm66 0q0-156 59-234 55-76 170-76 78 0 131 37l-92 113h82l55-66q51 76 52 226v649q0 156-58 227-55 68-169.5 68t-170.5-68q-59-76-59-227v-649z"/><glyph unicode="R" d="M23 2v1380h247q166 0 243-89t77-277q0-184-76-275-33-39-82-63 39-18 70-49 92-88 92-244v-383h-66v383q0 125-67.5 193.5t-190.5 68.5h-184v-645h-63zm63 711h184q137 0 195 69 61 74 61 234 0 162-59 231.5t-197 69.5h-184v-604z"/><glyph unicode="S" d="M20 1016q0 156 72 256 82 111 223 110 145 0 224-96 74-92 73-270v-33h-65v33q0 156-60 231-55 70-172 70-111 0-170-84-61-84-61-217 0-74 24.5-125t60.5-86 75-55.5 69-32.5l33-15q27-10 72-31.5t88-61.5 74.5-101.5 31.5-151.5q0-154-73-250-80-104-224-104-147 0-221 94-74 88-74 271v30h64v-30q0-102 22.5-162t56.5-90.5 75-39.5 77-9q111 0 171.5 76.5t60.5 213.5q0 74-25.5 124t-61.5 83-75 51.5-63 28.5l-35 14q-31 12-76 36t-87 66-73 104.5-31 152.5z"/><glyph unicode="T" horiz-adv-x="821" d="M10 1317v65h725v-65h-332v-1315h-63v1315h-330z"/><glyph unicode="U" d="M14 340v1042h64v-1042q0-92 20.5-146.5t51-83 67.5-36.5 72-8q33 0 69.5 8t67.5 36.5 51.5 83 20.5 146.5v1042h63v-1042q0-104-25.5-171t-64.5-103.5-88-50-94-13.5q-47 0-95.5 13.5t-88 50-65.5 103.5-26 171z"/><glyph unicode="V" horiz-adv-x="821" d="M0 1382h66l305-1216 303 1216h67l-346-1380h-49z"/><glyph unicode="W" horiz-adv-x="1333" d="M0 1380h66l266-1198 264 1198h51l264-1198 260 1198h68l-301-1380h-53l-264 1198-265-1198h-51z"/><glyph unicode="X" horiz-adv-x="802" d="M-8 0l327 690-327 690h71l293-614 287 614h72l-324-690 328-690h-72l-291 614-293-614h-71z"/><glyph unicode="Y" horiz-adv-x="854" d="M-20 1380h73l342-622 342 622h74l-383-698v-682h-63v682z"/><glyph unicode="Z" horiz-adv-x="837" d="M0 1317v63h672v-59l-590-1258h600v-63h-672v63l588 1254h-598z"/><glyph unicode="[" horiz-adv-x="1705"/><glyph unicode="\" horiz-adv-x="778" d="M45 1380h70l553-1380h-70z"/><glyph unicode="]" horiz-adv-x="1705"/><glyph unicode="^" horiz-adv-x="1705"/><glyph unicode="_" horiz-adv-x="944" d="M41 0h827v-63h-827v63z"/><glyph unicode="`" horiz-adv-x="165" d="M20 1200v180h64v-180h-64z"/><glyph unicode="a" horiz-adv-x="802" d="M20 0l109 479v6l209 895h51l316-1380h-66l-94 422h-365l-94-422h-66zm177 485h333l-168 721z"/><glyph unicode="b" horiz-adv-x="688" d="M35 0v1380h227q158 0 234-90 72-90 71-270 0-178-71-268-16-20-35-35t-41-27q43-20 76-59 72-90 71.5-270.5t-71.5-270.5q-76-90-234-90h-227zm65 63h162q129 0 184.5 69t55.5 228.5-58 229.5q-55 70-182 69h-162v-596zm0 660h162q127 0 182 70 57 70 58 227 0 160-55.5 228.5t-184.5 68.5h-162v-594z"/><glyph unicode="c" horiz-adv-x="704" d="M16 367v649q0 113 27 184.5t70 111.5 95 54 103 14q49 0 101.5-14t95.5-54 69.5-112 26.5-184v-33h-65v33q0 158-58 229-59 72-170 72-113 0-172-72-57-72-57-229v-649q0-158 59-232 55-72 170-72 111 0 170 72 57 76 58 232v32h65v-32q0-115-26.5-185.5t-69.5-111.5-95.5-55.5-101.5-14.5q-51 0-103 14.5t-95 55.5-70 111.5-27 185.5z"/><glyph unicode="d" d="M25 0v1380h235q164 0 244-98 76-90 76-274v-635q0-184-76-275-80-98-244-98h-235zm63 63h172q133 0 193.5 75t60.5 235v635q0 160-60.5 234.5t-193.5 74.5h-172v-1254z"/><glyph unicode="e" horiz-adv-x="620" d="M20 0v1380h496v-63h-432v-594h432v-64h-432v-596h432v-63h-496z"/><glyph unicode="f" horiz-adv-x="630" d="M14 0v1380h496v-63h-432v-594h432v-64h-432v-659h-64z"/><glyph unicode="g" horiz-adv-x="720" d="M20 365v653q0 178 72 268 76 94 223.5 94t221.5-94q74-90 73-268v-33h-65v33q0 100-22.5 159.5t-56.5 90-74 40-76.5 9.5-77.5-9.5-75-40-56.5-90-22.5-159.5v-653q0-154 59-230 55-72 172-72 115 0 170 72 59 76 60 230v180h-299v65h364v-245q0-178-73-271-74-94-221.5-94t-223.5 94q-72 95-72 271z"/><glyph unicode="h" horiz-adv-x="704" d="M20 0v1380h66v-659h418v659h65v-1380h-65v657h-418v-657h-66z"/><glyph unicode="i" horiz-adv-x="223" d="M47 0v1380h64v-1380h-64z"/><glyph unicode="j" horiz-adv-x="663" d="M0 338v31h63v-31q0-92 20.5-146.5t51.5-83 68-37 71-8.5q102 0 156 64 53 70 53 211v1042h64v-1042q0-168-68-250-68-88-205-88t-206 88q-68 82-68 250z"/><glyph unicode="k" horiz-adv-x="737" d="M16 0v1380h66v-784l524 784h78l-424-632 424-748h-74l-389 686-139-207v-479h-66z"/><glyph unicode="l" horiz-adv-x="604" d="M8 0v1380h66v-1317h463v-63h-529z"/><glyph unicode="m" horiz-adv-x="968" d="M14 0v1380h56l354-1230 352 1230h58v-1380h-66v1118l-319-1118h-50l-321 1118v-1118h-64z"/><glyph unicode="n" horiz-adv-x="737" d="M18 0v1380h56l475-1181v1181h65v-1380h-53l-477 1182v-1182h-66z"/><glyph unicode="o" horiz-adv-x="729" d="M20 367v649q0 176 72 270 76 94 221 94 147 0 222-94 74-92 73-270v-649q0-115-26.5-185.5t-69.5-111.5-95-55.5-104-14.5q-49 0-101 14.5t-95 55.5-70 111.5-27 185.5zm64 0q0-156 59-232 55-72 170-72 113 0 172 72 57 72 58 232v649q0 158-57.5 229.5t-172.5 71.5q-117 0-170-72-59-76-59-229v-649z"/><glyph unicode="p" horiz-adv-x="696" d="M23 0v1380h247q166 0 244-90t78-270-78-270.5-244-90.5h-184v-659h-63zm63 723h184q135 0 197 70 59 72 59 227 0 160-59 228.5t-197 68.5h-184v-594z"/><glyph unicode="q" d="M12 373v649q0 176 74 266 74 92 221 92 145 0 219-92 74-90 74-266v-649q0-176-72-273l-4-4 133-159h-84l-94 114q-70-51-172-51-147 0-221 100-74 95-74 273zm66 0q0-156 59-234 55-76 170-76 78 0 131 37l-92 113h82l55-66q51 76 52 226v649q0 156-58 227-55 68-169.5 68t-170.5-68q-59-76-59-227v-649z"/><glyph unicode="r" d="M23 2v1380h247q166 0 243-89t77-277q0-184-76-275-33-39-82-63 39-18 70-49 92-88 92-244v-383h-66v383q0 125-67.5 193.5t-190.5 68.5h-184v-645h-63zm63 711h184q137 0 195 69 61 74 61 234 0 162-59 231.5t-197 69.5h-184v-604z"/><glyph unicode="s" d="M20 1016q0 156 72 256 82 111 223 110 145 0 224-96 74-92 73-270v-33h-65v33q0 156-60 231-55 70-172 70-111 0-170-84-61-84-61-217 0-74 24.5-125t60.5-86 75-55.5 69-32.5l33-15q27-10 72-31.5t88-61.5 74.5-101.5 31.5-151.5q0-154-73-250-80-104-224-104-147 0-221 94-74 88-74 271v30h64v-30q0-102 22.5-162t56.5-90.5 75-39.5 77-9q111 0 171.5 76.5t60.5 213.5q0 74-25.5 124t-61.5 83-75 51.5-63 28.5l-35 14q-31 12-76 36t-87 66-73 104.5-31 152.5z"/><glyph unicode="t" horiz-adv-x="821" d="M10 1317v65h725v-65h-332v-1315h-63v1315h-330z"/><glyph unicode="u" d="M14 340v1042h64v-1042q0-92 20.5-146.5t51-83 67.5-36.5 72-8q33 0 69.5 8t67.5 36.5 51.5 83 20.5 146.5v1042h63v-1042q0-104-25.5-171t-64.5-103.5-88-50-94-13.5q-47 0-95.5 13.5t-88 50-65.5 103.5-26 171z"/><glyph unicode="v" horiz-adv-x="821" d="M0 1382h66l305-1216 303 1216h67l-346-1380h-49z"/><glyph unicode="w" horiz-adv-x="1333" d="M0 1380h66l266-1198 264 1198h51l264-1198 260 1198h68l-301-1380h-53l-264 1198-265-1198h-51z"/><glyph unicode="x" horiz-adv-x="802" d="M-8 0l327 690-327 690h71l293-614 287 614h72l-324-690 328-690h-72l-291 614-293-614h-71z"/><glyph unicode="y" horiz-adv-x="854" d="M-20 1380h73l342-622 342 622h74l-383-698v-682h-63v682z"/><glyph unicode="z" horiz-adv-x="837" d="M0 1317v63h672v-59l-590-1258h600v-63h-672v63l588 1254h-598z"/><glyph unicode="{" horiz-adv-x="1705"/><glyph unicode="|" horiz-adv-x="182" d="M27 0v1380h63v-1380h-63z"/><glyph unicode="}" horiz-adv-x="1705"/><glyph unicode="~" horiz-adv-x="1705"/><glyph unicode="©" horiz-adv-x="1705"/><glyph unicode="ª" horiz-adv-x="802" d="M20 0l109 479v6l209 895h51l316-1380h-66l-94 422h-365l-94-422h-66zm177 485h333l-168 721z"/><glyph unicode="­" horiz-adv-x="612" d="M27 657v64h499v-64h-499z"/><glyph unicode="®" horiz-adv-x="1705"/><glyph unicode="²" horiz-adv-x="655" d="M25 0v33q0 92 12 167.5t37 141.5q53 150 186 270 211 193 211 439 0 123-49 194.5t-141 71.5q-96 0-142-64-49-68-49-211v-32h-65v32q0 162 63.5 250t192.5 88q123 0 194-98 61-90 62-231 0-279-234-488-109-96-159-215t-54-285h447v-63h-512z"/><glyph unicode="³" horiz-adv-x="620" d="M20 365v32h66v-32q0-158 51-230 47-72 139-72 88 0 140 80 27 39 39 93.5t12 119.5q0 92-28.5 147.5t-59.5 84.5q-41 39-83 54t-73 15h-59v64h59q37 0 80 18.5t79 55 60.5 93 24.5 134.5q0 66-12.5 120t-38.5 95q-49 80-140 80-190 0-190-303v-33h-66v33q0 174 62 266 68 100 194.5 100t194.5-110q61-92 61-248 0-106-35.5-174t-72.5-103q-37-37-78-57 45-23 78-55 37-35 72.5-101.5t35.5-175.5q0-164-69.5-260t-186.5-96q-127 0-194 98-62 93-62 267z"/><glyph unicode="¹" horiz-adv-x="397" d="M16 1108l209 272h64v-1380h-66v1270l-157-203z"/><glyph unicode="º" horiz-adv-x="729" d="M20 367v649q0 176 72 270 76 94 221 94 147 0 222-94 74-92 73-270v-649q0-115-26.5-185.5t-69.5-111.5-95-55.5-104-14.5q-49 0-101 14.5t-95 55.5-70 111.5-27 185.5zm64 0q0-156 59-232 55-72 170-72 113 0 172 72 57 72 58 232v649q0 158-57.5 229.5t-172.5 71.5q-117 0-170-72-59-76-59-229v-649z"/><glyph unicode="À" horiz-adv-x="802" d="M20 0l109 479v6l209 895h51l316-1380h-66l-94 422h-365l-94-422h-66zm177 485h333l-168 721zm135 1018v180h63v-180h-63z"/><glyph unicode="Â" horiz-adv-x="802" d="M20 0l109 479v6l209 895h51l316-1380h-66l-94 422h-365l-94-422h-66zm177 485h333l-168 721z"/><glyph unicode="Ã" horiz-adv-x="802" d="M20 0l109 479v6l209 895h51l316-1380h-66l-94 422h-365l-94-422h-66zm177 485h333l-168 721z"/><glyph unicode="Å" horiz-adv-x="802" d="M20 0l109 479v6l209 895h51l316-1380h-66l-94 422h-365l-94-422h-66zm177 485h333l-168 721z"/><glyph unicode="È" horiz-adv-x="620" d="M20 0v1380h496v-63h-432v-594h432v-64h-432v-596h432v-63h-496zm218 1503v180h63v-180h-63z"/><glyph unicode="Ê" horiz-adv-x="620" d="M20 0v1380h496v-63h-432v-594h432v-64h-432v-596h432v-63h-496z"/><glyph unicode="Ì" horiz-adv-x="223" d="M47 0v1380h64v-1380h-64zm0 1503v180h64v-180h-64z"/><glyph unicode="Î" horiz-adv-x="223" d="M47 0v1380h64v-1380h-64z"/><glyph unicode="Ñ" horiz-adv-x="737" d="M18 0v1380h56l475-1181v1181h65v-1380h-53l-477 1182v-1182h-66z"/><glyph unicode="Ò" horiz-adv-x="729" d="M20 367v649q0 176 72 270 76 94 221 94 147 0 222-94 74-92 73-270v-649q0-115-26.5-185.5t-69.5-111.5-95-55.5-104-14.5q-49 0-101 14.5t-95 55.5-70 111.5-27 185.5zm64 0q0-156 59-232 55-72 170-72 113 0 172 72 57 72 58 232v649q0 158-57.5 229.5t-172.5 71.5q-117 0-170-72-59-76-59-229v-649zm199 1136v180h63v-180h-63z"/><glyph unicode="Ô" horiz-adv-x="729" d="M20 367v649q0 176 72 270 76 94 221 94 147 0 222-94 74-92 73-270v-649q0-115-26.5-185.5t-69.5-111.5-95-55.5-104-14.5q-49 0-101 14.5t-95 55.5-70 111.5-27 185.5zm64 0q0-156 59-232 55-72 170-72 113 0 172 72 57 72 58 232v649q0 158-57.5 229.5t-172.5 71.5q-117 0-170-72-59-76-59-229v-649z"/><glyph unicode="Õ" horiz-adv-x="729" d="M20 367v649q0 176 72 270 76 94 221 94 147 0 222-94 74-92 73-270v-649q0-115-26.5-185.5t-69.5-111.5-95-55.5-104-14.5q-49 0-101 14.5t-95 55.5-70 111.5-27 185.5zm64 0q0-156 59-232 55-72 170-72 113 0 172 72 57 72 58 232v649q0 158-57.5 229.5t-172.5 71.5q-117 0-170-72-59-76-59-229v-649z"/><glyph unicode="Ù" d="M14 340v1042h64v-1042q0-92 20.5-146.5t51-83 67.5-36.5 72-8q33 0 69.5 8t67.5 36.5 51.5 83 20.5 146.5v1042h63v-1042q0-104-25.5-171t-64.5-103.5-88-50-94-13.5q-47 0-95.5 13.5t-88 50-65.5 103.5-26 171zm242 1165v181h63v-181h-63z"/><glyph unicode="Û" d="M14 340v1042h64v-1042q0-92 20.5-146.5t51-83 67.5-36.5 72-8q33 0 69.5 8t67.5 36.5 51.5 83 20.5 146.5v1042h63v-1042q0-104-25.5-171t-64.5-103.5-88-50-94-13.5q-47 0-95.5 13.5t-88 50-65.5 103.5-26 171z"/><glyph unicode="à" horiz-adv-x="802" d="M20 0l109 479v6l209 895h51l316-1380h-66l-94 422h-365l-94-422h-66zm177 485h333l-168 721zm135 1018v180h63v-180h-63z"/><glyph unicode="â" horiz-adv-x="802" d="M20 0l109 479v6l209 895h51l316-1380h-66l-94 422h-365l-94-422h-66zm177 485h333l-168 721z"/><glyph unicode="ã" horiz-adv-x="802" d="M20 0l109 479v6l209 895h51l316-1380h-66l-94 422h-365l-94-422h-66zm177 485h333l-168 721z"/><glyph unicode="å" horiz-adv-x="802" d="M20 0l109 479v6l209 895h51l316-1380h-66l-94 422h-365l-94-422h-66zm177 485h333l-168 721z"/><glyph unicode="è" horiz-adv-x="620" d="M20 0v1380h496v-63h-432v-594h432v-64h-432v-596h432v-63h-496zm218 1503v180h63v-180h-63z"/><glyph unicode="ê" horiz-adv-x="620" d="M20 0v1380h496v-63h-432v-594h432v-64h-432v-596h432v-63h-496z"/><glyph unicode="ì" horiz-adv-x="223" d="M47 0v1380h64v-1380h-64zm0 1503v180h64v-180h-64z"/><glyph unicode="î" horiz-adv-x="223" d="M47 0v1380h64v-1380h-64z"/><glyph unicode="ñ" horiz-adv-x="737" d="M18 0v1380h56l475-1181v1181h65v-1380h-53l-477 1182v-1182h-66z"/><glyph unicode="ò" horiz-adv-x="729" d="M20 367v649q0 176 72 270 76 94 221 94 147 0 222-94 74-92 73-270v-649q0-115-26.5-185.5t-69.5-111.5-95-55.5-104-14.5q-49 0-101 14.5t-95 55.5-70 111.5-27 185.5zm64 0q0-156 59-232 55-72 170-72 113 0 172 72 57 72 58 232v649q0 158-57.5 229.5t-172.5 71.5q-117 0-170-72-59-76-59-229v-649zm199 1136v180h63v-180h-63z"/><glyph unicode="ô" horiz-adv-x="729" d="M20 367v649q0 176 72 270 76 94 221 94 147 0 222-94 74-92 73-270v-649q0-115-26.5-185.5t-69.5-111.5-95-55.5-104-14.5q-49 0-101 14.5t-95 55.5-70 111.5-27 185.5zm64 0q0-156 59-232 55-72 170-72 113 0 172 72 57 72 58 232v649q0 158-57.5 229.5t-172.5 71.5q-117 0-170-72-59-76-59-229v-649z"/><glyph unicode="õ" horiz-adv-x="729" d="M20 367v649q0 176 72 270 76 94 221 94 147 0 222-94 74-92 73-270v-649q0-115-26.5-185.5t-69.5-111.5-95-55.5-104-14.5q-49 0-101 14.5t-95 55.5-70 111.5-27 185.5zm64 0q0-156 59-232 55-72 170-72 113 0 172 72 57 72 58 232v649q0 158-57.5 229.5t-172.5 71.5q-117 0-170-72-59-76-59-229v-649z"/><glyph unicode="ù" d="M14 340v1042h64v-1042q0-92 20.5-146.5t51-83 67.5-36.5 72-8q33 0 69.5 8t67.5 36.5 51.5 83 20.5 146.5v1042h63v-1042q0-104-25.5-171t-64.5-103.5-88-50-94-13.5q-47 0-95.5 13.5t-88 50-65.5 103.5-26 171zm242 1165v181h63v-181h-63z"/><glyph unicode="û" d="M14 340v1042h64v-1042q0-92 20.5-146.5t51-83 67.5-36.5 72-8q33 0 69.5 8t67.5 36.5 51.5 83 20.5 146.5v1042h63v-1042q0-104-25.5-171t-64.5-103.5-88-50-94-13.5q-47 0-95.5 13.5t-88 50-65.5 103.5-26 171z"/><glyph unicode="ı" horiz-adv-x="223" d="M47 0v1380h64v-1380h-64z"/><glyph unicode="Œ" horiz-adv-x="1349" d="M20 367v649q0 176 72 270 76 94 221 94 147 0 222-94 74-92 73-270v-649q0-115-26.5-185.5t-69.5-111.5-95-55.5-104-14.5q-49 0-101 14.5t-95 55.5-70 111.5-27 185.5zm64 0q0-156 59-232 55-72 170-72 113 0 172 72 57 72 58 232v649q0 158-57.5 229.5t-172.5 71.5q-117 0-170-72-59-76-59-229v-649zm666-367v1380h495v-63h-432v-594h432v-64h-432v-596h432v-63h-495z"/><glyph unicode="œ" horiz-adv-x="1349" d="M20 367v649q0 176 72 270 76 94 221 94 147 0 222-94 74-92 73-270v-649q0-115-26.5-185.5t-69.5-111.5-95-55.5-104-14.5q-49 0-101 14.5t-95 55.5-70 111.5-27 185.5zm64 0q0-156 59-232 55-72 170-72 113 0 172 72 57 72 58 232v649q0 158-57.5 229.5t-172.5 71.5q-117 0-170-72-59-76-59-229v-649zm666-367v1380h495v-63h-432v-594h432v-64h-432v-596h432v-63h-495z"/><glyph unicode="ˆ" horiz-adv-x="1705"/><glyph unicode="˚" horiz-adv-x="1705"/><glyph unicode="˜" horiz-adv-x="1705"/><glyph horiz-adv-x="841"/><glyph horiz-adv-x="1685"/><glyph horiz-adv-x="841"/><glyph horiz-adv-x="1685"/><glyph horiz-adv-x="561"/><glyph horiz-adv-x="419"/><glyph horiz-adv-x="280"/><glyph horiz-adv-x="280"/><glyph horiz-adv-x="208"/><glyph horiz-adv-x="335"/><glyph horiz-adv-x="92"/><glyph unicode="‐" horiz-adv-x="612" d="M27 657v64h499v-64h-499z"/><glyph unicode="‑" horiz-adv-x="612" d="M27 657v64h499v-64h-499z"/><glyph unicode="‒" horiz-adv-x="612" d="M27 657v64h499v-64h-499z"/><glyph unicode="–" horiz-adv-x="612" d="M27 657v64h499v-64h-499z"/><glyph unicode="—" horiz-adv-x="612" d="M27 657v64h499v-64h-499z"/><glyph unicode="‘" horiz-adv-x="165" d="M20 1200v180h64v-180h-64z"/><glyph unicode="’" horiz-adv-x="165" d="M20 1200v180h64v-180h-64z"/><glyph unicode="“" horiz-adv-x="307" d="M20 1200v180h64v-180h-64zm121 0v180h66v-180h-66z"/><glyph unicode="”" horiz-adv-x="307" d="M20 1200v180h64v-180h-64zm121 0v180h66v-180h-66z"/><glyph unicode="•" horiz-adv-x="1705"/><glyph unicode="…" horiz-adv-x="497" d="M25 0v88h65v-88h-65zm165 0v88h66v-88h-66zm166 0v88h66v-88h-66z"/><glyph horiz-adv-x="335"/><glyph horiz-adv-x="419"/><glyph unicode="™" horiz-adv-x="1789"/><glyph unicode="" horiz-adv-x="1380" d="M0 1380h1380v-1380h-1380v1380z"/><glyph unicode="ﬁ" horiz-adv-x="854" d="M14 0v1380h496v-63h-432v-594h432v-64h-432v-659h-64zm664 0v1380h63v-1380h-63z"/><glyph unicode="ﬂ" horiz-adv-x="1234" d="M14 0v1380h496v-63h-432v-594h432v-64h-432v-659h-64zm625 0v1380h66v-1317h462v-63h-528z"/><glyph unicode="ﬃ" horiz-adv-x="1484" d="M14 0v1380h496v-63h-432v-594h432v-64h-432v-659h-64zm631 0v1380h496v-63h-432v-594h432v-64h-432v-659h-64zm664 0v1380h63v-1380h-63z"/><glyph unicode="ﬄ" horiz-adv-x="1865" d="M14 0v1380h496v-63h-432v-594h432v-64h-432v-659h-64zm631 0v1380h496v-63h-432v-594h432v-64h-432v-659h-64zm625 0v1380h65v-1317h463v-63h-528z"/></font>
</defs>
</svg>
