<svg xmlns="http://www.w3.org/2000/svg"><defs><font horiz-adv-x="829"><font-face units-per-em="2048" ascent="1536" descent="-512"/><glyph horiz-adv-x="630"/><glyph horiz-adv-x="630"/><glyph horiz-adv-x="630"/><glyph unicode="!" horiz-adv-x="299" d="M0 4v217h72v-145h49v145h72v-217h-193zm0 330v1179h72v-1179h-72zm121 0v1179h72v-1179h-72z"/><glyph unicode=""" horiz-adv-x="579" d="M0 1204v309h193v-309h-193zm72 72h49v164h-49v-164zm213-72v309h192v-309h-192zm71 72h50v164h-50v-164z"/><glyph unicode="#" horiz-adv-x="1169" d="M-41 467v74h360l-106-541h-72l90 467h-272zm0 121v74h311l37 192h-284v74h372l-65-340h-371zm64 387v74h323l90 464h74l-104-538h-383zm239-975l107 541h305l-107-541h-69l90 467h-158l-92-467h-76zm117 588l65 340h308l-68-340h-305zm76 387l106 538h72l-90-464h157l88 464h78l-106-538h-305zm12-313h158l39 192h-158zm149-662l107 541h344v-74h-283l-90-467h-78zm117 588l68 340h329v-74h-270l-39-192h246v-74h-334zm76 387l106 538h70l-88-464h233v-74h-321z"/><glyph unicode="$" horiz-adv-x="729" d="M0 481v99h72v-99q0-147 61-227 59-72 162-78v-176h-72v115q-53 14-89 40.5t-56 53.5q-78 96-78 272zm0 551q0 78 19.5 142.5t54.5 115.5q55 76 149 109v114h72v-174q-49-4-91-27.5t-71-64.5-45-95-16-120q0-119 75-201 31-33 66-52l63-34q10-4 17.5-8t13.5-8q14-10 37-18 27-12 56.5-28.5t56-44.5 44-68 17.5-97q0-117-52-183.5t-147-66.5q-98 0-147 62-51 59-51 196v99h72v-99q0-109 36-151 8-10 27.5-22.5t62.5-12.5q41 0 67 18.5t39 46 17 58.5 4 55q0 39-10 65.5t-27.5 45-42 33-53.5 28.5q-29 10-43 21-4 4-11 7t-15 7l-70 39q-41 23-80 63-94 100-94 250zm121 0q0 117 51 187 51 74 147 73 100 0 150-61 49-66 49-199v-96h-72v96q0 109-34 154-10 10-29.5 21.5t-63 11.5-69-22.5-38.5-53.5-16-62.5-3-48.5q0-39 10-65.5t28.5-47 44-37 56.5-30.5q10-4 19-9t18-12q12-4 24-10 27-12 70-35.5t82-63.5 67.5-100.5 28.5-148.5q0-154-78-254-57-78-145-102v-117h-74v176q100 6 161.5 86t61.5 211q0 70-21.5 118t-53 79.5-66.5 51-61 32.5q-10 4-18.5 8t-14.5 8-14.5 8-18.5 10q-27 12-58.5 31t-58 46.5-44 67.5-17.5 99zm223 307v174h74v-112q53-16 88-42t57-52q78-100 78-275v-96h-74v96q0 152-61 230-56 71-162 77z"/><glyph unicode="%" horiz-adv-x="1259" d="M0 1022v176q0 55 17.5 101.5t48 80 73.5 52 92 18.5q102 0 168-70.5t66-181.5v-176q0-55-17.5-101.5t-48-80-73.5-52-95-18.5q-100 0-165.5 70.5t-65.5 181.5zm72 0q0-74 41-125 45-55 118-55 76 0 121 55 39 47 39 125v176q0 35-9 67.5t-30 55.5q-45 57-121 57-74 0-118-57-41-47-41-123v-176zm49 0v176q0 47 24.5 89t85.5 42q31 0 52.5-12t35-30.5 19.5-42 6-46.5v-176q0-23-6-46.5t-19.5-42-35-30.5-52.5-12q-61 0-85.5 42t-24.5 89zm72 0q0-59 38.5-59t38.5 59v176q0 59-38.5 59t-38.5-59v-176zm6-1018l559 1509h82l-568-1509h-73zm127 0l565 1509h74l-559-1509h-80zm368 311v177q0 111 65.5 181t168.5 70q49 0 92-18t73.5-52 48-80 17.5-101v-177q0-55-17.5-101t-48-80-73.5-52.5-92-18.5q-102 0-168 70.5t-66 181.5zm74 0q0-35 9-67.5t30-57.5q45-55 121-55 74 0 119 55 41 51 40 125v177q0 76-40 122-45 57-119 58-76 0-121-58-20-23-29.5-55.5t-9.5-66.5v-177zm47 0v177q0 23 6 46t19.5 41.5 35 31 52.5 12.5q61 0 85.5-42t24.5-89v-177q0-47-24.5-89t-85.5-42q-31 0-52.5 12.5t-35 31-19.5 41.5-6 46zm74 0q0-59 39-59t39 59v177q0 59-39 59t-39-59v-177z"/><glyph unicode="&" horiz-adv-x="1036" d="M0 408q0 80 19.5 140t51 106 70.5 82l78 69 15.5 12 13.5 12q-18 31-38 70t-36 84-27.5 91-11.5 93q0 152 43 232 63 115 197 114 145 0 205-133 23-49 27.5-106t4.5-107q0-86-21.5-166.5t-62.5-148.5l-18-29q-8-12-16-22l161-275q4 35 4 69v161h74v-99q0-68-8-156.5t-41-170.5l-279 479q14 14 37 44t44.5 74 38 104.5 16.5 135.5q0 43-5.5 93.5t-23.5 91.5q-37 88-137 88-90 0-133-74-33-66-33-199 0-51 16.5-105t38-101.5 43.5-84.5l35-59q-18-18-38-35l-38-32-72-64q-36-33-63-73t-43-89-16-116.5 20.5-128 59.5-105.5q86-98 223-98 209 0 313 153l82-141 51-84h-80l-65 102q-119-102-301-102-84 0-156 32t-123 91q-96 115-96 281zm121 0q0 57 13 101t38 79 56.5 64.5 68.5 60.5l36 31 36 32 290-500q-84-152-284-151-66 0-114 24.5t-78.5 64.5-46 90.5-15.5 103.5zm72 0q0-37 10-75t31.5-67.5 56.5-49 84-19.5q131 0 198 82l-223 385-6-7-63-56q-29-26-48.5-53.5t-29.5-61-10-78.5zm63 759q0 74 10 119t26.5 68.5 38 31 44.5 7.5q63 0 90-51.5t27-174.5q0-66-12.5-117t-31-89.5-38-66.5-33.5-42l-33 56q-20 36-39.5 79t-34 90-14.5 90zm74 0q0-41 15-88t38-90q14 35 24.5 79t10.5 99v26q0 17-2 36.5t-5 39-10 34.5q-4 10-8 13t-18.5 3-17.5-2-7-8q-8-14-14-45t-6-97zm385-888l4 8q41 92 51 193.5t10 176.5v99h74v-99q0-76-9-177t-48-197l174-279h-92l-68 109z"/><glyph unicode="'" horiz-adv-x="323" d="M0 1204v309h193v-309h-193zm72 72h49v164h-49v-164z"/><glyph unicode="(" horiz-adv-x="421" d="M0 754q0 362 98 577 41 86 78 122t49 44l39-59q-4-2-33.5-32t-65.5-105.5-64.5-207.5-28.5-339 29.5-337 64.5-205 65.5-102.5 32.5-29.5l2-2-39-62q-12 8-49 44t-78 122q-100 207-100 572zm121 0q0 205 28.5 329.5t57.5 190 57 96.5q14 16 27 27l39-62 4 2-23-25q-23-26-49-91.5t-47.5-178-21.5-288.5q0-166 20-275.5t45-174 47.5-92.5 26.5-32l-39-61-2 2q-12 8-27 24-12 14-26.5 37t-30.5 58q-29 63-57.5 187t-28.5 327z"/><glyph unicode=")" horiz-adv-x="438" d="M0 176l23 26q23 26 48 91t46.5 178 21.5 289q0 168-19.5 277.5t-44 174-47 91-26.5 30.5l41 66 4-2q12-10 27-27 27-29 57-92 29-66 56.5-188.5t27.5-327.5-27.5-329-56.5-189q-33-70-57-97-14-16-27-26l-4-2-39 61zm70-98l2 2q2 2 32.5 30.5t66.5 104.5 64.5 208 28.5 339-28.5 338-64.5 204.5-66.5 102.5l-32.5 31-2 2 36 57q12-8 49.5-43t77.5-121q100-207 101-573 0-362-101-576-39-86-75.5-121.5l-48.5-46.5z"/><glyph unicode="*" horiz-adv-x="753" d="M0 1210l25 68 270-100-197-228-57 49 129 148zm43 113l25 68 172-64v184h71v-288zm90-403l203 231 203-231-54-48-149 168-150-168zm227 303v288h72v-184l172 64 25-66zm17-45l268 102 27-70-170-63 129-148-56-47z"/><glyph unicode="+" horiz-adv-x="935" d="M0 662v71h373v-373h-74v302h-299zm0 120v72h299v299h74v-371h-373zm420-422v373h373v-71h-299v-302h-74zm0 422v371h74v-299h299v-72h-373z"/><glyph unicode="," horiz-adv-x="323" d="M0 8v211h193v-395zm72 37l49-45v145h-49v-100z"/><glyph unicode="-" horiz-adv-x="770" d="M0 662v71h618v-71h-618zm0 120v72h618v-72h-618z"/><glyph unicode="." horiz-adv-x="380" d="M0 2v217h193v-217h-193zm72 72h49v71h-49v-71z"/><glyph unicode="/" horiz-adv-x="854" d="M0 4l559 1509h82l-565-1509h-76zm127 0l565 1509h74l-559-1509h-80z"/><glyph unicode="0" horiz-adv-x="770" d="M0 430v641q0 193 72 305 84 129 247.5 129t247.5-129q74-111 74-305v-641q0-195-74-305-84-129-247.5-129t-247.5 129q-72 112-72 305zm72 0q0-172 61-264 61-98 186-98 123 0 189 98 59 94 59 264v641q0 174-59 264-63 96-189 97-127 0-186-97-61-90-61-264v-641zm49 0v641q0 313 198.5 313t198.5-313v-641q0-313-198.5-313t-198.5 313zm72 0q0-90 15-139t35.5-71.5 42-27 34-4.5 34 4.5 42 27 35.5 71.5 15 139v641q0 90-15 138t-35.5 71-42 27-34 4-34-4-42-27-35.5-71-15-138v-641z"/><glyph unicode="1" horiz-adv-x="563" d="M0 1159l242 346h186v-1509h-72v1452h-61l-234-340zm98-82l209 305v-1386h-71v1157l-86-117z"/><glyph unicode="2" horiz-adv-x="737" d="M0-4v96q0 92 17.5 170t50 148.5 75.5 141.5 97 148l42 61 37 52 53 72q24 33 40 66.5t25 71.5 9 87q0 18-4 51t-17 67-38 58.5-68 24.5q-16 0-37.5-3t-42-22.5-33.5-62.5-13-121v-96h-72v96q0 143 51 217 49 66 147 65 94 0 148-79 51-74 51-195 0-59-11-104t-29.5-84-43-76-55.5-76l-38.5-53.5-41.5-54.5-93-145q-42-67-72-133.5t-46-136-16-155.5v-24h569v-72h-641zm0 1010v96q0 186 76 289 29 39 87 76.5t156 37.5q70 0 128.5-27.5t99.5-77.5 65.5-122 26.5-158h2v-18h-2q-2-72-16.5-128t-37-104.5-50.5-90.5l-60-83-36.5-48-37.5-54-77-119q-35-53-59.5-101t-40-92-23.5-94h440v-71h-520q2 74 18.5 136t44 121.5 67.5 122.5l89 136 39 56 37 52 57 79q27 38 47.5 80t32.5 91 14 111v18q-4 129-59 211-68 100-188.5 100.5t-186.5-83.5q-61-84-61-246v-96h-72z"/><glyph unicode="3" horiz-adv-x="737" d="M0 426v96h72v-96q0-111 22.5-181.5t58-109.5 79.5-53 87-14q115 0 181.5 94t66.5 254q0 104-34.5 170.5t-71.5 101.5q-41 39-90 60 53 27 90 63 37 35 71.5 100.5t34.5 171.5q0 160-66.5 254.5t-181.5 94.5q-127 0-186-97-61-90-61-262v-96h-72v96q0 195 72 303 88 129 247 129 162 0 250-141 72-113 72-281 0-125-42-203.5t-87-121.5q-4-2-5-4t-5-4l10-11q45-41 87-119.5t42-203.5q0-84-18.5-156t-53.5-127q-43-66-107.5-101.5t-142.5-35.5q-162 0-247 127-35 55-53.5 130t-18.5 173zm121 0v96h72v-96q0-86 13-130t27-67q10-16 29-28.5t57-12.5q45 0 71 30t38 69 15 76.5 3 52.5q0 66-20.5 110.5t-48 72.5-59 40-52.5 12h-92v74h92q33 0 77-16.5t85-55.5q31-31 60.5-88t29.5-149q0-133-51-217-51-82-148-82-98 0-145 73-53 78-53 236zm0 551v96q0 311 198 311 94 0 148-84 51-84 51-217 0-80-24.5-138t-62.5-97-82-57.5-83-18.5h-92v74h92q20 0 52 12t59.5 40 48 73 20.5 112q0 8-3 45t-15 77-37.5 73-71.5 33q-12 0-33.5-4t-42-25.5-35.5-71-15-137.5v-96h-72z"/><glyph unicode="4" horiz-adv-x="778" d="M0 416v194l471 895h176v-1509h-72v1438h-36l-480-869v-76h467v-493h-71v420h-455zm119 121v36l407 742v-778h-407zm102 73h234v449z"/><glyph unicode="5" horiz-adv-x="761" d="M0 315v33h72v-33q0-41 17-84t46-77q74-86 184-86 121 0 189 108 29 47 44 109.5t15 134.5v145q0 168-59 256-66 90-189 90-121 0-186-88l-12-18v579h520v-73h-448v-350q61 23 126 22 100 0 160-40t88-81q74-104 74-297v-145q0-168-72-283-88-141-250-141-72 0-133 28.5t-106 81.5q-39 45-59.5 100.5t-20.5 108.5zm0 215v975h641v-73h-569v-834h49q0 37 7 83t27.5 86 59.5 67.5 104 27.5q199 0 199-297v-145q0-133-51-217-55-86-148-86-49 0-85.5 19.5t-61.5 48-38 64.5-13 66v33h72v-33q0-12 6-33.5t21.5-42 39-36 60-15.5 61.5 24 39 59.5 20 75.5 6 73v145q0 82-12 125t-26 62q-10 14-29 26.5t-59.5 12.5-59-13.5-29.5-25.5q-39-51-38-154v-68h-193z"/><glyph unicode="6" horiz-adv-x="753" d="M0 383v606q0 225 68 354 41 78 105.5 120t145.5 42q158 0 246-116 76-100 76-265v-63h-74v63q0 141-61 222-66 86-187 86-125 0-188-123-59-115-59-320v-606q0-147 65.5-231t181.5-84q119 0 189 110 29 47 44 111.5t15 138.5v150q0 172-59 262-66 90-189 90-131 0-198-127v186q0 55 7 124t27.5 129.5 59.5 101 104 40.5q98 0 148-67 51-66 51-193v-63h-72v63q0 100-36 148-10 14-30 26.5t-61 12.5q-43 0-67.5-37t-37.5-88-17-105.5-4-91.5v-14q61 29 126 29 162 0 248-123 74-111 74-303v-150q0-98-23.5-177t-65.5-136.5-101.5-88-131.5-30.5q-156 0-243 119-76 100-76 268zm121 0v197q0 135 53 217 51 86 145 86 199 0 199-305v-150q0-137-51-223-55-88-148-88-96 0-147 69.5t-51 196.5zm71 0q0-102 39-154 10-14 29-27.5t59-13.5q37 0 61.5 25t39 61.5 20.5 77.5 6 76v150q0 86-14 133t-33.5 68.5-42 25.5-37.5 4q-45 0-69.5-32t-36.5-71.5-16-76.5q-5-37-5-49v-197z"/><glyph unicode="7" horiz-adv-x="878" d="M0 1311v73h688l-579-1388h-84l555 1315h-580zm0 121v73h793v-194h-5l-552-1315h-74l573 1376v60h-735z"/><glyph unicode="8" horiz-adv-x="794" d="M0 420q0 203 78 307 4 6 9 12l9 11-18 24q-78 102-78 305t78 307q88 119 264 119 174 0 264-119 78-109 78-307t-78-305l-18-24q6-6 18-23 78-109 78-307.5t-78-304.5q-88-119-264-119-178 0-264 119-78 102-78 305zm72 0q0-180 65.5-266t204.5-86q137 0 202.5 86t65.5 266-63 264q-33 45-80 66 143 66 143 329 0 182-65.5 267.5t-202.5 85.5q-139 0-204.5-85t-65.5-268q0-262 143-329-45-20-80-66-63-84-63-264zm49 0q0 162 52 234.5t169 72.5 169-72.5 52-234.5q0-160-52-231.5t-169-71.5-169 71.5-52 231.5zm0 659.5q0 159.5 52 232t169 72.5 169-72.5 52-232-52-232.5-169-73-169 73-52 232.5zm72-659.5q0-86 14-133t35.5-68.5 48-26 51.5-4.5 50.5 4.5 47 26 35.5 68.5 14 133-12 130-26 62q-10 16-33 28.5t-76 12.5-75.5-12-33.5-29q-14-18-27-62t-13-130zm0 659q0-86 14-133t35.5-68.5 48-25.5 51.5-4 50.5 4 47 25.5 35.5 68.5 14 133-14 133.5-35.5 69-47 25.5-50.5 4-51.5-4-48-25.5-35.5-69-14-133.5z"/><glyph unicode="9" horiz-adv-x="753" d="M0 924v151q0 174 72 287 43 70 106.5 106.5t140.5 36.5q156 0 246-114 76-104 76-269v-612q0-115-17.5-203t-50.5-153q-86-158-254-158-78 0-140 30.5t-105 90.5q-74 100-74 276v66h72v-66q0-156 64.5-240.5t182.5-84.5q127 0 189 120 59 113 59 322v612q0 147-64.5 228.5t-183.5 81.5q-113 0-180-96.5t-67-260.5v-151q0-176 61-262 61-94 186-95 66 0 117 34t82 95v-186q0-68-8-137.5t-29.5-127-60.5-93-101-35.5q-96 0-147 69-51 74-51 207v66h72v-66q0-78 15-119t36.5-60 42-22.5 32.5-3.5q41 0 67 33t39 82 17 105.5 4 101.5v14q-55-29-127-28-162 0-245 125-74 106-74 303zm121 0v151q0 139 53 223 51 86 145 86 98 0 148-67 27-35 39-84t12-111v-200q0-135-51-220-53-86-148-86-198 1-198 308zm72 0q0-88 14-136.5t33.5-70 41-25.5 37.5-4q45 0 71 32t38 73 15 78.5 3 50.5v200q0 70-15 109t-35.5 56.5-42 20.5-34.5 3q-47 0-72.5-34t-37.5-75-14-80-2-47v-151z"/><glyph unicode=":" horiz-adv-x="299" d="M0 338v285h193v-285h-193zm0 563v285h193v-285h-193zm72-491h49v139h-49v-139zm0 563h49v141h-49v-141z"/><glyph unicode=";" horiz-adv-x="323" d="M0 426v197h193v-392zm0 475v285h193v-285h-193zm72-452l49-48v148h-49v-100zm0 524h49v141h-49v-141z"/><glyph unicode="<" horiz-adv-x="1705"/><glyph unicode="=" horiz-adv-x="1705" d="M0 436v72h618v-72h-618zm0 121v72h618v-72h-618zm0 330v71h618v-71h-618zm0 121v71h618v-71h-618z"/><glyph unicode=">" horiz-adv-x="1705"/><glyph unicode="?" horiz-adv-x="745" d="M0 997v99q0 188 74 293 84 125 245 124 78 0 142.5-35.5t107.5-105.5q68-109 70-260h2v-16h-2q-2-82-27.5-150.5t-59.5-124-71-95.5l-63-67-25-24q-23-29-26.5-74t-3.5-125v-100h-74v100q0 82 6 141.5t43 104.5l29 29 57.5 60.5 63 83.5 53 108.5 26.5 132.5v16q-2 66-17 122t-42 99q-70 106-189 107-123 0-186-92-61-86-61-252v-99h-72zm121 0v99q0 297 198 297 92 0 148-86 51-80 51-201 0-66-20.5-122t-49-101-60.5-80l-56-60-31-30q-45-53-52-122t-7-155v-100h-74v100q0 47 1 90t8 84 23.5 78 45.5 72l16 16 19 19 49 51q29 31 54.5 69.5t42.5 86 19 102.5q0 33-7 69.5t-21.5 69.5-38 54.5-60.5 21.5q-14 0-35.5-3t-42-24.5-34.5-66.5-14-129v-99h-72zm47-993v217h72v-145h49v145h71v-217h-192z"/><glyph unicode="@" horiz-adv-x="1417" d="M-29 797q41 254 207 424 74 78 167 127t198 71q76 16 150 16 22 0 44-1 96-6 182.5-39t158-90.5 122.5-135.5q35-55 57.5-128.5t28.5-153.5q1-22 1-45 0-55-7-109-10-76-37-139-25-63-78-116.5t-125-92.5q-70-35-138-46-28-5-54-5-37 0-70 10-84 23-116 96-29-6-55.5-7t-49.5-1q-141 0-211 80-58 66-58 179 0 31 5 67 18 147 90 225 84 90 225 90 29 0 60.5-3t66.5-13l2 22 72-12-9-56-12-69-12 12q-6 6-14 11-35 23-80 28.5t-74 5.5q-213 0-243-251-5-32-5-60 0-83 41-129 45-55 156-55 53 0 94 7t74 38q-2-6-2-17-2-13-2-25 0-30 14-52 20-31 64-41 22-5 47-6 23 0 49 5 55 9 113 38 59 31 103 74.5t65 95.5q23 57 31 123 6 46 7 94 0 21-2 43-10 147-73 250-43 68-106.5 117.5t-139.5 78.5-162 35q-22 2-43 1-65 0-131-13-190-41-328-179-74-76-121-173t-65-212q-11-68-11-131 0-122 42-225 63-156 217-250 82-51 181-76.5t210-25.5h21q11 0 24 2 121 6 230.5 43t197.5 100q2 2 26 20l52 40 43-62-78-55q-111-80-244-121t-272-41q-117 0-226.5 28.5t-203.5 86.5q-164 98-238 266-55 122-54 270-1 68 11 142zm119-19q18 121 68.5 212t116 155.5 142.5 102.5 150 55q61 12 121 12 19 0 38-1 79-5 147.5-32t126-72 98.5-106q29-43 45-101.5t21-120.5q2-22 2-45 0-40-6-81-9-63-30-117-16-43-49.5-77t-73.5-57.5-83-35.5-78-12q-25 0-35 4-42 11-42 51 0 7 1 14l8 47q6 35 13.5 83.5l16.5 104.5 18 111 18 104 14 83 72-12-17-95q0-2-9-55l-20-124-23-141q-11-71-17-104 14 0 35.5 4.5t50.5 16.5q47 20 84 51t49 66q18 45 26 99 5 35 4 69 0 20-1 39-4 54-17.5 104.5t-38.5 87.5q-35 51-83 90t-107.5 60.5-126.5 25.5q-15 1-30 1-53 0-107-11-168-35-280-158t-140-307q-9-58-10-112 0-96 31-175 48-123 171-196 78-47 173-68 76-16 155-16 20 0 39 1 98 5 192.5 35.5t169.5 86.5l78 57 43-57-53-41q-12-8-25-19-84-61-188-95t-214-40q-23-1-45-1-86 0-171 18-106 24-193 77-139 86-196 229-38 95-38 209-1 57 9 119zm322-37q14 111 61 161t135 50q86 0 127-26 16-12 29-38 7-14 7-38 0-20-5-47-16-94-33.5-144.5t-42-74-56.5-27.5-77-4q-88 0-121 39-28 32-27 100 0 22 3 49zm70-71q3-23 10-31 12-12 65-12 35 0 55.5 1t28.5 9q10 10 23.5 48t29.5 130q3 20 4 30 0 12-4 19-6 4-27.5 9.5t-58.5 5.5q-23 0-42-4.5t-35.5-18.5-29-43-18.5-80q-2-23-2-41 0-12 1-22z"/><glyph unicode="A" horiz-adv-x="960" d="M20 0l351 1509h153l350-1509h-75l-330 1423h-45l-330-1423h-74zm123 0l115 494h377l115-494h-74l-98 420h-263l-96-420h-76zm125 541l178 764 177-764h-355zm92 73h172l-86 369z"/><glyph unicode="B" horiz-adv-x="770" d="M0 0v72h291q154 0 227 88 70 84 70 264 0 178-70 266-35 41-88 66 158 63 158 329 0 180-72 265.5t-225 85.5h-291v73h291q190 0 282-114 88-106 89-310 0-205-89-311-8-12-16-20 12-12 16-19 88-106 88.5-311t-88.5-311q-92-113-282-113h-291zm0 121v1268h72v-1268h-72zm121 657v611h170q133 0 190-72 59-72 60-232 0-162-59.5-234.5t-190.5-72.5h-170zm0-657v610h170q131 0 190.5-72.5t59.5-234.5q0-158-60-234-57-70-190-69h-170zm72 731h98q66 0 94.5 14.5t38.5 30.5q43 51 43 188 0 80-13.5 126t-37 69-56 29-69.5 6h-98v-463zm0-659h98q37 0 69.5 6t56 28.5 37 69.5 13.5 127q0 82-14.5 128t-38 69.5-55 29.5-68.5 6h-98v-464z"/><glyph unicode="C" horiz-adv-x="837" d="M0 430v649q0 201 86 310 16 20 40 41.5t57.5 39 76.5 28.5 98 11q111 0 174.5-39.5t96.5-80.5q88-111 88-310v-96h-74v96q0 176-70 267-74 90-215 90t-215-90q-72-94-71-267v-649q0-111 26.5-181.5t67.5-109.5 92-53 100.5-14 99.5 14 91 53 67.5 109.5 26.5 181.5v98h74v-98q0-199-88-309-33-41-96.5-81t-174.5-40q-55 0-98 11.5t-76.5 28.5-57.5 38.5-40 42.5q-86 106-86 309zm121 0v649q0 309 237.5 309.5t237.5-309.5v-96h-74v96q0 88-17.5 136.5t-43 70-54 25.5-49.5 4q-23 0-50-4t-54-25.5-44-70-17-136.5v-649q0-133 47-190 10-16 36.5-31.5t82-15.5 81 15 37.5 32q45 57 45 190v98h74v-98q0-309-237.5-309t-237.5 309z"/><glyph unicode="D" horiz-adv-x="802" d="M0 0v72h301q156 0 238 94 74 92 73 270v635q0 178-73 270-80 94-238 95h-301v73h301q195 0 293-123 90-109 90-315v-635q0-207-90-315-98-121-293-121h-301zm0 121v1268h72v-1268h-72zm121 0v1268h180q139 0 199-78 63-76 63-240v-635q0-162-63-239-61-76-199-76h-180zm72 72h108q37 0 71 6t59.5 30.5 41.5 73.5 16 133v635q0 84-16 133t-41.5 74-59.5 31-71 6h-108v-1122z"/><glyph unicode="E" horiz-adv-x="761" d="M0 0v1509h625v-73h-553v-1364h553v-72h-625zm121 121v610h504v-74h-432v-464h432v-72h-504zm0 657v611h504v-74h-432v-463h432v-74h-504z"/><glyph unicode="F" horiz-adv-x="761" d="M0 0v1509h625v-73h-553v-1436h-72zm121 0v731h504v-74h-432v-657h-72zm0 778v611h504v-74h-432v-463h432v-74h-504z"/><glyph unicode="G" horiz-adv-x="845" d="M0 432v651q0 201 88 310 92 119 270 118 180 0 273-118 88-109 88-310v-96h-72v96q0 174-71.5 264.5t-217.5 90.5q-143 0-214.5-90.5t-71.5-264.5v-651q0-176 71-266 74-92 215-92 143 0 217 92 72 90 72 266v236h-356v71h428v-307q0-203-88-311-33-41-97.5-80t-175-39-174 39-96.5 80q-88 108-88 311zm121 0v651q0 160 61 234 57 74 176 74t179-74q61-74 61-234v-96h-74v96q0 82-14 128t-37.5 70-53.5 30-60.5 6-60.5-6-53.5-30-37.5-70-14-128v-651q0-90 17-138t44-69.5 54.5-25.5 50-4 51 4 54 25.5 43 69.5 17.5 138v115h-233v71h307v-186q0-162-61-235-55-74-179-74-121 0-176 74-61 73-61 235z"/><glyph unicode="H" horiz-adv-x="837" d="M0 2v1509h72v-1509h-72zm121 0v729h436v-729h-74v657h-290v-657h-72zm0 778v731h72v-659h290v659h74v-731h-436zm483-778v1509h74v-1509h-74z"/><glyph unicode="I" horiz-adv-x="413" d="M61 2v1509h72v-1509h-72zm121 0v1509h72v-1509h-72z"/><glyph unicode="J" d="M0 403v97h72v-97q0-164 67-245 68-84 199-84 133 0 201 84 66 84 65 245v1108h72v-1108q0-188-82-290-29-39-90.5-75t-165.5-36q-102 0-163.5 36t-92.5 75q-82 102-82 290zm121 0v97h72v-97q0-78 15-120.5t37.5-62 47-22.5 45.5-3q51 0 73.5 13t32.5 25q39 51 39 170v1108h72v-1108q0-145-55-215-51-66-162-65-109 0-162 65-55 70-55 215z"/><glyph unicode="K" horiz-adv-x="935" d="M0 549l2 4v958h72v-1509h-72v547h-2zm123-547v516l158 244 419-760h-82l-344 619-79-125v-494h-72zm0 606v903h72v-659l428 659h84zm186 201l455 702h90l-459-706 445-803h-82z"/><glyph unicode="L" horiz-adv-x="729" d="M0 2v1509h72v-1437h585v-72h-657zm121 121v1388h72v-1316h464v-72h-536z"/><glyph unicode="M" horiz-adv-x="1101" d="M0 2v1509h170l305-1062 303 1062h170v-1509h-71v1436h-43l-359-1252-360 1252h-43v-1436h-72zm121 0v1241l354-1233 352 1233v-1241h-71v723l-209-723h-146l-208 723v-723h-72z"/><glyph unicode="N" horiz-adv-x="870" d="M0 4v1509h162l368-913v913h74v-1288l-489 1215h-43v-1436h-72zm121 0v1288l489-1214h41v1435h74v-1509h-164l-368 914v-914h-72z"/><glyph unicode="O" d="M0 434v651q0 199 86 310 33 41 97.5 79.5t175 38.5 175-38.5 97.5-79.5q86-111 86-310v-651q0-203-86-309-16-20-40-42t-57.5-39-76.5-28.5-99-11.5q-111 0-175 40t-97 81q-86 106-86 309zm72 0q0-174 71-264 76-94 215.5-94t214.5 94q72 90 72 264v651q0 174-72 265-74 92-215 92t-215-92q-72-90-71-265v-651zm49 0v651q0 160 61 234 55 74 176 74t177-74q61-74 61-234v-651q0-309-237.5-309t-237.5 309zm72 0q0-90 17-138t44-69.5 54.5-25.5 49.5-4q20 0 49 4t55.5 25.5 44 69.5 17.5 138v651q0 88-17.5 136.5t-44 70-55 25.5-49.5 4q-23 0-50-4t-54-25.5-44-69.5-17-137v-651z"/><glyph unicode="P" horiz-adv-x="786" d="M0 4v1389h72v-1389h-72zm0 1438v71h313q195 0 293-112 92-104 92-311t-92-314q-98-113-293-112h-120v-660h-72v731h192q160 0 236 86t76 269q0 180-76 266t-236 86h-313zm121-658v609h192q139 0 201-70 63-72 63.5-233.5t-62-233.5-202.5-72h-192zm72 72h120q80 0 109 18.5t37 28.5q45 51 45 187 0 74-12.5 118.5t-36 69.5-59.5 34-83 9h-120v-465z"/><glyph unicode="Q" d="M0 438v647q0 137 37 221.5t91 129.5 116.5 59 113.5 14q49 0 111.5-14t118-59 92.5-129 37-222v-647q0-172-66-280l207-250h-88l-207 250q4 2 5 4t5 6q70 98 70 270v647q0 350-285 351-287 0-286-351v-647q0-174 71-270 74-96 215-96 100 0 170 51l179-215h-101l-98 121q-63-29-150-29-111 0-175 41t-97 84q-86 110-86 313zm121 0v647q0 156 57.5 230t180 74 179-74 56.5-230v-647q0-166-64-243l-147 178h86l43-54q4 23 7 56t3 63v647q0 80-14 126t-38 69-52.5 29-59 6-60.5-6-53.5-29-37.5-69-14-126v-647q0-137 47-196 12-16 37.5-32.5t80.5-16.5h15l-146 180h92l179-211q-53-41-140-41-237 0-237 317z"/><glyph unicode="R" horiz-adv-x="854" d="M0 0v1389h72v-1389h-72zm0 1436v73h313q195 0 293-114 90-104 90-316 0-209-90-317-4-4-9-10.5t-11-10.5q55-53 84.5-126.5t29.5-168.5v-446h-73v446q0 152-88 240-37 33-86 55 172 66 172 338 0 182-74 269-76 88-238 88h-313zm121-1436v719h192q127 0 197-70.5t70-202.5v-446h-74v446q0 199-193 199h-120v-645h-72zm0 768v621h192q139 0 201-72 61-74 61-238 0-166-61-238.5t-201-72.5h-192zm72 72h120q78 0 108 18.5t38 28.5q45 57 45 192 0 76-12.5 122t-36 71.5-59.5 34-83 8.5h-120v-475z"/><glyph unicode="S" horiz-adv-x="813" d="M0 1077q0 96 25.5 176t73.5 136.5 115 88 146 31.5q111 0 175.5-38.5t97.5-79.5q88-113 88-314v-96h-74v96q0 180-72 266-72 92-215 93-139 0-217-107-72-96-71-252 0-88 29.5-149.5t71.5-101.5 87-62.5 74-34.5l35-16q27-10 65.5-28.5t75.5-52.5 63.5-86 26.5-128q0-141-63.5-219t-176.5-78q-121 0-178 72-61 76-61 235v96h72v-96q0-133 47-190 10-14 36.5-29.5t83.5-15.5q55 0 88 23.5t50.5 57 22.5 73.5 5 71q0 53-16 90t-43 62.5-59.5 43-65.5 31.5l-37 16q-33 14-83 40t-99 73q-123 119-123 303zm0-649v96h72v-96q0-176 71-266 74-90 217-90 68 0 123.5 25.5t91.5 76.5q35 45 53.5 107.5t18.5 136.5q0 88-30.5 148.5t-72.5 99.5-86 60.5-71 31.5l-33 14q-29 12-68.5 32.5t-76.5 56.5-62.5 88-25.5 128q0 53 12 108.5t41 100.5 75 74 111 29q119 0 179-74 61-78 61-238v-96h-74v96q0 88-17 137.5t-44 71-55.5 25.5-49.5 4q-59 0-91.5-29t-50-68.5-21.5-79.5-4-61q0-53 16-91t43-65.5 60.5-47 70.5-33.5l33-15q29-12 79-35.5t99-70.5q127-117 127-301 0-174-86-289-100-129-275-129-180 0-272 117-88 108-88 311z"/><glyph unicode="T" horiz-adv-x="944" d="M-20 1315v74h403v-1389h-74v1315h-329zm0 121v73h854v-73h-854zm450-1436v1389h404v-74h-330v-1315h-74z"/><glyph unicode="U" d="M0 401v1108h72v-1108q0-162 67-243 68-86 199-86 133 0 199 86 68 82 67 243v1108h72v-1108q0-188-82-288-31-41-92.5-77t-163.5-36-163.5 36-92.5 77q-82 100-82 288zm121 0v1108h72v-1108q0-78 15-120.5t37.5-62 47-22.5 45-3 45.5 3 47.5 22.5 37.5 62.5 15 120v1108h72v-1108q0-145-55-215-51-66-162-65-109 0-162 65-55 70-55 215z"/><glyph unicode="V" horiz-adv-x="944" d="M0 1509h72l358-1429h41l358 1429h76l-379-1509h-151zm123 0h76l252-1013 256 1013h71l-327-1312z"/><glyph unicode="W" horiz-adv-x="1474" d="M0 1509h76l315-1429h41l270 1220 269-1220h43l313 1429h76l-334-1509h-156l-211 963-213-963h-155zm125 0h74l213-964 213 964h155l211-964 213 964h74l-287-1300-268 1221h-43l-268-1221z"/><glyph unicode="X" horiz-adv-x="1019" d="M0 0l356 754-350 755h80l354-753-356-756h-84zm137 0l330 698 330-698h-84l-248 528-250-528h-78zm2 1509h82l244-528 250 528h82l-330-696zm355-753l356 753h80l-359-755 355-754h-76z"/><glyph unicode="Y" horiz-adv-x="1060" d="M-82 1509h82l418-761v-748h-70v729zm137 0h84l305-555 308 555h77l-387-704zm410-1509v748l420 761h88l-432-780v-729h-76z"/><glyph unicode="Z" horiz-adv-x="935" d="M0 1315v74h659v-39h3l-558-1188v-90h707v-72h-778v188l528 1127h-561zm0 121v73h778v-186l-528-1130h561v-72h-653v41l551 1173v101h-709z"/><glyph unicode="[" horiz-adv-x="1705"/><glyph unicode="\" horiz-adv-x="786" d="M0 1511h74l565-1509h-80zm125 0h82l559-1509h-76z"/><glyph unicode="]" horiz-adv-x="1705"/><glyph unicode="^" horiz-adv-x="1705"/><glyph unicode="_" horiz-adv-x="952" d="M0 0h956v-74h-956v74zm0-121h956v-74h-956v74z"/><glyph unicode="`" horiz-adv-x="323" d="M0 1204v309h193v-309h-193zm72 72h49v164h-49v-164z"/><glyph unicode="a" horiz-adv-x="960" d="M20 0l351 1509h153l350-1509h-75l-330 1423h-45l-330-1423h-74zm123 0l115 494h377l115-494h-74l-98 420h-263l-96-420h-76zm125 541l178 764 177-764h-355zm92 73h172l-86 369z"/><glyph unicode="b" horiz-adv-x="770" d="M0 0v72h291q154 0 227 88 70 84 70 264 0 178-70 266-35 41-88 66 158 63 158 329 0 180-72 265.5t-225 85.5h-291v73h291q190 0 282-114 88-106 89-310 0-205-89-311-8-12-16-20 12-12 16-19 88-106 88.5-311t-88.5-311q-92-113-282-113h-291zm0 121v1268h72v-1268h-72zm121 657v611h170q133 0 190-72 59-72 60-232 0-162-59.5-234.5t-190.5-72.5h-170zm0-657v610h170q131 0 190.5-72.5t59.5-234.5q0-158-60-234-57-70-190-69h-170zm72 731h98q66 0 94.5 14.5t38.5 30.5q43 51 43 188 0 80-13.5 126t-37 69-56 29-69.5 6h-98v-463zm0-659h98q37 0 69.5 6t56 28.5 37 69.5 13.5 127q0 82-14.5 128t-38 69.5-55 29.5-68.5 6h-98v-464z"/><glyph unicode="c" horiz-adv-x="837" d="M0 430v649q0 201 86 310 16 20 40 41.5t57.5 39 76.5 28.5 98 11q111 0 174.5-39.5t96.5-80.5q88-111 88-310v-96h-74v96q0 176-70 267-74 90-215 90t-215-90q-72-94-71-267v-649q0-111 26.5-181.5t67.5-109.5 92-53 100.5-14 99.5 14 91 53 67.5 109.5 26.5 181.5v98h74v-98q0-199-88-309-33-41-96.5-81t-174.5-40q-55 0-98 11.5t-76.5 28.5-57.5 38.5-40 42.5q-86 106-86 309zm121 0v649q0 309 237.5 309.5t237.5-309.5v-96h-74v96q0 88-17.5 136.5t-43 70-54 25.5-49.5 4q-23 0-50-4t-54-25.5-44-70-17-136.5v-649q0-133 47-190 10-16 36.5-31.5t82-15.5 81 15 37.5 32q45 57 45 190v98h74v-98q0-309-237.5-309t-237.5 309z"/><glyph unicode="d" horiz-adv-x="802" d="M0 0v72h301q156 0 238 94 74 92 73 270v635q0 178-73 270-80 94-238 95h-301v73h301q195 0 293-123 90-109 90-315v-635q0-207-90-315-98-121-293-121h-301zm0 121v1268h72v-1268h-72zm121 0v1268h180q139 0 199-78 63-76 63-240v-635q0-162-63-239-61-76-199-76h-180zm72 72h108q37 0 71 6t59.5 30.5 41.5 73.5 16 133v635q0 84-16 133t-41.5 74-59.5 31-71 6h-108v-1122z"/><glyph unicode="e" horiz-adv-x="761" d="M0 0v1509h625v-73h-553v-1364h553v-72h-625zm121 121v610h504v-74h-432v-464h432v-72h-504zm0 657v611h504v-74h-432v-463h432v-74h-504z"/><glyph unicode="f" horiz-adv-x="761" d="M0 0v1509h625v-73h-553v-1436h-72zm121 0v731h504v-74h-432v-657h-72zm0 778v611h504v-74h-432v-463h432v-74h-504z"/><glyph unicode="g" horiz-adv-x="845" d="M0 432v651q0 201 88 310 92 119 270 118 180 0 273-118 88-109 88-310v-96h-72v96q0 174-71.5 264.5t-217.5 90.5q-143 0-214.5-90.5t-71.5-264.5v-651q0-176 71-266 74-92 215-92 143 0 217 92 72 90 72 266v236h-356v71h428v-307q0-203-88-311-33-41-97.5-80t-175-39-174 39-96.5 80q-88 108-88 311zm121 0v651q0 160 61 234 57 74 176 74t179-74q61-74 61-234v-96h-74v96q0 82-14 128t-37.5 70-53.5 30-60.5 6-60.5-6-53.5-30-37.5-70-14-128v-651q0-90 17-138t44-69.5 54.5-25.5 50-4 51 4 54 25.5 43 69.5 17.5 138v115h-233v71h307v-186q0-162-61-235-55-74-179-74-121 0-176 74-61 73-61 235z"/><glyph unicode="h" horiz-adv-x="837" d="M0 2v1509h72v-1509h-72zm121 0v729h436v-729h-74v657h-290v-657h-72zm0 778v731h72v-659h290v659h74v-731h-436zm483-778v1509h74v-1509h-74z"/><glyph unicode="i" horiz-adv-x="413" d="M61 2v1509h72v-1509h-72zm121 0v1509h72v-1509h-72z"/><glyph unicode="j" d="M0 403v97h72v-97q0-164 67-245 68-84 199-84 133 0 201 84 66 84 65 245v1108h72v-1108q0-188-82-290-29-39-90.5-75t-165.5-36q-102 0-163.5 36t-92.5 75q-82 102-82 290zm121 0v97h72v-97q0-78 15-120.5t37.5-62 47-22.5 45.5-3q51 0 73.5 13t32.5 25q39 51 39 170v1108h72v-1108q0-145-55-215-51-66-162-65-109 0-162 65-55 70-55 215z"/><glyph unicode="k" horiz-adv-x="935" d="M0 549l2 4v958h72v-1509h-72v547h-2zm123-547v516l158 244 419-760h-82l-344 619-79-125v-494h-72zm0 606v903h72v-659l428 659h84zm186 201l455 702h90l-459-706 445-803h-82z"/><glyph unicode="l" horiz-adv-x="729" d="M0 2v1509h72v-1437h585v-72h-657zm121 121v1388h72v-1316h464v-72h-536z"/><glyph unicode="m" horiz-adv-x="1101" d="M0 2v1509h170l305-1062 303 1062h170v-1509h-71v1436h-43l-359-1252-360 1252h-43v-1436h-72zm121 0v1241l354-1233 352 1233v-1241h-71v723l-209-723h-146l-208 723v-723h-72z"/><glyph unicode="n" horiz-adv-x="870" d="M0 4v1509h162l368-913v913h74v-1288l-489 1215h-43v-1436h-72zm121 0v1288l489-1214h41v1435h74v-1509h-164l-368 914v-914h-72z"/><glyph unicode="o" d="M0 434v651q0 199 86 310 33 41 97.5 79.5t175 38.5 175-38.5 97.5-79.5q86-111 86-310v-651q0-203-86-309-16-20-40-42t-57.5-39-76.5-28.5-99-11.5q-111 0-175 40t-97 81q-86 106-86 309zm72 0q0-174 71-264 76-94 215.5-94t214.5 94q72 90 72 264v651q0 174-72 265-74 92-215 92t-215-92q-72-90-71-265v-651zm49 0v651q0 160 61 234 55 74 176 74t177-74q61-74 61-234v-651q0-309-237.5-309t-237.5 309zm72 0q0-90 17-138t44-69.5 54.5-25.5 49.5-4q20 0 49 4t55.5 25.5 44 69.5 17.5 138v651q0 88-17.5 136.5t-44 70-55 25.5-49.5 4q-23 0-50-4t-54-25.5-44-69.5-17-137v-651z"/><glyph unicode="p" horiz-adv-x="786" d="M0 4v1389h72v-1389h-72zm0 1438v71h313q195 0 293-112 92-104 92-311t-92-314q-98-113-293-112h-120v-660h-72v731h192q160 0 236 86t76 269q0 180-76 266t-236 86h-313zm121-658v609h192q139 0 201-70 63-72 63.5-233.5t-62-233.5-202.5-72h-192zm72 72h120q80 0 109 18.5t37 28.5q45 51 45 187 0 74-12.5 118.5t-36 69.5-59.5 34-83 9h-120v-465z"/><glyph unicode="q" d="M0 438v647q0 137 37 221.5t91 129.5 116.5 59 113.5 14q49 0 111.5-14t118-59 92.5-129 37-222v-647q0-172-66-280l207-250h-88l-207 250q4 2 5 4t5 6q70 98 70 270v647q0 350-285 351-287 0-286-351v-647q0-174 71-270 74-96 215-96 100 0 170 51l179-215h-101l-98 121q-63-29-150-29-111 0-175 41t-97 84q-86 110-86 313zm121 0v647q0 156 57.5 230t180 74 179-74 56.5-230v-647q0-166-64-243l-147 178h86l43-54q4 23 7 56t3 63v647q0 80-14 126t-38 69-52.5 29-59 6-60.5-6-53.5-29-37.5-69-14-126v-647q0-137 47-196 12-16 37.5-32.5t80.5-16.5h15l-146 180h92l179-211q-53-41-140-41-237 0-237 317z"/><glyph unicode="r" horiz-adv-x="854" d="M0 0v1389h72v-1389h-72zm0 1436v73h313q195 0 293-114 90-104 90-316 0-209-90-317-4-4-9-10.5t-11-10.5q55-53 84.5-126.5t29.5-168.5v-446h-73v446q0 152-88 240-37 33-86 55 172 66 172 338 0 182-74 269-76 88-238 88h-313zm121-1436v719h192q127 0 197-70.5t70-202.5v-446h-74v446q0 199-193 199h-120v-645h-72zm0 768v621h192q139 0 201-72 61-74 61-238 0-166-61-238.5t-201-72.5h-192zm72 72h120q78 0 108 18.5t38 28.5q45 57 45 192 0 76-12.5 122t-36 71.5-59.5 34-83 8.5h-120v-475z"/><glyph unicode="s" horiz-adv-x="813" d="M0 1077q0 96 25.5 176t73.5 136.5 115 88 146 31.5q111 0 175.5-38.5t97.5-79.5q88-113 88-314v-96h-74v96q0 180-72 266-72 92-215 93-139 0-217-107-72-96-71-252 0-88 29.5-149.5t71.5-101.5 87-62.5 74-34.5l35-16q27-10 65.5-28.5t75.5-52.5 63.5-86 26.5-128q0-141-63.5-219t-176.5-78q-121 0-178 72-61 76-61 235v96h72v-96q0-133 47-190 10-14 36.5-29.5t83.5-15.5q55 0 88 23.5t50.5 57 22.5 73.5 5 71q0 53-16 90t-43 62.5-59.5 43-65.5 31.5l-37 16q-33 14-83 40t-99 73q-123 119-123 303zm0-649v96h72v-96q0-176 71-266 74-90 217-90 68 0 123.5 25.5t91.5 76.5q35 45 53.5 107.5t18.5 136.5q0 88-30.5 148.5t-72.5 99.5-86 60.5-71 31.5l-33 14q-29 12-68.5 32.5t-76.5 56.5-62.5 88-25.5 128q0 53 12 108.5t41 100.5 75 74 111 29q119 0 179-74 61-78 61-238v-96h-74v96q0 88-17 137.5t-44 71-55.5 25.5-49.5 4q-59 0-91.5-29t-50-68.5-21.5-79.5-4-61q0-53 16-91t43-65.5 60.5-47 70.5-33.5l33-15q29-12 79-35.5t99-70.5q127-117 127-301 0-174-86-289-100-129-275-129-180 0-272 117-88 108-88 311z"/><glyph unicode="t" horiz-adv-x="944" d="M-20 1315v74h403v-1389h-74v1315h-329zm0 121v73h854v-73h-854zm450-1436v1389h404v-74h-330v-1315h-74z"/><glyph unicode="u" d="M0 401v1108h72v-1108q0-162 67-243 68-86 199-86 133 0 199 86 68 82 67 243v1108h72v-1108q0-188-82-288-31-41-92.5-77t-163.5-36-163.5 36-92.5 77q-82 100-82 288zm121 0v1108h72v-1108q0-78 15-120.5t37.5-62 47-22.5 45-3 45.5 3 47.5 22.5 37.5 62.5 15 120v1108h72v-1108q0-145-55-215-51-66-162-65-109 0-162 65-55 70-55 215z"/><glyph unicode="v" horiz-adv-x="944" d="M0 1509h72l358-1429h41l358 1429h76l-379-1509h-151zm123 0h76l252-1013 256 1013h71l-327-1312z"/><glyph unicode="w" horiz-adv-x="1474" d="M0 1509h76l315-1429h41l270 1220 269-1220h43l313 1429h76l-334-1509h-156l-211 963-213-963h-155zm125 0h74l213-964 213 964h155l211-964 213 964h74l-287-1300-268 1221h-43l-268-1221z"/><glyph unicode="x" horiz-adv-x="1019" d="M0 0l356 754-350 755h80l354-753-356-756h-84zm137 0l330 698 330-698h-84l-248 528-250-528h-78zm2 1509h82l244-528 250 528h82l-330-696zm355-753l356 753h80l-359-755 355-754h-76z"/><glyph unicode="y" horiz-adv-x="1060" d="M-82 1509h82l418-761v-748h-70v729zm137 0h84l305-555 308 555h77l-387-704zm410-1509v748l420 761h88l-432-780v-729h-76z"/><glyph unicode="z" horiz-adv-x="935" d="M0 1315v74h659v-39h3l-558-1188v-90h707v-72h-778v188l528 1127h-561zm0 121v73h778v-186l-528-1130h561v-72h-653v41l551 1173v101h-709z"/><glyph unicode="{" horiz-adv-x="1705"/><glyph unicode="|" horiz-adv-x="413" d="M61 2v1509h72v-1509h-72zm121 0v1509h72v-1509h-72z"/><glyph unicode="}" horiz-adv-x="1705"/><glyph unicode="~" horiz-adv-x="1705"/><glyph unicode="©" horiz-adv-x="1705"/><glyph unicode="ª" horiz-adv-x="960" d="M20 0l351 1509h153l350-1509h-75l-330 1423h-45l-330-1423h-74zm123 0l115 494h377l115-494h-74l-98 420h-263l-96-420h-76zm125 541l178 764 177-764h-355zm92 73h172l-86 369z"/><glyph unicode="­" horiz-adv-x="770" d="M0 662v71h618v-71h-618zm0 120v72h618v-72h-618z"/><glyph unicode="®" horiz-adv-x="1705"/><glyph unicode="²" horiz-adv-x="737" d="M0-4v96q0 92 17.5 170t50 148.5 75.5 141.5 97 148l42 61 37 52 53 72q24 33 40 66.5t25 71.5 9 87q0 18-4 51t-17 67-38 58.5-68 24.5q-16 0-37.5-3t-42-22.5-33.5-62.5-13-121v-96h-72v96q0 143 51 217 49 66 147 65 94 0 148-79 51-74 51-195 0-59-11-104t-29.5-84-43-76-55.5-76l-38.5-53.5-41.5-54.5-93-145q-42-67-72-133.5t-46-136-16-155.5v-24h569v-72h-641zm0 1010v96q0 186 76 289 29 39 87 76.5t156 37.5q70 0 128.5-27.5t99.5-77.5 65.5-122 26.5-158h2v-18h-2q-2-72-16.5-128t-37-104.5-50.5-90.5l-60-83-36.5-48-37.5-54-77-119q-35-53-59.5-101t-40-92-23.5-94h440v-71h-520q2 74 18.5 136t44 121.5 67.5 122.5l89 136 39 56 37 52 57 79q27 38 47.5 80t32.5 91 14 111v18q-4 129-59 211-68 100-188.5 100.5t-186.5-83.5q-61-84-61-246v-96h-72z"/><glyph unicode="³" horiz-adv-x="737" d="M0 426v96h72v-96q0-111 22.5-181.5t58-109.5 79.5-53 87-14q115 0 181.5 94t66.5 254q0 104-34.5 170.5t-71.5 101.5q-41 39-90 60 53 27 90 63 37 35 71.5 100.5t34.5 171.5q0 160-66.5 254.5t-181.5 94.5q-127 0-186-97-61-90-61-262v-96h-72v96q0 195 72 303 88 129 247 129 162 0 250-141 72-113 72-281 0-125-42-203.5t-87-121.5q-4-2-5-4t-5-4l10-11q45-41 87-119.5t42-203.5q0-84-18.5-156t-53.5-127q-43-66-107.5-101.5t-142.5-35.5q-162 0-247 127-35 55-53.5 130t-18.5 173zm121 0v96h72v-96q0-86 13-130t27-67q10-16 29-28.5t57-12.5q45 0 71 30t38 69 15 76.5 3 52.5q0 66-20 110.5t-48 72.5-59.5 40-52.5 12h-92v74h92q33 0 77-16.5t85-55.5q31-31 60.5-88t29.5-149q0-133-51-217-51-82-148-82-98 0-145 73-53 78-53 236zm0 551v96q0 311 198 311 94 0 148-84 51-84 51-217 0-80-24.5-138t-62.5-97-82-57.5-83-18.5h-92v74h92q20 0 52 12t60 40 48 73 20 112q0 8-3 45t-15 77-37.5 73-71.5 33q-12 0-33.5-4t-42-25.5-35.5-71-15-137.5v-96h-72z"/><glyph unicode="¹" horiz-adv-x="563" d="M0 1159l242 346h186v-1509h-72v1452h-61l-234-340zm98-82l209 305v-1386h-71v1157l-86-117z"/><glyph unicode="º" d="M0 434v651q0 199 86 310 33 41 97.5 79.5t175 38.5 175-38.5 97.5-79.5q86-111 86-310v-651q0-203-86-309-16-20-40-42t-57.5-39-76.5-28.5-99-11.5q-111 0-175 40t-97 81q-86 106-86 309zm72 0q0-174 71-264 76-94 215.5-94t214.5 94q72 90 72 264v651q0 174-72 265-74 92-215 92t-215-92q-72-90-71-265v-651zm49 0v651q0 160 61 234 55 74 176 74t177-74q61-74 61-234v-651q0-309-237.5-309t-237.5 309zm72 0q0-90 17-138t44-69.5 54.5-25.5 49.5-4q20 0 49 4t55.5 25.5 44 69.5 17.5 138v651q0 88-17.5 136.5t-44 70-55 25.5-49.5 4q-23 0-50-4t-54-25.5-44-69.5-17-137v-651z"/><glyph unicode="À" horiz-adv-x="960" d="M20 0l351 1509h153l350-1509h-75l-330 1423h-45l-330-1423h-74zm123 0l115 494h377l115-494h-74l-98 420h-263l-96-420h-76zm125 541l178 764 177-764h-355zm84 1095v310h193v-310h-193zm8-1022h172l-86 369zm64 1094h49v164h-49v-164z"/><glyph unicode="Â" horiz-adv-x="960" d="M20 0l351 1509h153l350-1509h-75l-330 1423h-45l-330-1423h-74zm123 0l115 494h377l115-494h-74l-98 420h-263l-96-420h-76zm125 541l178 764 177-764h-355zm92 73h172l-86 369z"/><glyph unicode="Ã" horiz-adv-x="960" d="M20 0l351 1509h153l350-1509h-75l-330 1423h-45l-330-1423h-74zm123 0l115 494h377l115-494h-74l-98 420h-263l-96-420h-76zm125 541l178 764 177-764h-355zm92 73h172l-86 369z"/><glyph unicode="Å" horiz-adv-x="960" d="M20 0l351 1509h153l350-1509h-75l-330 1423h-45l-330-1423h-74zm123 0l115 494h377l115-494h-74l-98 420h-263l-96-420h-76zm125 541l178 764 177-764h-355zm92 73h172l-86 369z"/><glyph unicode="È" horiz-adv-x="761" d="M0 0v1509h625v-73h-553v-1364h553v-72h-625zm121 121v610h504v-74h-432v-464h432v-72h-504zm0 657v611h504v-74h-432v-463h432v-74h-504zm96 858v310h193v-310h-193zm72 72h49v164h-49v-164z"/><glyph unicode="Ê" horiz-adv-x="761" d="M0 0v1509h625v-73h-553v-1364h553v-72h-625zm121 121v610h504v-74h-432v-464h432v-72h-504zm0 657v611h504v-74h-432v-463h432v-74h-504z"/><glyph unicode="Ì" horiz-adv-x="413" d="M61 2v1509h72v-1509h-72zm0 1634v310h193v-310h-193zm72 72h49v164h-49v-164zm49-1706v1509h72v-1509h-72z"/><glyph unicode="Î" horiz-adv-x="413" d="M61 2v1509h72v-1509h-72zm121 0v1509h72v-1509h-72z"/><glyph unicode="Ñ" horiz-adv-x="870" d="M0 4v1509h162l368-913v913h74v-1288l-489 1215h-43v-1436h-72zm121 0v1288l489-1214h41v1435h74v-1509h-164l-368 914v-914h-72z"/><glyph unicode="Ò" d="M0 434v651q0 199 86 310 33 41 97.5 79.5t175 38.5 175-38.5 97.5-79.5q86-111 86-310v-651q0-203-86-309-16-20-40-42t-57.5-39-76.5-28.5-99-11.5q-111 0-175 40t-97 81q-86 106-86 309zm72 0q0-174 71-264 76-94 215.5-94t214.5 94q72 90 72 264v651q0 174-72 265-74 92-215 92t-215-92q-72-90-71-265v-651zm49 0v651q0 160 61 234 55 74 176 74t177-74q61-74 61-234v-651q0-309-237.5-309t-237.5 309zm72 0q0-90 17-138t44-69.5 54.5-25.5 49.5-4q20 0 49 4t55.5 25.5 44 69.5 17.5 138v651q0 88-17.5 136.5t-44 70-55 25.5-49.5 4q-23 0-50-4t-54-25.5-44-69.5-17-137v-651zm69 1202v310h193v-310h-193zm72 72h49v164h-49v-164z"/><glyph unicode="Ô" d="M0 434v651q0 199 86 310 33 41 97.5 79.5t175 38.5 175-38.5 97.5-79.5q86-111 86-310v-651q0-203-86-309-16-20-40-42t-57.5-39-76.5-28.5-99-11.5q-111 0-175 40t-97 81q-86 106-86 309zm72 0q0-174 71-264 76-94 215.5-94t214.5 94q72 90 72 264v651q0 174-72 265-74 92-215 92t-215-92q-72-90-71-265v-651zm49 0v651q0 160 61 234 55 74 176 74t177-74q61-74 61-234v-651q0-309-237.5-309t-237.5 309zm72 0q0-90 17-138t44-69.5 54.5-25.5 49.5-4q20 0 49 4t55.5 25.5 44 69.5 17.5 138v651q0 88-17.5 136.5t-44 70-55 25.5-49.5 4q-23 0-50-4t-54-25.5-44-69.5-17-137v-651z"/><glyph unicode="Õ" d="M0 434v651q0 199 86 310 33 41 97.5 79.5t175 38.5 175-38.5 97.5-79.5q86-111 86-310v-651q0-203-86-309-16-20-40-42t-57.5-39-76.5-28.5-99-11.5q-111 0-175 40t-97 81q-86 106-86 309zm72 0q0-174 71-264 76-94 215.5-94t214.5 94q72 90 72 264v651q0 174-72 265-74 92-215 92t-215-92q-72-90-71-265v-651zm49 0v651q0 160 61 234 55 74 176 74t177-74q61-74 61-234v-651q0-309-237.5-309t-237.5 309zm72 0q0-90 17-138t44-69.5 54.5-25.5 49.5-4q20 0 49 4t55.5 25.5 44 69.5 17.5 138v651q0 88-17.5 136.5t-44 70-55 25.5-49.5 4q-23 0-50-4t-54-25.5-44-69.5-17-137v-651z"/><glyph unicode="Ù" d="M0 401v1108h72v-1108q0-162 67-243 68-86 199-86 133 0 199 86 68 82 67 243v1108h72v-1108q0-188-82-288-31-41-92.5-77t-163.5-36-163.5 36-92.5 77q-82 100-82 288zm121 0v1108h72v-1108q0-78 15-120.5t37.5-62 47-22.5 45-3 45.5 3 47.5 22.5 37.5 62.5 15 120v1108h72v-1108q0-145-55-215-51-66-162-65-109 0-162 65-55 70-55 215zm121 1235v310h192v-310h-192zm71 72h49v164h-49v-164z"/><glyph unicode="Û" d="M0 401v1108h72v-1108q0-162 67-243 68-86 199-86 133 0 199 86 68 82 67 243v1108h72v-1108q0-188-82-288-31-41-92.5-77t-163.5-36-163.5 36-92.5 77q-82 100-82 288zm121 0v1108h72v-1108q0-78 15-120.5t37.5-62 47-22.5 45-3 45.5 3 47.5 22.5 37.5 62.5 15 120v1108h72v-1108q0-145-55-215-51-66-162-65-109 0-162 65-55 70-55 215z"/><glyph unicode="à" horiz-adv-x="960" d="M20 0l351 1509h153l350-1509h-75l-330 1423h-45l-330-1423h-74zm123 0l115 494h377l115-494h-74l-98 420h-263l-96-420h-76zm125 541l178 764 177-764h-355zm84 1095v310h193v-310h-193zm8-1022h172l-86 369zm64 1094h49v164h-49v-164z"/><glyph unicode="â" horiz-adv-x="960" d="M20 0l351 1509h153l350-1509h-75l-330 1423h-45l-330-1423h-74zm123 0l115 494h377l115-494h-74l-98 420h-263l-96-420h-76zm125 541l178 764 177-764h-355zm92 73h172l-86 369z"/><glyph unicode="ã" horiz-adv-x="960" d="M20 0l351 1509h153l350-1509h-75l-330 1423h-45l-330-1423h-74zm123 0l115 494h377l115-494h-74l-98 420h-263l-96-420h-76zm125 541l178 764 177-764h-355zm92 73h172l-86 369z"/><glyph unicode="å" horiz-adv-x="960" d="M20 0l351 1509h153l350-1509h-75l-330 1423h-45l-330-1423h-74zm123 0l115 494h377l115-494h-74l-98 420h-263l-96-420h-76zm125 541l178 764 177-764h-355zm92 73h172l-86 369z"/><glyph unicode="è" horiz-adv-x="761" d="M0 0v1509h625v-73h-553v-1364h553v-72h-625zm121 121v610h504v-74h-432v-464h432v-72h-504zm0 657v611h504v-74h-432v-463h432v-74h-504zm96 858v310h193v-310h-193zm72 72h49v164h-49v-164z"/><glyph unicode="ê" horiz-adv-x="761" d="M0 0v1509h625v-73h-553v-1364h553v-72h-625zm121 121v610h504v-74h-432v-464h432v-72h-504zm0 657v611h504v-74h-432v-463h432v-74h-504z"/><glyph unicode="ì" horiz-adv-x="413" d="M61 2v1509h72v-1509h-72zm0 1634v310h193v-310h-193zm72 72h49v164h-49v-164zm49-1706v1509h72v-1509h-72z"/><glyph unicode="î" horiz-adv-x="413" d="M61 2v1509h72v-1509h-72zm121 0v1509h72v-1509h-72z"/><glyph unicode="ñ" horiz-adv-x="870" d="M0 4v1509h162l368-913v913h74v-1288l-489 1215h-43v-1436h-72zm121 0v1288l489-1214h41v1435h74v-1509h-164l-368 914v-914h-72z"/><glyph unicode="ò" d="M0 434v651q0 199 86 310 33 41 97.5 79.5t175 38.5 175-38.5 97.5-79.5q86-111 86-310v-651q0-203-86-309-16-20-40-42t-57.5-39-76.5-28.5-99-11.5q-111 0-175 40t-97 81q-86 106-86 309zm72 0q0-174 71-264 76-94 215.5-94t214.5 94q72 90 72 264v651q0 174-72 265-74 92-215 92t-215-92q-72-90-71-265v-651zm49 0v651q0 160 61 234 55 74 176 74t177-74q61-74 61-234v-651q0-309-237.5-309t-237.5 309zm72 0q0-90 17-138t44-69.5 54.5-25.5 49.5-4q20 0 49 4t55.5 25.5 44 69.5 17.5 138v651q0 88-17.5 136.5t-44 70-55 25.5-49.5 4q-23 0-50-4t-54-25.5-44-69.5-17-137v-651zm69 1202v310h193v-310h-193zm72 72h49v164h-49v-164z"/><glyph unicode="ô" d="M0 434v651q0 199 86 310 33 41 97.5 79.5t175 38.5 175-38.5 97.5-79.5q86-111 86-310v-651q0-203-86-309-16-20-40-42t-57.5-39-76.5-28.5-99-11.5q-111 0-175 40t-97 81q-86 106-86 309zm72 0q0-174 71-264 76-94 215.5-94t214.5 94q72 90 72 264v651q0 174-72 265-74 92-215 92t-215-92q-72-90-71-265v-651zm49 0v651q0 160 61 234 55 74 176 74t177-74q61-74 61-234v-651q0-309-237.5-309t-237.5 309zm72 0q0-90 17-138t44-69.5 54.5-25.5 49.5-4q20 0 49 4t55.5 25.5 44 69.5 17.5 138v651q0 88-17.5 136.5t-44 70-55 25.5-49.5 4q-23 0-50-4t-54-25.5-44-69.5-17-137v-651z"/><glyph unicode="õ" d="M0 434v651q0 199 86 310 33 41 97.5 79.5t175 38.5 175-38.5 97.5-79.5q86-111 86-310v-651q0-203-86-309-16-20-40-42t-57.5-39-76.5-28.5-99-11.5q-111 0-175 40t-97 81q-86 106-86 309zm72 0q0-174 71-264 76-94 215.5-94t214.5 94q72 90 72 264v651q0 174-72 265-74 92-215 92t-215-92q-72-90-71-265v-651zm49 0v651q0 160 61 234 55 74 176 74t177-74q61-74 61-234v-651q0-309-237.5-309t-237.5 309zm72 0q0-90 17-138t44-69.5 54.5-25.5 49.5-4q20 0 49 4t55.5 25.5 44 69.5 17.5 138v651q0 88-17.5 136.5t-44 70-55 25.5-49.5 4q-23 0-50-4t-54-25.5-44-69.5-17-137v-651z"/><glyph unicode="ù" d="M0 401v1108h72v-1108q0-162 67-243 68-86 199-86 133 0 199 86 68 82 67 243v1108h72v-1108q0-188-82-288-31-41-92.5-77t-163.5-36-163.5 36-92.5 77q-82 100-82 288zm121 0v1108h72v-1108q0-78 15-120.5t37.5-62 47-22.5 45-3 45.5 3 47.5 22.5 37.5 62.5 15 120v1108h72v-1108q0-145-55-215-51-66-162-65-109 0-162 65-55 70-55 215zm121 1235v310h192v-310h-192zm71 72h49v164h-49v-164z"/><glyph unicode="û" d="M0 401v1108h72v-1108q0-162 67-243 68-86 199-86 133 0 199 86 68 82 67 243v1108h72v-1108q0-188-82-288-31-41-92.5-77t-163.5-36-163.5 36-92.5 77q-82 100-82 288zm121 0v1108h72v-1108q0-78 15-120.5t37.5-62 47-22.5 45-3 45.5 3 47.5 22.5 37.5 62.5 15 120v1108h72v-1108q0-145-55-215-51-66-162-65-109 0-162 65-55 70-55 215z"/><glyph unicode="ı" horiz-adv-x="413" d="M61 2v1509h72v-1509h-72zm121 0v1509h72v-1509h-72z"/><glyph unicode="Œ" horiz-adv-x="1591" d="M0 434v651q0 199 86 310 33 41 97.5 79.5t175 38.5 175-38.5 97.5-79.5q86-111 86-310v-651q0-203-86-309-16-20-40-42t-57.5-39-76.5-28.5-99-11.5q-111 0-175 40t-97 81q-86 106-86 309zm72 0q0-174 71-264 76-94 215.5-94t214.5 94q72 90 72 264v651q0 174-72 265-74 92-215 92t-215-92q-72-90-71-265v-651zm49 0v651q0 160 61 234 55 74 176 74t177-74q61-74 61-234v-651q0-309-237.5-309t-237.5 309zm72 0q0-90 17-138t44-69.5 54.5-25.5 49.5-4q20 0 49 4t55.5 25.5 44 69.5 17.5 138v651q0 88-17.5 136.5t-44 70-55 25.5-49.5 4q-23 0-50-4t-54-25.5-44-69.5-17-137v-651zm636-434v1509h625v-73h-553v-1364h553v-72h-625zm121 121v610h504v-74h-432v-464h432v-72h-504zm0 657v611h504v-74h-432v-463h432v-74h-504z"/><glyph unicode="œ" horiz-adv-x="1591" d="M0 434v651q0 199 86 310 33 41 97.5 79.5t175 38.5 175-38.5 97.5-79.5q86-111 86-310v-651q0-203-86-309-16-20-40-42t-57.5-39-76.5-28.5-99-11.5q-111 0-175 40t-97 81q-86 106-86 309zm72 0q0-174 71-264 76-94 215.5-94t214.5 94q72 90 72 264v651q0 174-72 265-74 92-215 92t-215-92q-72-90-71-265v-651zm49 0v651q0 160 61 234 55 74 176 74t177-74q61-74 61-234v-651q0-309-237.5-309t-237.5 309zm72 0q0-90 17-138t44-69.5 54.5-25.5 49.5-4q20 0 49 4t55.5 25.5 44 69.5 17.5 138v651q0 88-17.5 136.5t-44 70-55 25.5-49.5 4q-23 0-50-4t-54-25.5-44-69.5-17-137v-651zm636-434v1509h625v-73h-553v-1364h553v-72h-625zm121 121v610h504v-74h-432v-464h432v-72h-504zm0 657v611h504v-74h-432v-463h432v-74h-504z"/><glyph unicode="ˆ" horiz-adv-x="1705"/><glyph unicode="˚" horiz-adv-x="1705"/><glyph unicode="˜" horiz-adv-x="1705"/><glyph horiz-adv-x="972"/><glyph horiz-adv-x="1945"/><glyph horiz-adv-x="972"/><glyph horiz-adv-x="1945"/><glyph horiz-adv-x="647"/><glyph horiz-adv-x="485"/><glyph horiz-adv-x="323"/><glyph horiz-adv-x="323"/><glyph horiz-adv-x="241"/><glyph horiz-adv-x="389"/><glyph horiz-adv-x="106"/><glyph unicode="‐" horiz-adv-x="770" d="M0 662v71h618v-71h-618zm0 120v72h618v-72h-618z"/><glyph unicode="‑" horiz-adv-x="770" d="M0 662v71h618v-71h-618zm0 120v72h618v-72h-618z"/><glyph unicode="‒" horiz-adv-x="770" d="M0 662v71h618v-71h-618zm0 120v72h618v-72h-618z"/><glyph unicode="–" horiz-adv-x="770" d="M0 662v71h618v-71h-618zm0 120v72h618v-72h-618z"/><glyph unicode="—" horiz-adv-x="770" d="M0 662v71h618v-71h-618zm0 120v72h618v-72h-618z"/><glyph unicode="‘" horiz-adv-x="323" d="M0 1204v309h193v-309h-193zm72 72h49v164h-49v-164z"/><glyph unicode="’" horiz-adv-x="323" d="M0 1204v309h193v-309h-193zm72 72h49v164h-49v-164z"/><glyph unicode="“" horiz-adv-x="579" d="M0 1204v309h193v-309h-193zm72 72h49v164h-49v-164zm213-72v309h192v-309h-192zm71 72h50v164h-50v-164z"/><glyph unicode="”" horiz-adv-x="579" d="M0 1204v309h193v-309h-193zm72 72h49v164h-49v-164zm213-72v309h192v-309h-192zm71 72h50v164h-50v-164z"/><glyph unicode="•" horiz-adv-x="1705"/><glyph unicode="…" horiz-adv-x="1142" d="M0 2v217h193v-217h-193zm72 72h49v71h-49v-71zm309-72v217h192v-217h-192zm72 72h49v71h-49v-71zm309-72v217h192v-217h-192zm72 72h49v71h-49v-71z"/><glyph horiz-adv-x="389"/><glyph horiz-adv-x="485"/><glyph unicode="™" horiz-adv-x="2045"/><glyph unicode="" horiz-adv-x="1510" d="M0 1510h1510v-1510h-1510v1510z"/><glyph unicode="ﬁ" horiz-adv-x="1175" d="M0 0v1509h625v-73h-553v-1436h-72zm121 0v731h504v-74h-432v-657h-72zm0 778v611h504v-74h-432v-463h432v-74h-504zm702-776v1509h72v-1509h-72zm121 0v1509h72v-1509h-72z"/><glyph unicode="ﬂ" horiz-adv-x="1490" d="M0 0v1509h625v-73h-553v-1436h-72zm121 0v731h504v-74h-432v-657h-72zm0 778v611h504v-74h-432v-463h432v-74h-504zm641-776v1509h72v-1437h585v-72h-657zm121 121v1388h71v-1316h465v-72h-536z"/><glyph unicode="ﬃ" horiz-adv-x="1937" d="M0 0v1509h625v-73h-553v-1436h-72zm121 0v731h504v-74h-432v-657h-72zm0 778v611h504v-74h-432v-463h432v-74h-504zm641-778v1509h624v-73h-552v-1436h-72zm121 0v731h503v-74h-432v-657h-71zm0 778v611h503v-74h-432v-463h432v-74h-503zm702-776v1509h72v-1509h-72zm121 0v1509h72v-1509h-72z"/><glyph unicode="ﬄ" horiz-adv-x="2252" d="M0 0v1509h625v-73h-553v-1436h-72zm121 0v731h504v-74h-432v-657h-72zm0 778v611h504v-74h-432v-463h432v-74h-504zm641-778v1509h624v-73h-552v-1436h-72zm121 0v731h503v-74h-432v-657h-71zm0 778v611h503v-74h-432v-463h432v-74h-503zm641-776v1509h71v-1437h586v-72h-657zm121 121v1388h71v-1316h465v-72h-536z"/></font>
</defs>
</svg>
