<svg xmlns="http://www.w3.org/2000/svg"><defs><font horiz-adv-x="829"><font-face units-per-em="2048" ascent="1536" descent="-512"/><glyph horiz-adv-x="630"/><glyph horiz-adv-x="630"/><glyph horiz-adv-x="630"/><glyph unicode="!" horiz-adv-x="299" d="M0 4v217h72V76h49v145h72V4H0zm0 330v1179h72V334H0zm121 0v1179h72V334h-72z"/><glyph unicode="&quot;" horiz-adv-x="579" d="M0 1204v309h193v-309H0zm72 72h49v164H72v-164zm213-72v309h192v-309H285zm71 72h50v164h-50v-164z"/><glyph unicode="#" horiz-adv-x="1169" d="M-41 467v74h360L213 0h-72l90 467H-41zm0 121v74h311l37 192H23v74h372l-65-340H-41zm64 387v74h323l90 464h74L406 975H23zM262 0l107 541h305L567 0h-69l90 467H430L338 0h-76zm117 588l65 340h308l-68-340H379zm76 387l106 538h72l-90-464h157l88 464h78L760 975H455zm12-313h158l39 192H506zM616 0l107 541h344v-74H784L694 0h-78zm117 588l68 340h329v-74H860l-39-192h246v-74H733zm76 387l106 538h70l-88-464h233v-74H809z"/><glyph unicode="$" horiz-adv-x="729" d="M0 481v99h72v-99q0-147 61-227 59-72 162-78V0h-72v115q-53 14-89 40.5T78 209Q0 305 0 481zm0 551q0 78 19.5 142.5T74 1290q55 76 149 109v114h72v-174q-49-4-91-27.5t-71-64.5-45-95-16-120q0-119 75-201 31-33 66-52l63-34q10-4 17.5-8t13.5-8q14-10 37-18 27-12 56.5-28.5t56-44.5 44-68 17.5-97q0-117-52-183.5T319 223q-98 0-147 62-51 59-51 196v99h72v-99q0-109 36-151 8-10 27.5-22.5T319 295q41 0 67 18.5t39 46 17 58.5 4 55q0 39-10 65.5t-27.5 45-42 33T313 645q-29 10-43 21-4 4-11 7t-15 7l-70 39q-41 23-80 63Q0 882 0 1032zm121 0q0 117 51 187 51 74 147 73 100 0 150-61 49-66 49-199v-96h-72v96q0 109-34 154-10 10-29.5 21.5t-63 11.5-69-22.5T212 1143t-16-62.5-3-48.5q0-39 10-65.5t28.5-47 44-37T332 852q10-4 19-9t18-12q12-4 24-10 27-12 70-35.5t82-63.5 67.5-100.5T641 473q0-154-78-254-57-78-145-102V0h-74v176q100 6 161.5 86T567 473q0 70-21.5 118t-53 79.5-66.5 51-61 32.5q-10 4-18.5 8t-14.5 8-14.5 8-18.5 10q-27 12-58.5 31t-58 46.5-44 67.5-17.5 99zm223 307v174h74v-112q53-16 88-42t57-52q78-100 78-275v-96h-74v96q0 152-61 230-56 71-162 77z"/><glyph unicode="%" horiz-adv-x="1259" d="M0 1022v176q0 55 17.5 101.5t48 80 73.5 52 92 18.5q102 0 168-70.5t66-181.5v-176q0-55-17.5-101.5t-48-80-73.5-52-95-18.5q-100 0-165.5 70.5T0 1022zm72 0q0-74 41-125 45-55 118-55 76 0 121 55 39 47 39 125v176q0 35-9 67.5t-30 55.5q-45 57-121 57-74 0-118-57-41-47-41-123v-176zm49 0v176q0 47 24.5 89t85.5 42q31 0 52.5-12t35-30.5 19.5-42 6-46.5v-176q0-23-6-46.5t-19.5-42-35-30.5-52.5-12q-61 0-85.5 42t-24.5 89zm72 0q0-59 38.5-59t38.5 59v176q0 59-38.5 59t-38.5-59v-176zM199 4l559 1509h82L272 4h-73zm127 0l565 1509h74L406 4h-80zm368 311v177q0 111 65.5 181T928 743q49 0 92-18t73.5-52 48-80 17.5-101V315q0-55-17.5-101t-48-80-73.5-52.5T928 63q-102 0-168 70.5T694 315zm74 0q0-35 9-67.5t30-57.5q45-55 121-55 74 0 119 55 41 51 40 125v177q0 76-40 122-45 57-119 58-76 0-121-58-20-23-29.5-55.5T768 492V315zm47 0v177q0 23 6 46t19.5 41.5 35 31T928 623q61 0 85.5-42t24.5-89V315q0-47-24.5-89T928 184q-31 0-52.5 12.5t-35 31T821 269t-6 46zm74 0q0-59 39-59t39 59v177q0 59-39 59t-39-59V315z"/><glyph unicode="&" horiz-adv-x="1036" d="M0 408q0 80 19.5 140t51 106 70.5 82l78 69 15.5 12 13.5 12q-18 31-38 70t-36 84-27.5 91-11.5 93q0 152 43 232 63 115 197 114 145 0 205-133 23-49 27.5-106t4.5-107q0-86-21.5-166.5T528 852l-18-29q-8-12-16-22l161-275q4 35 4 69v161h74v-99q0-68-8-156.5T684 330L405 809q14 14 37 44t44.5 74 38 104.5T541 1167q0 43-5.5 93.5T512 1352q-37 88-137 88-90 0-133-74-33-66-33-199 0-51 16.5-105t38-101.5T307 876l35-59q-18-18-38-35l-38-32-72-64q-36-33-63-73t-43-89-16-116.5 20.5-128T152 174q86-98 223-98 209 0 313 153l82-141 51-84h-80l-65 102Q557 4 375 4q-84 0-156 32T96 127Q0 242 0 408zm121 0q0 57 13 101t38 79 56.5 64.5T297 713l36 31 36 32 290-500q-84-152-284-151-66 0-114 24.5T182.5 214t-46 90.5T121 408zm72 0q0-37 10-75t31.5-67.5 56.5-49 84-19.5q131 0 198 82L350 664l-6-7-63-56q-29-26-48.5-53.5t-29.5-61-10-78.5zm63 759q0 74 10 119t26.5 68.5 38 31 44.5 7.5q63 0 90-51.5t27-174.5q0-66-12.5-117t-31-89.5-38-66.5-33.5-42l-33 56q-20 36-39.5 79t-34 90-14.5 90zm74 0q0-41 15-88t38-90q14 35 24.5 79t10.5 99v26q0 17-2 36.5t-5 39-10 34.5q-4 10-8 13t-18.5 3-17.5-2-7-8q-8-14-14-45t-6-97zm385-888l4 8q41 92 51 193.5T780 657v99h74v-99q0-76-9-177t-48-197L971 4h-92l-68 109z"/><glyph unicode="'" horiz-adv-x="323" d="M0 1204v309h193v-309H0zm72 72h49v164H72v-164z"/><glyph unicode="(" horiz-adv-x="421" d="M0 754q0 362 98 577 41 86 78 122t49 44l39-59q-4-2-33.5-32T165 1300.5 100.5 1093 72 754t29.5-337T166 212t65.5-102.5T264 80l2-2-39-62q-12 8-49 44t-78 122Q0 389 0 754zm121 0q0 205 28.5 329.5t57.5 190 57 96.5q14 16 27 27l39-62 4 2-23-25q-23-26-49-91.5t-47.5-178T193 754q0-166 20-275.5t45-174 47.5-92.5 26.5-32l-39-61-2 2q-12 8-27 24-12 14-26.5 37T207 240q-29 63-57.5 187T121 754z"/><glyph unicode=")" horiz-adv-x="438" d="M0 176l23 26q23 26 48 91t46.5 178T139 760q0 168-19.5 277.5t-44 174-47 91T2 1333l41 66 4-2q12-10 27-27 27-29 57-92 29-66 56.5-188.5T215 762t-27.5-329T131 244q-33-70-57-97-14-16-27-26l-4-2-39 61zm70-98l2 2q2 2 32.5 30.5T171 215t64.5 208T264 762t-28.5 338-64.5 204.5-66.5 102.5L72 1438l-2 2 36 57q12-8 49.5-43t77.5-121q100-207 101-573 0-362-101-576-39-86-75.5-121.5L109 16z"/><glyph unicode="*" horiz-adv-x="753" d="M0 1210l25 68 270-100L98 950l-57 49 129 148zm43 113l25 68 172-64v184h71v-288zm90-403l203 231 203-231-54-48-149 168-150-168zm227 303v288h72v-184l172 64 25-66zm17-45l268 102 27-70-170-63 129-148-56-47z"/><glyph unicode="+" horiz-adv-x="935" d="M0 662v71h373V360h-74v302H0zm0 120v72h299v299h74V782H0zm420-422v373h373v-71H494V360h-74zm0 422v371h74V854h299v-72H420z"/><glyph unicode="," horiz-adv-x="323" d="M0 8v211h193v-395zm72 37l49-45v145H72V45z"/><glyph unicode="-" horiz-adv-x="770" d="M0 662v71h618v-71H0zm0 120v72h618v-72H0z"/><glyph unicode="." horiz-adv-x="380" d="M0 2v217h193V2H0zm72 72h49v71H72V74z"/><glyph unicode="/" horiz-adv-x="854" d="M0 4l559 1509h82L76 4H0zm127 0l565 1509h74L207 4h-80z"/><glyph unicode="0" horiz-adv-x="770" d="M0 430v641q0 193 72 305 84 129 247.5 129T567 1376q74-111 74-305V430q0-195-74-305Q483-4 319.5-4T72 125Q0 237 0 430zm72 0q0-172 61-264 61-98 186-98 123 0 189 98 59 94 59 264v641q0 174-59 264-63 96-189 97-127 0-186-97-61-90-61-264V430zm49 0v641q0 313 198.5 313T518 1071V430q0-313-198.5-313T121 430zm72 0q0-90 15-139t35.5-71.5 42-27 34-4.5 34 4.5 42 27T431 291t15 139v641q0 90-15 138t-35.5 71-42 27-34 4-34-4-42-27-35.5-71-15-138V430z"/><glyph unicode="1" horiz-adv-x="563" d="M0 1159l242 346h186V-4h-72v1452h-61L61 1108zm98-82l209 305V-4h-71v1157l-86-117z"/><glyph unicode="2" horiz-adv-x="737" d="M0-4v96q0 92 17.5 170t50 148.5T143 552t97 148l42 61 37 52 53 72q24 33 40 66.5t25 71.5 9 87q0 18-4 51t-17 67-38 58.5-68 24.5q-16 0-37.5-3t-42-22.5T206 1223t-13-121v-96h-72v96q0 143 51 217 49 66 147 65 94 0 148-79 51-74 51-195 0-59-11-104t-29.5-84-43-76-55.5-76l-38.5-53.5L299 662l-93-145q-42-67-72-133.5t-46-136T72 92V68h569V-4H0zm0 1010v96q0 186 76 289 29 39 87 76.5t156 37.5q70 0 128.5-27.5T547 1400t65.5-122 26.5-158h2v-18h-2q-2-72-16.5-128t-37-104.5T535 779l-60-83-36.5-48-37.5-54-77-119q-35-53-59.5-101t-40-92-23.5-94h440v-71H121q2 74 18.5 136t44 121.5T251 497l89 136 39 56 37 52 57 79q27 38 47.5 80t32.5 91 14 111v18q-4 129-59 211-68 100-188.5 100.5T133 1348q-61-84-61-246v-96H0z"/><glyph unicode="3" horiz-adv-x="737" d="M0 426v96h72v-96q0-111 22.5-181.5t58-109.5T232 82t87-14q115 0 181.5 94T567 416q0 104-34.5 170.5T461 688q-41 39-90 60 53 27 90 63 37 35 71.5 100.5T567 1083q0 160-66.5 254.5T319 1432q-127 0-186-97-61-90-61-262v-96H0v96q0 195 72 303 88 129 247 129 162 0 250-141 72-113 72-281 0-125-42-203.5T512 758q-4-2-5-4t-5-4l10-11q45-41 87-119.5T641 416q0-84-18.5-156T569 133Q526 67 461.5 31.5T319-4Q157-4 72 123q-35 55-53.5 130T0 426zm121 0v96h72v-96q0-86 13-130t27-67q10-16 29-28.5t57-12.5q45 0 71 30t38 69 15 76.5 3 52.5q0 66-20.5 110.5t-48 72.5-59 40-52.5 12h-92v74h92q33 0 77-16.5t85-55.5q31-31 60.5-88T518 416q0-133-51-217-51-82-148-82-98 0-145 73-53 78-53 236zm0 551v96q0 311 198 311 94 0 148-84 51-84 51-217 0-80-24.5-138T431 848t-82-57.5-83-18.5h-92v74h92q20 0 52 12t59.5 40 48 73 20.5 112q0 8-3 45t-15 77-37.5 73-71.5 33q-12 0-33.5-4t-42-25.5-35.5-71-15-137.5v-96h-72z"/><glyph unicode="4" horiz-adv-x="778" d="M0 416v194l471 895h176V-4h-72v1438h-36L59 565v-76h467V-4h-71v420H0zm119 121v36l407 742V537H119zm102 73h234v449z"/><glyph unicode="5" horiz-adv-x="761" d="M0 315v33h72v-33q0-41 17-84t46-77q74-86 184-86 121 0 189 108 29 47 44 109.5T567 420v145q0 168-59 256-66 90-189 90-121 0-186-88l-12-18v579h520v-73H193V961q61 23 126 22 100 0 160-40t88-81q74-104 74-297V420q0-168-72-283Q481-4 319-4q-72 0-133 28.5T80 106q-39 45-59.5 100.5T0 315zm0 215v975h641v-73H72V598h49q0 37 7 83t27.5 86 59.5 67.5T319 862q199 0 199-297V420q0-133-51-217-55-86-148-86-49 0-85.5 19.5t-61.5 48-38 64.5-13 66v33h72v-33q0-12 6-33.5t21.5-42 39-36 60-15.5 61.5 24 39 59.5 20 75.5 6 73v145q0 82-12 125t-26 62q-10 14-29 26.5T319.5 791t-59-13.5T231 752q-39-51-38-154v-68H0z"/><glyph unicode="6" horiz-adv-x="753" d="M0 383v606q0 225 68 354 41 78 105.5 120t145.5 42q158 0 246-116 76-100 76-265v-63h-74v63q0 141-61 222-66 86-187 86-125 0-188-123-59-115-59-320V383q0-147 65.5-231T319 68q119 0 189 110 29 47 44 111.5T567 428v150q0 172-59 262-66 90-189 90-131 0-198-127v186q0 55 7 124t27.5 129.5 59.5 101 104 40.5q98 0 148-67 51-66 51-193v-63h-72v63q0 100-36 148-10 14-30 26.5t-61 12.5q-43 0-67.5-37t-37.5-88-17-105.5-4-91.5v-14q61 29 126 29 162 0 248-123 74-111 74-303V428q0-98-23.5-177T552 114.5t-101.5-88T319-4Q163-4 76 115 0 215 0 383zm121 0v197q0 135 53 217 51 86 145 86 199 0 199-305V428q0-137-51-223-55-88-148-88-96 0-147 69.5T121 383zm71 0q0-102 39-154 10-14 29-27.5t59-13.5q37 0 61.5 25t39 61.5T440 352t6 76v150q0 86-14 133t-33.5 68.5-42 25.5-37.5 4q-45 0-69.5-32T213 705.5 197 629q-5-37-5-49V383z"/><glyph unicode="7" horiz-adv-x="878" d="M0 1311v73h688L109-4H25l555 1315H0zm0 121v73h793v-194h-5L236-4h-74l573 1376v60H0z"/><glyph unicode="8" horiz-adv-x="794" d="M0 420q0 203 78 307 4 6 9 12l9 11-18 24Q0 876 0 1079t78 307q88 119 264 119 174 0 264-119 78-109 78-307t-78-305l-18-24q6-6 18-23 78-109 78-307.5T606 115Q518-4 342-4 164-4 78 115 0 217 0 420zm72 0q0-180 65.5-266T342 68q137 0 202.5 86T610 420t-63 264q-33 45-80 66 143 66 143 329 0 182-65.5 267.5T342 1432q-139 0-204.5-85T72 1079q0-262 143-329-45-20-80-66-63-84-63-264zm49 0q0 162 52 234.5T342 727t169-72.5T563 420q0-160-52-231.5T342 117t-169 71.5T121 420zm0 659.5q0 159.5 52 232t169 72.5 169-72.5 52-232T511 847t-169-73-169 73-52 232.5zM193 420q0-86 14-133t35.5-68.5 48-26T342 188t50.5 4.5 47 26T475 287t14 133-12 130-26 62q-10 16-33 28.5T342 653t-75.5-12-33.5-29q-14-18-27-62t-13-130zm0 659q0-86 14-133t35.5-68.5 48-25.5 51.5-4 50.5 4 47 25.5T475 946t14 133-14 133.5-35.5 69-47 25.5-50.5 4-51.5-4-48-25.5-35.5-69-14-133.5z"/><glyph unicode="9" horiz-adv-x="753" d="M0 924v151q0 174 72 287 43 70 106.5 106.5T319 1505q156 0 246-114 76-104 76-269V510q0-115-17.5-203T573 154Q487-4 319-4q-78 0-140 30.5T74 117Q0 217 0 393v66h72v-66q0-156 64.5-240.5T319 68q127 0 189 120 59 113 59 322v612q0 147-64.5 228.5T319 1432q-113 0-180-96.5T72 1075V924q0-176 61-262 61-94 186-95 66 0 117 34t82 95V510q0-68-8-137.5t-29.5-127-60.5-93T319 117q-96 0-147 69-51 74-51 207v66h72v-66q0-78 15-119t36.5-60 42-22.5T319 188q41 0 67 33t39 82 17 105.5 4 101.5v14q-55-29-127-28-162 0-245 125Q0 727 0 924zm121 0v151q0 139 53 223 51 86 145 86 98 0 148-67 27-35 39-84t12-111V922q0-135-51-220-53-86-148-86-198 1-198 308zm72 0q0-88 14-136.5t33.5-70 41-25.5 37.5-4q45 0 71 32t38 73 15 78.5 3 50.5v200q0 70-15 109t-35.5 56.5-42 20.5-34.5 3q-47 0-72.5-34t-37.5-75-14-80-2-47V924z"/><glyph unicode=":" horiz-adv-x="299" d="M0 338v285h193V338H0zm0 563v285h193V901H0zm72-491h49v139H72V410zm0 563h49v141H72V973z"/><glyph unicode=";" horiz-adv-x="323" d="M0 426v197h193V231zm0 475v285h193V901H0zm72-452l49-48v148H72V449zm0 524h49v141H72V973z"/><glyph unicode="<" horiz-adv-x="1705"/><glyph unicode="=" horiz-adv-x="1705" d="M0 436v72h618v-72H0zm0 121v72h618v-72H0zm0 330v71h618v-71H0zm0 121v71h618v-71H0z"/><glyph unicode=">" horiz-adv-x="1705"/><glyph unicode="?" horiz-adv-x="745" d="M0 997v99q0 188 74 293 84 125 245 124 78 0 142.5-35.5T569 1372q68-109 70-260h2v-16h-2q-2-82-27.5-150.5t-59.5-124-71-95.5l-63-67-25-24q-23-29-26.5-74T363 436V336h-74v100q0 82 6 141.5T338 682l29 29 57.5 60.5 63 83.5 53 108.5L567 1096v16q-2 66-17 122t-42 99q-70 106-189 107-123 0-186-92-61-86-61-252v-99H0zm121 0v99q0 297 198 297 92 0 148-86 51-80 51-201 0-66-20.5-122t-49-101-60.5-80l-56-60-31-30q-45-53-52-122t-7-155V336h-74v100q0 47 1 90t8 84 23.5 78 45.5 72l16 16 19 19 49 51q29 31 54.5 69.5t42.5 86 19 102.5q0 33-7 69.5t-21.5 69.5-38 54.5T319 1319q-14 0-35.5-3t-42-24.5T207 1225t-14-129v-99h-72zM168 4v217h72V76h49v145h71V4H168z"/><glyph unicode="@" horiz-adv-x="1417" d="M-29 797q41 254 207 424 74 78 167 127t198 71q76 16 150 16 22 0 44-1 96-6 182.5-39t158-90.5T1200 1169q35-55 57.5-128.5T1286 887q1-22 1-45 0-55-7-109-10-76-37-139-25-63-78-116.5T1040 385q-70-35-138-46-28-5-54-5-37 0-70 10-84 23-116 96-29-6-55.5-7t-49.5-1q-141 0-211 80-58 66-58 179 0 31 5 67 18 147 90 225 84 90 225 90 29 0 60.5-3t66.5-13l2 22 72-12-9-56-12-69-12 12q-6 6-14 11-35 23-80 28.5t-74 5.5q-213 0-243-251-5-32-5-60 0-83 41-129 45-55 156-55 53 0 94 7t74 38q-2-6-2-17-2-13-2-25 0-30 14-52 20-31 64-41 22-5 47-6 23 0 49 5 55 9 113 38 59 31 103 74.5t65 95.5q23 57 31 123 6 46 7 94 0 21-2 43-10 147-73 250-43 68-106.5 117.5T893 1327t-162 35q-22 2-43 1-65 0-131-13-190-41-328-179-74-76-121-173T43 786q-11-68-11-131 0-122 42-225 63-156 217-250 82-51 181-76.5T682 78h21q11 0 24 2 121 6 230.5 43T1155 223q2 2 26 20l52 40 43-62-78-55Q1087 86 954 45T682 4Q565 4 455.5 32.5T252 119Q88 217 14 385q-55 122-54 270-1 68 11 142zm119-19q18 121 68.5 212t116 155.5T417 1248t150 55q61 12 121 12 19 0 38-1 79-5 147.5-32t126-72 98.5-106q29-43 45-101.5t21-120.5q2-22 2-45 0-40-6-81-9-63-30-117-16-43-49.5-77t-73.5-57.5-83-35.5-78-12q-25 0-35 4-42 11-42 51 0 7 1 14l8 47q6 35 13.5 83.5L808 761l18 111 18 104 14 83 72-12-17-95q0-2-9-55l-20-124-23-141q-11-71-17-104 14 0 35.5 4.5T930 549q47 20 84 51t49 66q18 45 26 99 5 35 4 69 0 20-1 39-4 54-17.5 104.5T1036 1065q-35 51-83 90t-107.5 60.5T719 1241q-15 1-30 1-53 0-107-11-168-35-280-158T162 766q-9-58-10-112 0-96 31-175 48-123 171-196 78-47 173-68 76-16 155-16 20 0 39 1 98 5 192.5 35.5T1083 322l78 57 43-57-53-41q-12-8-25-19-84-61-188-95t-214-40q-23-1-45-1-86 0-171 18-106 24-193 77-139 86-196 229-38 95-38 209-1 57 9 119zm322-37q14 111 61 161t135 50q86 0 127-26 16-12 29-38 7-14 7-38 0-20-5-47-16-94-33.5-144.5t-42-74T634 557t-77-4q-88 0-121 39-28 32-27 100 0 22 3 49zm70-71q3-23 10-31 12-12 65-12 35 0 55.5 1t28.5 9q10 10 23.5 48T694 815q3 20 4 30 0 12-4 19-6 4-27.5 9.5T608 879q-23 0-42-4.5T530.5 856t-29-43-18.5-80q-2-23-2-41 0-12 1-22z"/><glyph unicode="A" horiz-adv-x="960" d="M20 0l351 1509h153L874 0h-75L469 1423h-45L94 0H20zm123 0l115 494h377L750 0h-74l-98 420H315L219 0h-76zm125 541l178 764 177-764H268zm92 73h172l-86 369z"/><glyph unicode="B" horiz-adv-x="770" d="M0 0v72h291q154 0 227 88 70 84 70 264 0 178-70 266-35 41-88 66 158 63 158 329 0 180-72 265.5T291 1436H0v73h291q190 0 282-114 88-106 89-310 0-205-89-311-8-12-16-20 12-12 16-19 88-106 88.5-311T573 113Q481 0 291 0H0zm0 121v1268h72V121H0zm121 657v611h170q133 0 190-72 59-72 60-232 0-162-59.5-234.5T291 778H121zm0-657v610h170q131 0 190.5-72.5T541 424q0-158-60-234-57-70-190-69H121zm72 731h98q66 0 94.5 14.5T424 897q43 51 43 188 0 80-13.5 126t-37 69-56 29-69.5 6h-98V852zm0-659h98q37 0 69.5 6t56 28.5 37 69.5T467 424q0 82-14.5 128t-38 69.5-55 29.5-68.5 6h-98V193z"/><glyph unicode="C" horiz-adv-x="837" d="M0 430v649q0 201 86 310 16 20 40 41.5t57.5 39T260 1498t98 11q111 0 174.5-39.5T629 1389q88-111 88-310v-96h-74v96q0 176-70 267-74 90-215 90t-215-90q-72-94-71-267V430q0-111 26.5-181.5T166 139t92-53 100.5-14T458 86t91 53 67.5 109.5T643 430v98h74v-98q0-199-88-309-33-41-96.5-81T358 0q-55 0-98 11.5T183.5 40 126 78.5 86 121Q0 227 0 430zm121 0v649q0 309 237.5 309.5T596 1079v-96h-74v96q0 88-17.5 136.5t-43 70-54 25.5-49.5 4q-23 0-50-4t-54-25.5-44-70-17-136.5V430q0-133 47-190 10-16 36.5-31.5t82-15.5 81 15 37.5 32q45 57 45 190v98h74v-98q0-309-237.5-309T121 430z"/><glyph unicode="D" horiz-adv-x="802" d="M0 0v72h301q156 0 238 94 74 92 73 270v635q0 178-73 270-80 94-238 95H0v73h301q195 0 293-123 90-109 90-315V436q0-207-90-315Q496 0 301 0H0zm0 121v1268h72V121H0zm121 0v1268h180q139 0 199-78 63-76 63-240V436q0-162-63-239-61-76-199-76H121zm72 72h108q37 0 71 6t59.5 30.5T473 303t16 133v635q0 84-16 133t-41.5 74-59.5 31-71 6H193V193z"/><glyph unicode="E" horiz-adv-x="761" d="M0 0v1509h625v-73H72V72h553V0H0zm121 121v610h504v-74H193V193h432v-72H121zm0 657v611h504v-74H193V852h432v-74H121z"/><glyph unicode="F" horiz-adv-x="761" d="M0 0v1509h625v-73H72V0H0zm121 0v731h504v-74H193V0h-72zm0 778v611h504v-74H193V852h432v-74H121z"/><glyph unicode="G" horiz-adv-x="845" d="M0 432v651q0 201 88 310 92 119 270 118 180 0 273-118 88-109 88-310v-96h-72v96q0 174-71.5 264.5T358 1438q-143 0-214.5-90.5T72 1083V432q0-176 71-266 74-92 215-92 143 0 217 92 72 90 72 266v236H291v71h428V432q0-203-88-311-33-41-97.5-80t-175-39-174 39T88 121Q0 229 0 432zm121 0v651q0 160 61 234 57 74 176 74t179-74q61-74 61-234v-96h-74v96q0 82-14 128t-37.5 70-53.5 30-60.5 6-60.5-6-53.5-30-37.5-70-14-128V432q0-90 17-138t44-69.5 54.5-25.5 50-4 51 4 54 25.5 43 69.5T524 432v115H291v71h307V432q0-162-61-235-55-74-179-74-121 0-176 74-61 73-61 235z"/><glyph unicode="H" horiz-adv-x="837" d="M0 2v1509h72V2H0zm121 0v729h436V2h-74v657H193V2h-72zm0 778v731h72V852h290v659h74V780H121zM604 2v1509h74V2h-74z"/><glyph unicode="I" horiz-adv-x="413" d="M61 2v1509h72V2H61zm121 0v1509h72V2h-72z"/><glyph unicode="J" d="M0 403v97h72v-97q0-164 67-245 68-84 199-84 133 0 201 84 66 84 65 245v1108h72V403q0-188-82-290-29-39-90.5-75T338 2Q236 2 174.5 38T82 113Q0 215 0 403zm121 0v97h72v-97q0-78 15-120.5t37.5-62 47-22.5 45.5-3q51 0 73.5 13t32.5 25q39 51 39 170v1108h72V403q0-145-55-215-51-66-162-65-109 0-162 65-55 70-55 215z"/><glyph unicode="K" horiz-adv-x="935" d="M0 549l2 4v958h72V2H2v547H0zM123 2v516l158 244L700 2h-82L274 621l-79-125V2h-72zm0 606v903h72V852l428 659h84zm186 201l455 702h90L395 805 840 2h-82z"/><glyph unicode="L" horiz-adv-x="729" d="M0 2v1509h72V74h585V2H0zm121 121v1388h72V195h464v-72H121z"/><glyph unicode="M" horiz-adv-x="1101" d="M0 2v1509h170L475 449l303 1062h170V2h-71v1436h-43L475 186 115 1438H72V2H0zm121 0v1241L475 10l352 1233V2h-71v723L547 2H401L193 725V2h-72z"/><glyph unicode="N" horiz-adv-x="870" d="M0 4v1509h162l368-913v913h74V225L115 1440H72V4H0zm121 0v1288L610 78h41v1435h74V4H561L193 918V4h-72z"/><glyph unicode="O" d="M0 434v651q0 199 86 310 33 41 97.5 79.5t175 38.5 175-38.5T631 1395q86-111 86-310V434q0-203-86-309-16-20-40-42t-57.5-39T457 15.5 358 4Q247 4 183 44t-97 81Q0 231 0 434zm72 0q0-174 71-264 76-94 215.5-94T573 170q72 90 72 264v651q0 174-72 265-74 92-215 92t-215-92q-72-90-71-265V434zm49 0v651q0 160 61 234 55 74 176 74t177-74q61-74 61-234V434q0-309-237.5-309T121 434zm72 0q0-90 17-138t44-69.5 54.5-25.5 49.5-4q20 0 49 4t55.5 25.5 44 69.5T524 434v651q0 88-17.5 136.5t-44 70-55 25.5-49.5 4q-23 0-50-4t-54-25.5-44-69.5-17-137V434z"/><glyph unicode="P" horiz-adv-x="786" d="M0 4v1389h72V4H0zm0 1438v71h313q195 0 293-112 92-104 92-311t-92-314q-98-113-293-112H193V4h-72v731h192q160 0 236 86t76 269q0 180-76 266t-236 86H0zm121-658v609h192q139 0 201-70 63-72 63.5-233.5t-62-233.5T313 784H121zm72 72h120q80 0 109 18.5t37 28.5q45 51 45 187 0 74-12.5 118.5t-36 69.5-59.5 34-83 9H193V856z"/><glyph unicode="Q" d="M0 438v647q0 137 37 221.5t91 129.5 116.5 59 113.5 14q49 0 111.5-14t118-59 92.5-129 37-222V438q0-172-66-280L858-92h-88L563 158q4 2 5 4t5 6q70 98 70 270v647q0 350-285 351-287 0-286-351V438q0-174 71-270 74-96 215-96 100 0 170 51L707-92H606L508 29Q445 0 358 0 247 0 183 41t-97 84Q0 235 0 438zm121 0v647q0 156 57.5 230t180 74 179-74 56.5-230V438q0-166-64-243L383 373h86l43-54q4 23 7 56t3 63v647q0 80-14 126t-38 69-52.5 29-59 6-60.5-6-53.5-29-37.5-69-14-126V438q0-137 47-196 12-16 37.5-32.5T358 193h15L227 373h92l179-211q-53-41-140-41-237 0-237 317z"/><glyph unicode="R" horiz-adv-x="854" d="M0 0v1389h72V0H0zm0 1436v73h313q195 0 293-114 90-104 90-316 0-209-90-317-4-4-9-10.5T586 741q55-53 84.5-126.5T700 446V0h-73v446q0 152-88 240-37 33-86 55 172 66 172 338 0 182-74 269-76 88-238 88H0zM121 0v719h192q127 0 197-70.5T580 446V0h-74v446q0 199-193 199H193V0h-72zm0 768v621h192q139 0 201-72 61-74 61-238 0-166-61-238.5T313 768H121zm72 72h120q78 0 108 18.5t38 28.5q45 57 45 192 0 76-12.5 122t-36 71.5-59.5 34-83 8.5H193V840z"/><glyph unicode="S" horiz-adv-x="813" d="M0 1077q0 96 25.5 176T99 1389.5t115 88 146 31.5q111 0 175.5-38.5T633 1391q88-113 88-314v-96h-74v96q0 180-72 266-72 92-215 93-139 0-217-107-72-96-71-252 0-88 29.5-149.5T173 826t87-62.5 74-34.5l35-16q27-10 65.5-28.5T510 632t63.5-86T600 418q0-141-63.5-219T360 121q-121 0-178 72-61 76-61 235v96h72v-96q0-133 47-190 10-14 36.5-29.5T360 193q55 0 88 23.5t50.5 57T521 347t5 71q0 53-16 90t-43 62.5-59.5 43T342 645l-37 16q-33 14-83 40t-99 73Q0 893 0 1077zm0-649v96h72v-96q0-176 71-266 74-90 217-90 68 0 123.5 25.5T575 174q35 45 53.5 107.5T647 418q0 88-30.5 148.5T544 666t-86 60.5-71 31.5l-33 14q-29 12-68.5 32.5T209 861t-62.5 88-25.5 128q0 53 12 108.5t41 100.5 75 74 111 29q119 0 179-74 61-78 61-238v-96h-74v96q0 88-17 137.5t-44 71-55.5 25.5-49.5 4q-59 0-91.5-29t-50-68.5T197 1138t-4-61q0-53 16-91t43-65.5 60.5-47T383 840l33-15q29-12 79-35.5t99-70.5q127-117 127-301 0-174-86-289Q535 0 360 0 180 0 88 117 0 225 0 428z"/><glyph unicode="T" horiz-adv-x="944" d="M-20 1315v74h403V0h-74v1315H-20zm0 121v73h854v-73H-20zM430 0v1389h404v-74H504V0h-74z"/><glyph unicode="U" d="M0 401v1108h72V401q0-162 67-243 68-86 199-86 133 0 199 86 68 82 67 243v1108h72V401q0-188-82-288-31-41-92.5-77T338 0 174.5 36 82 113Q0 213 0 401zm121 0v1108h72V401q0-78 15-120.5t37.5-62 47-22.5 45-3 45.5 3 47.5 22.5T468 281t15 120v1108h72V401q0-145-55-215-51-66-162-65-109 0-162 65-55 70-55 215z"/><glyph unicode="V" horiz-adv-x="944" d="M0 1509h72L430 80h41l358 1429h76L526 0H375zm123 0h76L451 496l256 1013h71L451 197z"/><glyph unicode="W" horiz-adv-x="1474" d="M0 1509h76L391 80h41l270 1220L971 80h43l313 1429h76L1069 0H913L702 963 489 0H334zm125 0h74l213-964 213 964h155l211-964 213 964h74L991 209 723 1430h-43L412 209z"/><glyph unicode="X" horiz-adv-x="1019" d="M0 0l356 754L6 1509h80l354-753L84 0H0zm137 0l330 698L797 0h-84L465 528 215 0h-78zm2 1509h82l244-528 250 528h82L467 813zm355-753l356 753h80L571 754 926 0h-76z"/><glyph unicode="Y" horiz-adv-x="1060" d="M-82 1509H0l418-761V0h-70v729zm137 0h84l305-555 308 555h77L442 805zM465 0v748l420 761h88L541 729V0h-76z"/><glyph unicode="Z" horiz-adv-x="935" d="M0 1315v74h659v-39h3L104 162V72h707V0H33v188l528 1127H0zm0 121v73h778v-186L250 193h561v-72H158v41l551 1173v101H0z"/><glyph unicode="[" horiz-adv-x="1705"/><glyph unicode="\" horiz-adv-x="786" d="M0 1511h74L639 2h-80zm125 0h82L766 2h-76z"/><glyph unicode="]" horiz-adv-x="1705"/><glyph unicode="^" horiz-adv-x="1705"/><glyph unicode="_" horiz-adv-x="952" d="M0 0h956v-74H0V0zm0-121h956v-74H0v74z"/><glyph unicode="`" horiz-adv-x="323" d="M0 1204v309h193v-309H0zm72 72h49v164H72v-164z"/><glyph unicode="a" horiz-adv-x="960" d="M20 0l351 1509h153L874 0h-75L469 1423h-45L94 0H20zm123 0l115 494h377L750 0h-74l-98 420H315L219 0h-76zm125 541l178 764 177-764H268zm92 73h172l-86 369z"/><glyph unicode="b" horiz-adv-x="770" d="M0 0v72h291q154 0 227 88 70 84 70 264 0 178-70 266-35 41-88 66 158 63 158 329 0 180-72 265.5T291 1436H0v73h291q190 0 282-114 88-106 89-310 0-205-89-311-8-12-16-20 12-12 16-19 88-106 88.5-311T573 113Q481 0 291 0H0zm0 121v1268h72V121H0zm121 657v611h170q133 0 190-72 59-72 60-232 0-162-59.5-234.5T291 778H121zm0-657v610h170q131 0 190.5-72.5T541 424q0-158-60-234-57-70-190-69H121zm72 731h98q66 0 94.5 14.5T424 897q43 51 43 188 0 80-13.5 126t-37 69-56 29-69.5 6h-98V852zm0-659h98q37 0 69.5 6t56 28.5 37 69.5T467 424q0 82-14.5 128t-38 69.5-55 29.5-68.5 6h-98V193z"/><glyph unicode="c" horiz-adv-x="837" d="M0 430v649q0 201 86 310 16 20 40 41.5t57.5 39T260 1498t98 11q111 0 174.5-39.5T629 1389q88-111 88-310v-96h-74v96q0 176-70 267-74 90-215 90t-215-90q-72-94-71-267V430q0-111 26.5-181.5T166 139t92-53 100.5-14T458 86t91 53 67.5 109.5T643 430v98h74v-98q0-199-88-309-33-41-96.5-81T358 0q-55 0-98 11.5T183.5 40 126 78.5 86 121Q0 227 0 430zm121 0v649q0 309 237.5 309.5T596 1079v-96h-74v96q0 88-17.5 136.5t-43 70-54 25.5-49.5 4q-23 0-50-4t-54-25.5-44-70-17-136.5V430q0-133 47-190 10-16 36.5-31.5t82-15.5 81 15 37.5 32q45 57 45 190v98h74v-98q0-309-237.5-309T121 430z"/><glyph unicode="d" horiz-adv-x="802" d="M0 0v72h301q156 0 238 94 74 92 73 270v635q0 178-73 270-80 94-238 95H0v73h301q195 0 293-123 90-109 90-315V436q0-207-90-315Q496 0 301 0H0zm0 121v1268h72V121H0zm121 0v1268h180q139 0 199-78 63-76 63-240V436q0-162-63-239-61-76-199-76H121zm72 72h108q37 0 71 6t59.5 30.5T473 303t16 133v635q0 84-16 133t-41.5 74-59.5 31-71 6H193V193z"/><glyph unicode="e" horiz-adv-x="761" d="M0 0v1509h625v-73H72V72h553V0H0zm121 121v610h504v-74H193V193h432v-72H121zm0 657v611h504v-74H193V852h432v-74H121z"/><glyph unicode="f" horiz-adv-x="761" d="M0 0v1509h625v-73H72V0H0zm121 0v731h504v-74H193V0h-72zm0 778v611h504v-74H193V852h432v-74H121z"/><glyph unicode="g" horiz-adv-x="845" d="M0 432v651q0 201 88 310 92 119 270 118 180 0 273-118 88-109 88-310v-96h-72v96q0 174-71.5 264.5T358 1438q-143 0-214.5-90.5T72 1083V432q0-176 71-266 74-92 215-92 143 0 217 92 72 90 72 266v236H291v71h428V432q0-203-88-311-33-41-97.5-80t-175-39-174 39T88 121Q0 229 0 432zm121 0v651q0 160 61 234 57 74 176 74t179-74q61-74 61-234v-96h-74v96q0 82-14 128t-37.5 70-53.5 30-60.5 6-60.5-6-53.5-30-37.5-70-14-128V432q0-90 17-138t44-69.5 54.5-25.5 50-4 51 4 54 25.5 43 69.5T524 432v115H291v71h307V432q0-162-61-235-55-74-179-74-121 0-176 74-61 73-61 235z"/><glyph unicode="h" horiz-adv-x="837" d="M0 2v1509h72V2H0zm121 0v729h436V2h-74v657H193V2h-72zm0 778v731h72V852h290v659h74V780H121zM604 2v1509h74V2h-74z"/><glyph unicode="i" horiz-adv-x="413" d="M61 2v1509h72V2H61zm121 0v1509h72V2h-72z"/><glyph unicode="j" d="M0 403v97h72v-97q0-164 67-245 68-84 199-84 133 0 201 84 66 84 65 245v1108h72V403q0-188-82-290-29-39-90.5-75T338 2Q236 2 174.5 38T82 113Q0 215 0 403zm121 0v97h72v-97q0-78 15-120.5t37.5-62 47-22.5 45.5-3q51 0 73.5 13t32.5 25q39 51 39 170v1108h72V403q0-145-55-215-51-66-162-65-109 0-162 65-55 70-55 215z"/><glyph unicode="k" horiz-adv-x="935" d="M0 549l2 4v958h72V2H2v547H0zM123 2v516l158 244L700 2h-82L274 621l-79-125V2h-72zm0 606v903h72V852l428 659h84zm186 201l455 702h90L395 805 840 2h-82z"/><glyph unicode="l" horiz-adv-x="729" d="M0 2v1509h72V74h585V2H0zm121 121v1388h72V195h464v-72H121z"/><glyph unicode="m" horiz-adv-x="1101" d="M0 2v1509h170L475 449l303 1062h170V2h-71v1436h-43L475 186 115 1438H72V2H0zm121 0v1241L475 10l352 1233V2h-71v723L547 2H401L193 725V2h-72z"/><glyph unicode="n" horiz-adv-x="870" d="M0 4v1509h162l368-913v913h74V225L115 1440H72V4H0zm121 0v1288L610 78h41v1435h74V4H561L193 918V4h-72z"/><glyph unicode="o" d="M0 434v651q0 199 86 310 33 41 97.5 79.5t175 38.5 175-38.5T631 1395q86-111 86-310V434q0-203-86-309-16-20-40-42t-57.5-39T457 15.5 358 4Q247 4 183 44t-97 81Q0 231 0 434zm72 0q0-174 71-264 76-94 215.5-94T573 170q72 90 72 264v651q0 174-72 265-74 92-215 92t-215-92q-72-90-71-265V434zm49 0v651q0 160 61 234 55 74 176 74t177-74q61-74 61-234V434q0-309-237.5-309T121 434zm72 0q0-90 17-138t44-69.5 54.5-25.5 49.5-4q20 0 49 4t55.5 25.5 44 69.5T524 434v651q0 88-17.5 136.5t-44 70-55 25.5-49.5 4q-23 0-50-4t-54-25.5-44-69.5-17-137V434z"/><glyph unicode="p" horiz-adv-x="786" d="M0 4v1389h72V4H0zm0 1438v71h313q195 0 293-112 92-104 92-311t-92-314q-98-113-293-112H193V4h-72v731h192q160 0 236 86t76 269q0 180-76 266t-236 86H0zm121-658v609h192q139 0 201-70 63-72 63.5-233.5t-62-233.5T313 784H121zm72 72h120q80 0 109 18.5t37 28.5q45 51 45 187 0 74-12.5 118.5t-36 69.5-59.5 34-83 9H193V856z"/><glyph unicode="q" d="M0 438v647q0 137 37 221.5t91 129.5 116.5 59 113.5 14q49 0 111.5-14t118-59 92.5-129 37-222V438q0-172-66-280L858-92h-88L563 158q4 2 5 4t5 6q70 98 70 270v647q0 350-285 351-287 0-286-351V438q0-174 71-270 74-96 215-96 100 0 170 51L707-92H606L508 29Q445 0 358 0 247 0 183 41t-97 84Q0 235 0 438zm121 0v647q0 156 57.5 230t180 74 179-74 56.5-230V438q0-166-64-243L383 373h86l43-54q4 23 7 56t3 63v647q0 80-14 126t-38 69-52.5 29-59 6-60.5-6-53.5-29-37.5-69-14-126V438q0-137 47-196 12-16 37.5-32.5T358 193h15L227 373h92l179-211q-53-41-140-41-237 0-237 317z"/><glyph unicode="r" horiz-adv-x="854" d="M0 0v1389h72V0H0zm0 1436v73h313q195 0 293-114 90-104 90-316 0-209-90-317-4-4-9-10.5T586 741q55-53 84.5-126.5T700 446V0h-73v446q0 152-88 240-37 33-86 55 172 66 172 338 0 182-74 269-76 88-238 88H0zM121 0v719h192q127 0 197-70.5T580 446V0h-74v446q0 199-193 199H193V0h-72zm0 768v621h192q139 0 201-72 61-74 61-238 0-166-61-238.5T313 768H121zm72 72h120q78 0 108 18.5t38 28.5q45 57 45 192 0 76-12.5 122t-36 71.5-59.5 34-83 8.5H193V840z"/><glyph unicode="s" horiz-adv-x="813" d="M0 1077q0 96 25.5 176T99 1389.5t115 88 146 31.5q111 0 175.5-38.5T633 1391q88-113 88-314v-96h-74v96q0 180-72 266-72 92-215 93-139 0-217-107-72-96-71-252 0-88 29.5-149.5T173 826t87-62.5 74-34.5l35-16q27-10 65.5-28.5T510 632t63.5-86T600 418q0-141-63.5-219T360 121q-121 0-178 72-61 76-61 235v96h72v-96q0-133 47-190 10-14 36.5-29.5T360 193q55 0 88 23.5t50.5 57T521 347t5 71q0 53-16 90t-43 62.5-59.5 43T342 645l-37 16q-33 14-83 40t-99 73Q0 893 0 1077zm0-649v96h72v-96q0-176 71-266 74-90 217-90 68 0 123.5 25.5T575 174q35 45 53.5 107.5T647 418q0 88-30.5 148.5T544 666t-86 60.5-71 31.5l-33 14q-29 12-68.5 32.5T209 861t-62.5 88-25.5 128q0 53 12 108.5t41 100.5 75 74 111 29q119 0 179-74 61-78 61-238v-96h-74v96q0 88-17 137.5t-44 71-55.5 25.5-49.5 4q-59 0-91.5-29t-50-68.5T197 1138t-4-61q0-53 16-91t43-65.5 60.5-47T383 840l33-15q29-12 79-35.5t99-70.5q127-117 127-301 0-174-86-289Q535 0 360 0 180 0 88 117 0 225 0 428z"/><glyph unicode="t" horiz-adv-x="944" d="M-20 1315v74h403V0h-74v1315H-20zm0 121v73h854v-73H-20zM430 0v1389h404v-74H504V0h-74z"/><glyph unicode="u" d="M0 401v1108h72V401q0-162 67-243 68-86 199-86 133 0 199 86 68 82 67 243v1108h72V401q0-188-82-288-31-41-92.5-77T338 0 174.5 36 82 113Q0 213 0 401zm121 0v1108h72V401q0-78 15-120.5t37.5-62 47-22.5 45-3 45.5 3 47.5 22.5T468 281t15 120v1108h72V401q0-145-55-215-51-66-162-65-109 0-162 65-55 70-55 215z"/><glyph unicode="v" horiz-adv-x="944" d="M0 1509h72L430 80h41l358 1429h76L526 0H375zm123 0h76L451 496l256 1013h71L451 197z"/><glyph unicode="w" horiz-adv-x="1474" d="M0 1509h76L391 80h41l270 1220L971 80h43l313 1429h76L1069 0H913L702 963 489 0H334zm125 0h74l213-964 213 964h155l211-964 213 964h74L991 209 723 1430h-43L412 209z"/><glyph unicode="x" horiz-adv-x="1019" d="M0 0l356 754L6 1509h80l354-753L84 0H0zm137 0l330 698L797 0h-84L465 528 215 0h-78zm2 1509h82l244-528 250 528h82L467 813zm355-753l356 753h80L571 754 926 0h-76z"/><glyph unicode="y" horiz-adv-x="1060" d="M-82 1509H0l418-761V0h-70v729zm137 0h84l305-555 308 555h77L442 805zM465 0v748l420 761h88L541 729V0h-76z"/><glyph unicode="z" horiz-adv-x="935" d="M0 1315v74h659v-39h3L104 162V72h707V0H33v188l528 1127H0zm0 121v73h778v-186L250 193h561v-72H158v41l551 1173v101H0z"/><glyph unicode="{" horiz-adv-x="1705"/><glyph unicode="|" horiz-adv-x="413" d="M61 2v1509h72V2H61zm121 0v1509h72V2h-72z"/><glyph unicode="}" horiz-adv-x="1705"/><glyph unicode="~" horiz-adv-x="1705"/><glyph unicode="©" horiz-adv-x="1705"/><glyph unicode="ª" horiz-adv-x="960" d="M20 0l351 1509h153L874 0h-75L469 1423h-45L94 0H20zm123 0l115 494h377L750 0h-74l-98 420H315L219 0h-76zm125 541l178 764 177-764H268zm92 73h172l-86 369z"/><glyph unicode="­" horiz-adv-x="770" d="M0 662v71h618v-71H0zm0 120v72h618v-72H0z"/><glyph unicode="®" horiz-adv-x="1705"/><glyph unicode="²" horiz-adv-x="737" d="M0-4v96q0 92 17.5 170t50 148.5T143 552t97 148l42 61 37 52 53 72q24 33 40 66.5t25 71.5 9 87q0 18-4 51t-17 67-38 58.5-68 24.5q-16 0-37.5-3t-42-22.5T206 1223t-13-121v-96h-72v96q0 143 51 217 49 66 147 65 94 0 148-79 51-74 51-195 0-59-11-104t-29.5-84-43-76-55.5-76l-38.5-53.5L299 662l-93-145q-42-67-72-133.5t-46-136T72 92V68h569V-4H0zm0 1010v96q0 186 76 289 29 39 87 76.5t156 37.5q70 0 128.5-27.5T547 1400t65.5-122 26.5-158h2v-18h-2q-2-72-16.5-128t-37-104.5T535 779l-60-83-36.5-48-37.5-54-77-119q-35-53-59.5-101t-40-92-23.5-94h440v-71H121q2 74 18.5 136t44 121.5T251 497l89 136 39 56 37 52 57 79q27 38 47.5 80t32.5 91 14 111v18q-4 129-59 211-68 100-188.5 100.5T133 1348q-61-84-61-246v-96H0z"/><glyph unicode="³" horiz-adv-x="737" d="M0 426v96h72v-96q0-111 22.5-181.5t58-109.5T232 82t87-14q115 0 181.5 94T567 416q0 104-34.5 170.5T461 688q-41 39-90 60 53 27 90 63 37 35 71.5 100.5T567 1083q0 160-66.5 254.5T319 1432q-127 0-186-97-61-90-61-262v-96H0v96q0 195 72 303 88 129 247 129 162 0 250-141 72-113 72-281 0-125-42-203.5T512 758q-4-2-5-4t-5-4l10-11q45-41 87-119.5T641 416q0-84-18.5-156T569 133Q526 67 461.5 31.5T319-4Q157-4 72 123q-35 55-53.5 130T0 426zm121 0v96h72v-96q0-86 13-130t27-67q10-16 29-28.5t57-12.5q45 0 71 30t38 69 15 76.5 3 52.5q0 66-20 110.5T378 599t-59.5 40-52.5 12h-92v74h92q33 0 77-16.5t85-55.5q31-31 60.5-88T518 416q0-133-51-217-51-82-148-82-98 0-145 73-53 78-53 236zm0 551v96q0 311 198 311 94 0 148-84 51-84 51-217 0-80-24.5-138T431 848t-82-57.5-83-18.5h-92v74h92q20 0 52 12t60 40 48 73 20 112q0 8-3 45t-15 77-37.5 73-71.5 33q-12 0-33.5-4t-42-25.5-35.5-71-15-137.5v-96h-72z"/><glyph unicode="¹" horiz-adv-x="563" d="M0 1159l242 346h186V-4h-72v1452h-61L61 1108zm98-82l209 305V-4h-71v1157l-86-117z"/><glyph unicode="º" d="M0 434v651q0 199 86 310 33 41 97.5 79.5t175 38.5 175-38.5T631 1395q86-111 86-310V434q0-203-86-309-16-20-40-42t-57.5-39T457 15.5 358 4Q247 4 183 44t-97 81Q0 231 0 434zm72 0q0-174 71-264 76-94 215.5-94T573 170q72 90 72 264v651q0 174-72 265-74 92-215 92t-215-92q-72-90-71-265V434zm49 0v651q0 160 61 234 55 74 176 74t177-74q61-74 61-234V434q0-309-237.5-309T121 434zm72 0q0-90 17-138t44-69.5 54.5-25.5 49.5-4q20 0 49 4t55.5 25.5 44 69.5T524 434v651q0 88-17.5 136.5t-44 70-55 25.5-49.5 4q-23 0-50-4t-54-25.5-44-69.5-17-137V434z"/><glyph unicode="À" horiz-adv-x="960" d="M20 0l351 1509h153L874 0h-75L469 1423h-45L94 0H20zm123 0l115 494h377L750 0h-74l-98 420H315L219 0h-76zm125 541l178 764 177-764H268zm84 1095v310h193v-310H352zm8-1022h172l-86 369zm64 1094h49v164h-49v-164z"/><glyph unicode="Â" horiz-adv-x="960" d="M20 0l351 1509h153L874 0h-75L469 1423h-45L94 0H20zm123 0l115 494h377L750 0h-74l-98 420H315L219 0h-76zm125 541l178 764 177-764H268zm92 73h172l-86 369z"/><glyph unicode="Ã" horiz-adv-x="960" d="M20 0l351 1509h153L874 0h-75L469 1423h-45L94 0H20zm123 0l115 494h377L750 0h-74l-98 420H315L219 0h-76zm125 541l178 764 177-764H268zm92 73h172l-86 369z"/><glyph unicode="Å" horiz-adv-x="960" d="M20 0l351 1509h153L874 0h-75L469 1423h-45L94 0H20zm123 0l115 494h377L750 0h-74l-98 420H315L219 0h-76zm125 541l178 764 177-764H268zm92 73h172l-86 369z"/><glyph unicode="È" horiz-adv-x="761" d="M0 0v1509h625v-73H72V72h553V0H0zm121 121v610h504v-74H193V193h432v-72H121zm0 657v611h504v-74H193V852h432v-74H121zm96 858v310h193v-310H217zm72 72h49v164h-49v-164z"/><glyph unicode="Ê" horiz-adv-x="761" d="M0 0v1509h625v-73H72V72h553V0H0zm121 121v610h504v-74H193V193h432v-72H121zm0 657v611h504v-74H193V852h432v-74H121z"/><glyph unicode="Ì" horiz-adv-x="413" d="M61 2v1509h72V2H61zm0 1634v310h193v-310H61zm72 72h49v164h-49v-164zM182 2v1509h72V2h-72z"/><glyph unicode="Î" horiz-adv-x="413" d="M61 2v1509h72V2H61zm121 0v1509h72V2h-72z"/><glyph unicode="Ñ" horiz-adv-x="870" d="M0 4v1509h162l368-913v913h74V225L115 1440H72V4H0zm121 0v1288L610 78h41v1435h74V4H561L193 918V4h-72z"/><glyph unicode="Ò" d="M0 434v651q0 199 86 310 33 41 97.5 79.5t175 38.5 175-38.5T631 1395q86-111 86-310V434q0-203-86-309-16-20-40-42t-57.5-39T457 15.5 358 4Q247 4 183 44t-97 81Q0 231 0 434zm72 0q0-174 71-264 76-94 215.5-94T573 170q72 90 72 264v651q0 174-72 265-74 92-215 92t-215-92q-72-90-71-265V434zm49 0v651q0 160 61 234 55 74 176 74t177-74q61-74 61-234V434q0-309-237.5-309T121 434zm72 0q0-90 17-138t44-69.5 54.5-25.5 49.5-4q20 0 49 4t55.5 25.5 44 69.5T524 434v651q0 88-17.5 136.5t-44 70-55 25.5-49.5 4q-23 0-50-4t-54-25.5-44-69.5-17-137V434zm69 1202v310h193v-310H262zm72 72h49v164h-49v-164z"/><glyph unicode="Ô" d="M0 434v651q0 199 86 310 33 41 97.5 79.5t175 38.5 175-38.5T631 1395q86-111 86-310V434q0-203-86-309-16-20-40-42t-57.5-39T457 15.5 358 4Q247 4 183 44t-97 81Q0 231 0 434zm72 0q0-174 71-264 76-94 215.5-94T573 170q72 90 72 264v651q0 174-72 265-74 92-215 92t-215-92q-72-90-71-265V434zm49 0v651q0 160 61 234 55 74 176 74t177-74q61-74 61-234V434q0-309-237.5-309T121 434zm72 0q0-90 17-138t44-69.5 54.5-25.5 49.5-4q20 0 49 4t55.5 25.5 44 69.5T524 434v651q0 88-17.5 136.5t-44 70-55 25.5-49.5 4q-23 0-50-4t-54-25.5-44-69.5-17-137V434z"/><glyph unicode="Õ" d="M0 434v651q0 199 86 310 33 41 97.5 79.5t175 38.5 175-38.5T631 1395q86-111 86-310V434q0-203-86-309-16-20-40-42t-57.5-39T457 15.5 358 4Q247 4 183 44t-97 81Q0 231 0 434zm72 0q0-174 71-264 76-94 215.5-94T573 170q72 90 72 264v651q0 174-72 265-74 92-215 92t-215-92q-72-90-71-265V434zm49 0v651q0 160 61 234 55 74 176 74t177-74q61-74 61-234V434q0-309-237.5-309T121 434zm72 0q0-90 17-138t44-69.5 54.5-25.5 49.5-4q20 0 49 4t55.5 25.5 44 69.5T524 434v651q0 88-17.5 136.5t-44 70-55 25.5-49.5 4q-23 0-50-4t-54-25.5-44-69.5-17-137V434z"/><glyph unicode="Ù" d="M0 401v1108h72V401q0-162 67-243 68-86 199-86 133 0 199 86 68 82 67 243v1108h72V401q0-188-82-288-31-41-92.5-77T338 0 174.5 36 82 113Q0 213 0 401zm121 0v1108h72V401q0-78 15-120.5t37.5-62 47-22.5 45-3 45.5 3 47.5 22.5T468 281t15 120v1108h72V401q0-145-55-215-51-66-162-65-109 0-162 65-55 70-55 215zm121 1235v310h192v-310H242zm71 72h49v164h-49v-164z"/><glyph unicode="Û" d="M0 401v1108h72V401q0-162 67-243 68-86 199-86 133 0 199 86 68 82 67 243v1108h72V401q0-188-82-288-31-41-92.5-77T338 0 174.5 36 82 113Q0 213 0 401zm121 0v1108h72V401q0-78 15-120.5t37.5-62 47-22.5 45-3 45.5 3 47.5 22.5T468 281t15 120v1108h72V401q0-145-55-215-51-66-162-65-109 0-162 65-55 70-55 215z"/><glyph unicode="à" horiz-adv-x="960" d="M20 0l351 1509h153L874 0h-75L469 1423h-45L94 0H20zm123 0l115 494h377L750 0h-74l-98 420H315L219 0h-76zm125 541l178 764 177-764H268zm84 1095v310h193v-310H352zm8-1022h172l-86 369zm64 1094h49v164h-49v-164z"/><glyph unicode="â" horiz-adv-x="960" d="M20 0l351 1509h153L874 0h-75L469 1423h-45L94 0H20zm123 0l115 494h377L750 0h-74l-98 420H315L219 0h-76zm125 541l178 764 177-764H268zm92 73h172l-86 369z"/><glyph unicode="ã" horiz-adv-x="960" d="M20 0l351 1509h153L874 0h-75L469 1423h-45L94 0H20zm123 0l115 494h377L750 0h-74l-98 420H315L219 0h-76zm125 541l178 764 177-764H268zm92 73h172l-86 369z"/><glyph unicode="å" horiz-adv-x="960" d="M20 0l351 1509h153L874 0h-75L469 1423h-45L94 0H20zm123 0l115 494h377L750 0h-74l-98 420H315L219 0h-76zm125 541l178 764 177-764H268zm92 73h172l-86 369z"/><glyph unicode="è" horiz-adv-x="761" d="M0 0v1509h625v-73H72V72h553V0H0zm121 121v610h504v-74H193V193h432v-72H121zm0 657v611h504v-74H193V852h432v-74H121zm96 858v310h193v-310H217zm72 72h49v164h-49v-164z"/><glyph unicode="ê" horiz-adv-x="761" d="M0 0v1509h625v-73H72V72h553V0H0zm121 121v610h504v-74H193V193h432v-72H121zm0 657v611h504v-74H193V852h432v-74H121z"/><glyph unicode="ì" horiz-adv-x="413" d="M61 2v1509h72V2H61zm0 1634v310h193v-310H61zm72 72h49v164h-49v-164zM182 2v1509h72V2h-72z"/><glyph unicode="î" horiz-adv-x="413" d="M61 2v1509h72V2H61zm121 0v1509h72V2h-72z"/><glyph unicode="ñ" horiz-adv-x="870" d="M0 4v1509h162l368-913v913h74V225L115 1440H72V4H0zm121 0v1288L610 78h41v1435h74V4H561L193 918V4h-72z"/><glyph unicode="ò" d="M0 434v651q0 199 86 310 33 41 97.5 79.5t175 38.5 175-38.5T631 1395q86-111 86-310V434q0-203-86-309-16-20-40-42t-57.5-39T457 15.5 358 4Q247 4 183 44t-97 81Q0 231 0 434zm72 0q0-174 71-264 76-94 215.5-94T573 170q72 90 72 264v651q0 174-72 265-74 92-215 92t-215-92q-72-90-71-265V434zm49 0v651q0 160 61 234 55 74 176 74t177-74q61-74 61-234V434q0-309-237.5-309T121 434zm72 0q0-90 17-138t44-69.5 54.5-25.5 49.5-4q20 0 49 4t55.5 25.5 44 69.5T524 434v651q0 88-17.5 136.5t-44 70-55 25.5-49.5 4q-23 0-50-4t-54-25.5-44-69.5-17-137V434zm69 1202v310h193v-310H262zm72 72h49v164h-49v-164z"/><glyph unicode="ô" d="M0 434v651q0 199 86 310 33 41 97.5 79.5t175 38.5 175-38.5T631 1395q86-111 86-310V434q0-203-86-309-16-20-40-42t-57.5-39T457 15.5 358 4Q247 4 183 44t-97 81Q0 231 0 434zm72 0q0-174 71-264 76-94 215.5-94T573 170q72 90 72 264v651q0 174-72 265-74 92-215 92t-215-92q-72-90-71-265V434zm49 0v651q0 160 61 234 55 74 176 74t177-74q61-74 61-234V434q0-309-237.5-309T121 434zm72 0q0-90 17-138t44-69.5 54.5-25.5 49.5-4q20 0 49 4t55.5 25.5 44 69.5T524 434v651q0 88-17.5 136.5t-44 70-55 25.5-49.5 4q-23 0-50-4t-54-25.5-44-69.5-17-137V434z"/><glyph unicode="õ" d="M0 434v651q0 199 86 310 33 41 97.5 79.5t175 38.5 175-38.5T631 1395q86-111 86-310V434q0-203-86-309-16-20-40-42t-57.5-39T457 15.5 358 4Q247 4 183 44t-97 81Q0 231 0 434zm72 0q0-174 71-264 76-94 215.5-94T573 170q72 90 72 264v651q0 174-72 265-74 92-215 92t-215-92q-72-90-71-265V434zm49 0v651q0 160 61 234 55 74 176 74t177-74q61-74 61-234V434q0-309-237.5-309T121 434zm72 0q0-90 17-138t44-69.5 54.5-25.5 49.5-4q20 0 49 4t55.5 25.5 44 69.5T524 434v651q0 88-17.5 136.5t-44 70-55 25.5-49.5 4q-23 0-50-4t-54-25.5-44-69.5-17-137V434z"/><glyph unicode="ù" d="M0 401v1108h72V401q0-162 67-243 68-86 199-86 133 0 199 86 68 82 67 243v1108h72V401q0-188-82-288-31-41-92.5-77T338 0 174.5 36 82 113Q0 213 0 401zm121 0v1108h72V401q0-78 15-120.5t37.5-62 47-22.5 45-3 45.5 3 47.5 22.5T468 281t15 120v1108h72V401q0-145-55-215-51-66-162-65-109 0-162 65-55 70-55 215zm121 1235v310h192v-310H242zm71 72h49v164h-49v-164z"/><glyph unicode="û" d="M0 401v1108h72V401q0-162 67-243 68-86 199-86 133 0 199 86 68 82 67 243v1108h72V401q0-188-82-288-31-41-92.5-77T338 0 174.5 36 82 113Q0 213 0 401zm121 0v1108h72V401q0-78 15-120.5t37.5-62 47-22.5 45-3 45.5 3 47.5 22.5T468 281t15 120v1108h72V401q0-145-55-215-51-66-162-65-109 0-162 65-55 70-55 215z"/><glyph unicode="ı" horiz-adv-x="413" d="M61 2v1509h72V2H61zm121 0v1509h72V2h-72z"/><glyph unicode="Œ" horiz-adv-x="1591" d="M0 434v651q0 199 86 310 33 41 97.5 79.5t175 38.5 175-38.5T631 1395q86-111 86-310V434q0-203-86-309-16-20-40-42t-57.5-39T457 15.5 358 4Q247 4 183 44t-97 81Q0 231 0 434zm72 0q0-174 71-264 76-94 215.5-94T573 170q72 90 72 264v651q0 174-72 265-74 92-215 92t-215-92q-72-90-71-265V434zm49 0v651q0 160 61 234 55 74 176 74t177-74q61-74 61-234V434q0-309-237.5-309T121 434zm72 0q0-90 17-138t44-69.5 54.5-25.5 49.5-4q20 0 49 4t55.5 25.5 44 69.5T524 434v651q0 88-17.5 136.5t-44 70-55 25.5-49.5 4q-23 0-50-4t-54-25.5-44-69.5-17-137V434zM829 0v1509h625v-73H901V72h553V0H829zm121 121v610h504v-74h-432V193h432v-72H950zm0 657v611h504v-74h-432V852h432v-74H950z"/><glyph unicode="œ" horiz-adv-x="1591" d="M0 434v651q0 199 86 310 33 41 97.5 79.5t175 38.5 175-38.5T631 1395q86-111 86-310V434q0-203-86-309-16-20-40-42t-57.5-39T457 15.5 358 4Q247 4 183 44t-97 81Q0 231 0 434zm72 0q0-174 71-264 76-94 215.5-94T573 170q72 90 72 264v651q0 174-72 265-74 92-215 92t-215-92q-72-90-71-265V434zm49 0v651q0 160 61 234 55 74 176 74t177-74q61-74 61-234V434q0-309-237.5-309T121 434zm72 0q0-90 17-138t44-69.5 54.5-25.5 49.5-4q20 0 49 4t55.5 25.5 44 69.5T524 434v651q0 88-17.5 136.5t-44 70-55 25.5-49.5 4q-23 0-50-4t-54-25.5-44-69.5-17-137V434zM829 0v1509h625v-73H901V72h553V0H829zm121 121v610h504v-74h-432V193h432v-72H950zm0 657v611h504v-74h-432V852h432v-74H950z"/><glyph unicode="ˆ" horiz-adv-x="1705"/><glyph unicode="˚" horiz-adv-x="1705"/><glyph unicode="˜" horiz-adv-x="1705"/><glyph horiz-adv-x="972"/><glyph horiz-adv-x="1945"/><glyph horiz-adv-x="972"/><glyph horiz-adv-x="1945"/><glyph horiz-adv-x="647"/><glyph horiz-adv-x="485"/><glyph horiz-adv-x="323"/><glyph horiz-adv-x="323"/><glyph horiz-adv-x="241"/><glyph horiz-adv-x="389"/><glyph horiz-adv-x="106"/><glyph unicode="‐" horiz-adv-x="770" d="M0 662v71h618v-71H0zm0 120v72h618v-72H0z"/><glyph unicode="‑" horiz-adv-x="770" d="M0 662v71h618v-71H0zm0 120v72h618v-72H0z"/><glyph unicode="‒" horiz-adv-x="770" d="M0 662v71h618v-71H0zm0 120v72h618v-72H0z"/><glyph unicode="–" horiz-adv-x="770" d="M0 662v71h618v-71H0zm0 120v72h618v-72H0z"/><glyph unicode="—" horiz-adv-x="770" d="M0 662v71h618v-71H0zm0 120v72h618v-72H0z"/><glyph unicode="‘" horiz-adv-x="323" d="M0 1204v309h193v-309H0zm72 72h49v164H72v-164z"/><glyph unicode="’" horiz-adv-x="323" d="M0 1204v309h193v-309H0zm72 72h49v164H72v-164z"/><glyph unicode="“" horiz-adv-x="579" d="M0 1204v309h193v-309H0zm72 72h49v164H72v-164zm213-72v309h192v-309H285zm71 72h50v164h-50v-164z"/><glyph unicode="”" horiz-adv-x="579" d="M0 1204v309h193v-309H0zm72 72h49v164H72v-164zm213-72v309h192v-309H285zm71 72h50v164h-50v-164z"/><glyph unicode="•" horiz-adv-x="1705"/><glyph unicode="…" horiz-adv-x="1142" d="M0 2v217h193V2H0zm72 72h49v71H72V74zM381 2v217h192V2H381zm72 72h49v71h-49V74zM762 2v217h192V2H762zm72 72h49v71h-49V74z"/><glyph horiz-adv-x="389"/><glyph horiz-adv-x="485"/><glyph unicode="™" horiz-adv-x="2045"/><glyph unicode="" horiz-adv-x="1510" d="M0 1510h1510V0H0v1510z"/><glyph unicode="ﬁ" horiz-adv-x="1175" d="M0 0v1509h625v-73H72V0H0zm121 0v731h504v-74H193V0h-72zm0 778v611h504v-74H193V852h432v-74H121zM823 2v1509h72V2h-72zm121 0v1509h72V2h-72z"/><glyph unicode="ﬂ" horiz-adv-x="1490" d="M0 0v1509h625v-73H72V0H0zm121 0v731h504v-74H193V0h-72zm0 778v611h504v-74H193V852h432v-74H121zM762 2v1509h72V74h585V2H762zm121 121v1388h71V195h465v-72H883z"/><glyph unicode="ﬃ" horiz-adv-x="1937" d="M0 0v1509h625v-73H72V0H0zm121 0v731h504v-74H193V0h-72zm0 778v611h504v-74H193V852h432v-74H121zM762 0v1509h624v-73H834V0h-72zm121 0v731h503v-74H954V0h-71zm0 778v611h503v-74H954V852h432v-74H883zM1585 2v1509h72V2h-72zm121 0v1509h72V2h-72z"/><glyph unicode="ﬄ" horiz-adv-x="2252" d="M0 0v1509h625v-73H72V0H0zm121 0v731h504v-74H193V0h-72zm0 778v611h504v-74H193V852h432v-74H121zM762 0v1509h624v-73H834V0h-72zm121 0v731h503v-74H954V0h-71zm0 778v611h503v-74H954V852h432v-74H883zM1524 2v1509h71V74h586V2h-657zm121 121v1388h71V195h465v-72h-536z"/></font>
</defs>
</svg>
