<svg xmlns="http://www.w3.org/2000/svg"><defs><font horiz-adv-x="829"><font-face units-per-em="2048" ascent="1536" descent="-512"/><glyph horiz-adv-x="630"/><glyph horiz-adv-x="630"/><glyph horiz-adv-x="630"/><glyph unicode="!" horiz-adv-x="299" d="M0 4v217h193V4H0zm0 330v1179h193V334H0z"/><glyph unicode="&quot;" horiz-adv-x="579" d="M0 1200v309h193v-309H0zm285 0v309h192v-309H285z"/><glyph unicode="#" horiz-adv-x="1169" d="M-41 467v195h311l37 192H23v195h323l90 464h197l-90-464h157l88 464h197l-88-464h233V854H860l-39-192h246V467H784L694 0H498l90 467H430L338 0H141l90 467H-41zm508 195h158l39 192H506z"/><glyph unicode="$" horiz-adv-x="729" d="M0 1032q0 78 19.5 142.5T74 1290q55 76 149 109v114h195v-112q53-16 88-42t57-52q78-100 78-275v-96H446v96q0 109-34 154-10 10-30 21.5t-63 11.5-68.5-22.5T212 1143t-16-62.5-3-48.5q0-39 10-65.5t28.5-47 44-37T332 852q10-4 19-9t18-12q12-4 24-10 27-12 70-35.5t82-63.5 67.5-100.5T641 473q0-154-78-254-57-78-145-102V0H223v115q-53 14-89 40.5T78 209Q0 305 0 481v99h193v-99q0-109 36-151 8-10 27.5-22.5T319 295q41 0 67 18.5t39 46 17 58.5 4 55q0 39-10 65.5t-27.5 45-42 33T313 645q-29 10-43 21-4 4-11 7t-15 7l-70 39q-41 23-80 63Q0 882 0 1032z"/><glyph unicode="%" horiz-adv-x="1259" d="M0 1022v176q0 55 17.5 101.5t48 80 73.5 52 92 18.5q102 0 168-70.5t66-181.5v-176q0-55-17.5-101.5t-48-80-73.5-52-95-18.5q-100 0-165.5 70.5T0 1022zm193 0q0-59 38.5-59t38.5 59v176q0 59-38.5 59t-38.5-59v-176zM199 4l559 1509h207L406 4H199zm495 311v177q0 111 65.5 181T928 743q49 0 92-18t73.5-52 48-80 17.5-101V315q0-55-17.5-101t-48-80-73.5-52.5T928 63q-102 0-168 70.5T694 315zm195 0q0-59 39-59t39 59v177q0 59-39 59t-39-59V315z"/><glyph unicode="&" horiz-adv-x="1036" d="M0 408q0 80 19.5 140t51 106 70.5 82l78 69 15.5 12 13.5 12q-18 31-38 70t-36 84-27.5 91-11.5 93q0 152 43 232 63 115 197 114 145 0 205-133 23-49 27.5-106t4.5-107q0-86-21.5-166.5T528 852l-18-29q-8-12-16-22l161-275q4 35 4 69v161h195v-99q0-76-9-177t-48-197L971 4H741l-65 102Q557 4 375 4q-84 0-156 32T96 127Q0 242 0 408zm193 0q0-37 10-75t31.5-67.5 56.5-49 84-19.5q131 0 198 82L350 664l-6-7-63-56q-29-26-48.5-53.5t-29.5-61-10-78.5zm137 759q0-41 15-88t38-90q14 35 24.5 79t10.5 99v26q0 17-2 36.5t-5 39-10 34.5q-4 10-8 13t-18.5 3-17.5-2-7-8q-8-14-14-45t-6-97z"/><glyph unicode="'" horiz-adv-x="323" d="M0 1200v309h193v-309H0z"/><glyph unicode="(" horiz-adv-x="421" d="M0 739q0 362 98 576 41 86 78 123t49 45l105-162q2 0 4 2l-23-26q-23-26-49-91t-47.5-179T193 739q0-166 20-275.5t45-174 47.5-92T332 166L227 2q-12 8-49 43t-78 121Q49 270 24.5 414.5T0 739z"/><glyph unicode=")" horiz-adv-x="438" d="M0 162l23 25q23 26 48 91.5t46.5 178T139 745q0 166-19.5 275.5t-44 174.5-47 92.5T2 1319l104 164q12-8 49.5-43t77.5-121q100-209 101-574 0-180-24.5-324.5T233 170q-39-86-75.5-123T109 2L4 164q-2 0-4-2z"/><glyph unicode="*" horiz-adv-x="753" d="M0 1210l68 181 172-64v184h192v-184l172 64 68-181-170-63 129-148-146-127-149 168-150-168L41 999l129 148z"/><glyph unicode="+" horiz-adv-x="935" d="M0 662v192h299v299h195V854h299V662H494V360H299v302H0z"/><glyph unicode="," horiz-adv-x="323" d="M0 6v211h193v-395z"/><glyph unicode="-" horiz-adv-x="770" d="M0 662v192h629V662H0z"/><glyph unicode="." horiz-adv-x="380" d="M0 0v217h193V0H0z"/><glyph unicode="/" horiz-adv-x="854" d="M0 0l559 1509h207L207 0H0z"/><glyph unicode="0" horiz-adv-x="770" d="M0 436v641q0 195 72 303 84 129 247.5 129T567 1380q74-109 74-303V436q0-195-74-305Q483 0 319.5 0T72 131Q0 243 0 436zm193 0q0-92 15-141t35.5-71.5 42-26.5 34-4 34 4 42 26.5T431 295t15 141v641q0 90-15 138.5t-35.5 71-42 26.5-34 4-34-4-42-26.5-35.5-71-15-138.5V436z"/><glyph unicode="1" horiz-adv-x="563" d="M0 1165l242 344h186V0H236v1159l-86-119z"/><glyph unicode="2" horiz-adv-x="737" d="M0 0v96q0 94 17.5 171t50 148.5T143 557l97 150 79 110 53 72q24 33 40 66.5t25 71.5 9 87q0 18-4 52t-17 68-38 58.5-68 24.5q-16 0-37.5-3t-42-22.5T206 1229t-13-121v-98H0v98q0 184 76 287 29 41 87 77.5t156 36.5q70 0 128.5-27.5T547 1404t65.5-122 26.5-158h2v-16h-2q-2-72-16.5-128t-37-104.5T535 785l-60-83-37-50-37-54-77-119q-35-53-59.5-101t-40-92-23.5-93h440V0H0z"/><glyph unicode="3" horiz-adv-x="737" d="M0 430v96h193v-96q0-86 13-130t27-64q10-16 29-29.5t57-13.5q45 0 71 30.5t38 69.5 15 76 3 51q0 68-20 113t-48 72.5-59.5 39.5-52.5 12h-96 2v193h94q20 0 52 12t60 40 48 73 20 112q0 8-3 45t-15 78-37.5 74-71.5 33q-12 0-33.5-4t-42-26.5-35.5-71-15-138.5v-96H0v96q0 195 72 303 86 129 247.5 129T569 1370q72-113 72-283 0-125-42-203.5T512 764l-10-10q4-2 5-4t5-7q45-41 87-119.5T641 420q0-84-18.5-154.5T569 139Q481 0 319 0 159 0 72 127q-35 55-53.5 130T0 430z"/><glyph unicode="4" horiz-adv-x="778" d="M0 422v192l471 895h176V0H455v422H0zm221 192h234v451z"/><glyph unicode="5" horiz-adv-x="761" d="M0 322v32h193v-32q0-12 6-35t21.5-43.5 39-35.5 60-15 61.5 23.5 39 59 20 75.5 6 73v147q0 80-12 123t-26 62q-10 16-29 27.5T319.5 795t-59-13.5T231 756q-39-51-38-152v-67H0v972h641v-192H193V965q57 25 126 24 100 0 160-40t88-81q74-109 74-297V424q0-168-72-281-43-70-107.5-106.5T319 0q-72 0-133 28.5T80 111q-39 45-59.5 100.5T0 322z"/><glyph unicode="6" horiz-adv-x="753" d="M0 387v606q0 225 68 355 41 78 105.5 119.5T319 1509q78 0 140.5-28.5T565 1395q76-104 76-265v-65H446v65q0 100-36 148-10 12-30 25.5t-61 13.5q-43 0-67.5-37t-37.5-89-17-106.5-4-91.5v-14q55 29 126 29 162 0 248-123 74-109 74-301V432q0-96-23.5-176T552 118.5t-101.5-88T319 0Q163 0 76 119 0 219 0 387zm193 0q0-102 38-154 10-12 29-26t59-14q37 0 62 24.5t39 61 20 78.5 6 75v152q0 86-14 133t-33.5 68.5-42 25.5-37.5 4q-45 0-69.5-31.5T213 712t-16-77-4-49V387z"/><glyph unicode="7" horiz-adv-x="878" d="M0 1317v192h793v-182L236 0H25l555 1317H0z"/><glyph unicode="8" horiz-adv-x="794" d="M0 426q0 203 78 305 4 6 9 12.5t9 12.5q-6 6-18 22Q0 880 0 1085q0 203 78 306 86 119 264 118 176 0 264-118 78-106 78-306 0-201-78-307-12-16-18-22l18-25q78-106 78-305 0-104-19.5-179T606 119Q516 0 342 0 166 0 78 119 0 223 0 426zm193 0q0-88 14-135t35.5-68.5 48-25.5 51.5-4 50.5 4 47 25.5T475 291t14 135q0 86-12 130t-26 62q-10 14-33 27.5T342 659t-75.5-13-33.5-28q-14-18-27-62t-13-130zm0 659q0-88 14-135t35.5-68.5 48-25.5 51.5-4 50.5 4 47 25.5T475 950t14 135q0 86-14 133.5t-35.5 69-47 25.5-50.5 4-51.5-4-48-25.5-35.5-69-14-133.5z"/><glyph unicode="9" horiz-adv-x="753" d="M0 930v151q0 172 72 287 43 70 106.5 105.5T319 1509q160 0 246-114 76-104 76-269V514q0-113-17.5-202T573 160Q532 82 466.5 41T319 0q-78 0-140 30.5T74 121Q0 225 0 397v66h193v-66q0-78 15-118.5t36.5-60 42-22.5 32.5-3q41 0 67 33.5t39 82.5 17 104.5 4 100.5v14q-61-29-127-28-162 0-245 125Q0 735 0 930zm193 0q0-88 14-136.5t33.5-70 41-25.5 37.5-4q45 0 71 32t38 73 15 78.5 3 50.5v198q0 72-15 111t-35.5 56.5-42 20.5-34.5 3q-47 0-72.5-34t-37.5-75-14-79.5-2-47.5V930z"/><glyph unicode=":" horiz-adv-x="299" d="M0 334v284h193V334H0zm0 563v285h193V897H0z"/><glyph unicode=";" horiz-adv-x="323" d="M0 422v196h193V227zm0 475v285h193V897H0z"/><glyph unicode="<" horiz-adv-x="1705"/><glyph unicode="=" horiz-adv-x="1705" d="M0 436v193h629V436H0zm0 451v192h629V887H0z"/><glyph unicode=">" horiz-adv-x="1705"/><glyph unicode="?" horiz-adv-x="745" d="M0 995v97q0 186 74 294 86 123 245 123 78 0 142.5-35.5T569 1368q66-104 70-258h2v-18h-2q-2-82-27.5-151T552 818t-71-95l-63-68-25-24q-23-29-26.5-74T363 434V332H168v102q0 45 1 89t8 84 23.5 77 45.5 72q8 8 16 17t19 20l49 51q29 31 54.5 69.5t42.5 86 19 102.5q0 31-7 68.5t-21.5 70.5-38 54.5T319 1317q-14 0-35.5-3t-42-24.5T207 1222t-14-130v-97H0zM168 0v217h192V0H168z"/><glyph unicode="@" horiz-adv-x="1417" d="M-29 805q41 254 207 424 74 76 167 126t198 72q73 15 144 16 25 0 50-2 96-7 182.5-40t158-89.5T1200 1178q35-57 57.5-130t28.5-155q1-22 1-44 0-55-7-109-10-75-37-138-25-66-78-119t-125-90q-70-35-138-46-30-5-58-5-35 0-66 8-84 25-116 96-29-4-55.5-5t-49.5-1q-141 0-211 80-58 66-58 178 0 31 5 66 18 147 90 225 82 92 225 92 29 0 60.5-3t66.5-13l2 22 193-32-17-97-4-25-10-65-14-87-17-95q-8-47-14-87t-10-62q14 0 35.5 4t50.5 16q49 20 85 51t48 66q18 45 26 99 5 35 4 69 0 20-1 40-4 54-17.5 104t-38.5 87q-35 51-83 90t-107.5 60.5T719 1249q-15 1-30 1-53 0-107-11-168-35-280-158T162 774q-9-58-10-111 0-96 31-176 48-123 171-196 78-47 173-69 77-17 156-17 19 0 38 1 98 5 192.5 36.5T1083 330l78 55 115-156-78-57Q1087 94 954 53T682 12q-117 0-226.5 28T252 127Q88 225 14 393q-55 122-54 270-1 68 11 142zm512-64q-3-26-2-45 0-38 11-49 4-4 20-9t45-5q72 0 84 12 10 10 23.5 47T694 821q3 21 4 32 0 13-4 19-6 4-27.5 9.5T608 887q-23 0-42-4t-35.5-18.5-29-43.5-18.5-80z"/><glyph unicode="A" horiz-adv-x="894" d="M0 0l348 1509h154L854 0H653l-96 422H295L199 0H0zm340 614h172l-86 371z"/><glyph unicode="B" horiz-adv-x="770" d="M0 0v1509h291q193 0 282-114 88-102 89-310 0-205-89-311-4-6-16-18 12-12 16-21 88-106 89-311 0-207-89-309Q481 0 291 0H0zm193 852h98q66 0 94.5 15.5T424 897q43 51 43 188 0 80-13.5 126t-37 70-56 30-69.5 6h-98V852zm0-659h98q37 0 69.5 6t56 29.5 37 69.5T467 424q0 82-14.5 129t-38 70.5-55 29.5-68.5 6h-98V193z"/><glyph unicode="C" horiz-adv-x="794" d="M0 432v647q0 201 86 312 33 41 97.5 79.5t175 38.5 174-38.5T629 1391q88-113 88-312v-96H522v96q0 88-17.5 137.5t-43 71-54 25.5-49.5 4q-23 0-50-4t-54-25.5-44-71-17-137.5V432q0-133 47-192 10-14 36.5-30.5t82-16.5 81 16 37.5 31q45 61 45 192v96h195v-96q0-199-88-311-33-41-96.5-81T358 0q-55 0-98 11.5T183.5 40 126 78.5 86 121Q0 231 0 432z"/><glyph unicode="D" horiz-adv-x="802" d="M0 0v1509h301q195 0 293-120 90-109 90-316V438q0-207-90-317Q496 0 301 0H0zm193 193h108q37 0 71 7t59.5 31.5T473 305t16 133v635q0 84-16 133t-41.5 74-59.5 31-71 6H193V193z"/><glyph unicode="E" horiz-adv-x="761" d="M0 0v1509h625v-192H193V852h432V659H193V193h432V0H0z"/><glyph unicode="F" horiz-adv-x="761" d="M0 0v1509h625v-192H193V852h432V659H193V0H0z"/><glyph unicode="G" horiz-adv-x="845" d="M0 430v651q0 203 88 312 92 117 270 116 180 0 273-116 88-109 88-312v-96H524v96q0 82-14 129t-37.5 71-53.5 30-60.5 6-60.5-6-53.5-30-37.5-71-14-129V430q0-90 17-138t44-69.5 54.5-25.5 50-4 51 4 54 25.5 43 69.5T524 430v115H291v194h428V430q0-203-88-311-33-41-97.5-80T358 0Q249 0 185 39t-97 80Q0 227 0 430z"/><glyph unicode="H" horiz-adv-x="837" d="M0 0v1509h193V852h290v657h195V0H483v657H193V0H0z"/><glyph unicode="I" horiz-adv-x="413" d="M61 0v1509h193V0H61z"/><glyph unicode="J" d="M0 401v99h193v-99q0-78 15-120.5t37.5-62 47-22.5 45.5-3q51 0 73.5 13t32.5 27q39 49 39 168v1108h193V401q0-188-82-290-29-37-90.5-74T338 0Q236 0 174.5 37T82 111Q0 213 0 401z"/><glyph unicode="K" horiz-adv-x="919" d="M0 549l2 4v958h193V852l428 659h231L395 805 840 2H618L274 621l-79-125V2H2v547H0z"/><glyph unicode="L" horiz-adv-x="729" d="M0 2v1509h193V195h464V2H0z"/><glyph unicode="M" horiz-adv-x="1101" d="M0 2v1509h170L475 449l303 1062h170V2H756v723L547 2H401L193 725V2H0z"/><glyph unicode="N" horiz-adv-x="870" d="M0 2v1509h162l368-913v913h195V2H561L193 915V2H0z"/><glyph unicode="O" d="M0 432v649q0 201 86 312 16 20 40 40.5t57.5 38T260 1500t98 11q111 0 175.5-38.5T631 1393q86-111 86-312V432q0-201-86-311-33-41-97.5-80T358 2Q249 2 184 41t-98 80Q0 231 0 432zm193 0q0-90 17-138t44-69.5 54.5-25.5 49.5-4q20 0 49 4t55.5 25.5 44 69.5T524 432v649q0 88-17.5 136.5t-44 70-55 25.5-49.5 4q-23 0-50-4t-54-25.5-44-70-17-136.5V432z"/><glyph unicode="P" horiz-adv-x="786" d="M0 2v1509h313q193 0 293-112 92-109 92-312 0-207-92-313-98-115-293-115H193V2H0zm193 852h120q80 0 109 18.5t37 28.5q45 47 45 186 0 74-12.5 119t-36 69.5-59.5 33-83 8.5H193V854z"/><glyph unicode="Q" d="M0 438v649q0 137 37 221.5t91 129.5 116.5 59 113.5 14q49 0 111.5-14t118-59 92.5-129 37-222V438q0-172-66-280L858-90H606L508 29q-31-12-68-20.5T358 0q-55 0-98 11.5T183.5 41 126 81.5 86 125Q0 237 0 438zm193 0q0-135 47-194 12-16 37.5-32.5T358 195h15L227 375h242l43-53q10 51 10 116v649q0 80-14 125t-38 69-52.5 30-59 6-60.5-6-53.5-30-37.5-69-14-125V438z"/><glyph unicode="R" horiz-adv-x="854" d="M0 2v1509h313q195 0 293-114 90-104 90-316 0-209-90-317-4-4-9-10t-11-11q55-53 84.5-126.5T700 449V2H506v447q0 199-193 198H193V2H0zm193 840h120q78 0 108 18.5t38 28.5q45 57 45 192 0 76-12.5 122t-36 71.5-59.5 34-83 8.5H193V842z"/><glyph unicode="S" horiz-adv-x="813" d="M0 430v96h193v-96q0-133 47-190 10-14 36.5-29.5T360 195q55 0 88 23.5t50.5 57T521 349t5 71q0 53-16 90t-43 62.5-59.5 43T342 647l-37 17q-33 14-83 39.5T123 776Q0 895 0 1079q0 96 25.5 176T99 1391.5t115 88 146 31.5q111 0 175.5-38.5T633 1393q88-113 88-314v-96H526v96q0 88-17 137.5t-44 71-55.5 25.5-49.5 4q-59 0-91.5-28.5t-50-68.5-21.5-80-4-61q0-53 16-91t43-65.5 60.5-47T383 842l33-15q29-12 79-35.5t99-70.5q127-117 127-301 0-174-86-289Q535 2 360 2 180 2 88 119 0 227 0 430z"/><glyph unicode="T" horiz-adv-x="944" d="M0 1317v194h854v-194H524V2H330v1315H0z"/><glyph unicode="U" d="M0 403v1108h193V403q0-78 15-120.5t37.5-62 47-22.5 45-3 45.5 3 47.5 22.5T468 283t15 120v1108h193V403q0-188-82-288-31-41-92.5-77T338 2 174.5 38 82 115Q0 215 0 403z"/><glyph unicode="V" horiz-adv-x="944" d="M0 1511h199L451 498l256 1013h198L526 2H375z"/><glyph unicode="W" horiz-adv-x="1474" d="M0 1509h199l213-962 213 962h155l211-962 213 962h199L1069 0H913L702 965 489 0H334z"/><glyph unicode="X" horiz-adv-x="1019" d="M0 0l356 756L6 1509h215l244-526 250 526h215L571 756 926 0H713L465 528 215 0H0z"/><glyph unicode="Y" horiz-adv-x="1036" d="M-61 1509h221l305-553 307 553h221L561 731V0H369v731z"/><glyph unicode="Z" horiz-adv-x="935" d="M0 1317v192h778v-186L250 193h561V0H33v188l528 1129H0z"/><glyph unicode="[" horiz-adv-x="1705"/><glyph unicode="\" horiz-adv-x="786" d="M0 1509h207L766 0H559z"/><glyph unicode="]" horiz-adv-x="1705"/><glyph unicode="^" horiz-adv-x="1705"/><glyph unicode="_" horiz-adv-x="952" d="M0 0h956v-74H0V0zm0-121h956v-74H0v74z"/><glyph unicode="`" horiz-adv-x="323" d="M0 1204v309h193v-309H0zm72 72h49v164H72v-164z"/><glyph unicode="a" horiz-adv-x="894" d="M0 0l348 1509h154L854 0H653l-96 422H295L199 0H0zm340 614h172l-86 371z"/><glyph unicode="b" horiz-adv-x="770" d="M0 0v1509h291q193 0 282-114 88-102 89-310 0-205-89-311-4-6-16-18 12-12 16-21 88-106 89-311 0-207-89-309Q481 0 291 0H0zm193 852h98q66 0 94.5 15.5T424 897q43 51 43 188 0 80-13.5 126t-37 70-56 30-69.5 6h-98V852zm0-659h98q37 0 69.5 6t56 29.5 37 69.5T467 424q0 82-14.5 129t-38 70.5-55 29.5-68.5 6h-98V193z"/><glyph unicode="c" horiz-adv-x="794" d="M0 432v647q0 201 86 312 33 41 97.5 79.5t175 38.5 174-38.5T629 1391q88-113 88-312v-96H522v96q0 88-17.5 137.5t-43 71-54 25.5-49.5 4q-23 0-50-4t-54-25.5-44-71-17-137.5V432q0-133 47-192 10-14 36.5-30.5t82-16.5 81 16 37.5 31q45 61 45 192v96h195v-96q0-199-88-311-33-41-96.5-81T358 0q-55 0-98 11.5T183.5 40 126 78.5 86 121Q0 231 0 432z"/><glyph unicode="d" horiz-adv-x="802" d="M0 0v1509h301q195 0 293-120 90-109 90-316V438q0-207-90-317Q496 0 301 0H0zm193 193h108q37 0 71 7t59.5 31.5T473 305t16 133v635q0 84-16 133t-41.5 74-59.5 31-71 6H193V193z"/><glyph unicode="e" horiz-adv-x="761" d="M0 0v1509h625v-192H193V852h432V659H193V193h432V0H0z"/><glyph unicode="f" horiz-adv-x="761" d="M0 0v1509h625v-192H193V852h432V659H193V0H0z"/><glyph unicode="g" horiz-adv-x="845" d="M0 430v651q0 203 88 312 92 117 270 116 180 0 273-116 88-109 88-312v-96H524v96q0 82-14 129t-37.5 71-53.5 30-60.5 6-60.5-6-53.5-30-37.5-71-14-129V430q0-90 17-138t44-69.5 54.5-25.5 50-4 51 4 54 25.5 43 69.5T524 430v115H291v194h428V430q0-203-88-311-33-41-97.5-80T358 0Q249 0 185 39t-97 80Q0 227 0 430z"/><glyph unicode="h" horiz-adv-x="837" d="M0 0v1509h193V852h290v657h195V0H483v657H193V0H0z"/><glyph unicode="i" horiz-adv-x="413" d="M61 0v1509h193V0H61z"/><glyph unicode="j" d="M0 401v99h193v-99q0-78 15-120.5t37.5-62 47-22.5 45.5-3q51 0 73.5 13t32.5 27q39 49 39 168v1108h193V401q0-188-82-290-29-37-90.5-74T338 0Q236 0 174.5 37T82 111Q0 213 0 401z"/><glyph unicode="k" horiz-adv-x="919" d="M0 549l2 4v958h193V852l428 659h231L395 805 840 2H618L274 621l-79-125V2H2v547H0z"/><glyph unicode="l" horiz-adv-x="729" d="M0 2v1509h193V195h464V2H0z"/><glyph unicode="m" horiz-adv-x="1101" d="M0 2v1509h170L475 449l303 1062h170V2H756v723L547 2H401L193 725V2H0z"/><glyph unicode="n" horiz-adv-x="870" d="M0 2v1509h162l368-913v913h195V2H561L193 915V2H0z"/><glyph unicode="o" d="M0 432v649q0 201 86 312 16 20 40 40.5t57.5 38T260 1500t98 11q111 0 175.5-38.5T631 1393q86-111 86-312V432q0-201-86-311-33-41-97.5-80T358 2Q249 2 184 41t-98 80Q0 231 0 432zm193 0q0-90 17-138t44-69.5 54.5-25.5 49.5-4q20 0 49 4t55.5 25.5 44 69.5T524 432v649q0 88-17.5 136.5t-44 70-55 25.5-49.5 4q-23 0-50-4t-54-25.5-44-70-17-136.5V432z"/><glyph unicode="p" horiz-adv-x="786" d="M0 2v1509h313q193 0 293-112 92-109 92-312 0-207-92-313-98-115-293-115H193V2H0zm193 852h120q80 0 109 18.5t37 28.5q45 47 45 186 0 74-12.5 119t-36 69.5-59.5 33-83 8.5H193V854z"/><glyph unicode="q" d="M0 438v649q0 137 37 221.5t91 129.5 116.5 59 113.5 14q49 0 111.5-14t118-59 92.5-129 37-222V438q0-172-66-280L858-90H606L508 29q-31-12-68-20.5T358 0q-55 0-98 11.5T183.5 41 126 81.5 86 125Q0 237 0 438zm193 0q0-135 47-194 12-16 37.5-32.5T358 195h15L227 375h242l43-53q10 51 10 116v649q0 80-14 125t-38 69-52.5 30-59 6-60.5-6-53.5-30-37.5-69-14-125V438z"/><glyph unicode="r" horiz-adv-x="854" d="M0 2v1509h313q195 0 293-114 90-104 90-316 0-209-90-317-4-4-9-10t-11-11q55-53 84.5-126.5T700 449V2H506v447q0 199-193 198H193V2H0zm193 840h120q78 0 108 18.5t38 28.5q45 57 45 192 0 76-12.5 122t-36 71.5-59.5 34-83 8.5H193V842z"/><glyph unicode="s" horiz-adv-x="813" d="M0 430v96h193v-96q0-133 47-190 10-14 36.5-29.5T360 195q55 0 88 23.5t50.5 57T521 349t5 71q0 53-16 90t-43 62.5-59.5 43T342 647l-37 17q-33 14-83 39.5T123 776Q0 895 0 1079q0 96 25.5 176T99 1391.5t115 88 146 31.5q111 0 175.5-38.5T633 1393q88-113 88-314v-96H526v96q0 88-17 137.5t-44 71-55.5 25.5-49.5 4q-59 0-91.5-28.5t-50-68.5-21.5-80-4-61q0-53 16-91t43-65.5 60.5-47T383 842l33-15q29-12 79-35.5t99-70.5q127-117 127-301 0-174-86-289Q535 2 360 2 180 2 88 119 0 227 0 430z"/><glyph unicode="t" horiz-adv-x="944" d="M0 1317v194h854v-194H524V2H330v1315H0z"/><glyph unicode="u" d="M0 403v1108h193V403q0-78 15-120.5t37.5-62 47-22.5 45-3 45.5 3 47.5 22.5T468 283t15 120v1108h193V403q0-188-82-288-31-41-92.5-77T338 2 174.5 38 82 115Q0 215 0 403z"/><glyph unicode="v" horiz-adv-x="944" d="M0 1511h199L451 498l256 1013h198L526 2H375z"/><glyph unicode="w" horiz-adv-x="1474" d="M0 1509h199l213-962 213 962h155l211-962 213 962h199L1069 0H913L702 965 489 0H334z"/><glyph unicode="x" horiz-adv-x="1019" d="M0 0l356 756L6 1509h215l244-526 250 526h215L571 756 926 0H713L465 528 215 0H0z"/><glyph unicode="y" horiz-adv-x="1036" d="M-61 1509h221l305-553 307 553h221L561 731V0H369v731z"/><glyph unicode="z" horiz-adv-x="935" d="M0 1317v192h778v-186L250 193h561V0H33v188l528 1129H0z"/><glyph unicode="{" horiz-adv-x="1705"/><glyph unicode="|" horiz-adv-x="413" d="M61 0v1509h193V0H61z"/><glyph unicode="}" horiz-adv-x="1705"/><glyph unicode="~" horiz-adv-x="1705"/><glyph unicode="©" horiz-adv-x="1705"/><glyph unicode="ª" horiz-adv-x="894" d="M0 0l348 1509h154L854 0H653l-96 422H295L199 0H0zm340 614h172l-86 371z"/><glyph unicode="­" horiz-adv-x="770" d="M0 662v192h629V662H0z"/><glyph unicode="®" horiz-adv-x="1705"/><glyph unicode="²" horiz-adv-x="737" d="M0 0v96q0 94 17.5 171t50 148.5T143 557l97 150 79 110 53 72q24 33 40 66.5t25 71.5 9 87q0 18-4 52t-17 68-38 58.5-68 24.5q-16 0-37.5-3t-42-22.5T206 1229t-13-121v-98H0v98q0 184 76 287 29 41 87 77.5t156 36.5q70 0 128.5-27.5T547 1404t65.5-122 26.5-158h2v-16h-2q-2-72-16.5-128t-37-104.5T535 785l-60-83-37-50-37-54-77-119q-35-53-59.5-101t-40-92-23.5-93h440V0H0z"/><glyph unicode="³" horiz-adv-x="737" d="M0 430v96h193v-96q0-86 13-130t27-64q10-16 29-29.5t57-13.5q45 0 71 30.5t38 69.5 15 76 3 51q0 68-20 113t-48 72.5-59.5 39.5-52.5 12h-96 2v193h94q20 0 52 12t60 40 48 73 20 112q0 8-3 45t-15 78-37.5 74-71.5 33q-12 0-33.5-4t-42-26.5-35.5-71-15-138.5v-96H0v96q0 195 72 303 86 129 247.5 129T569 1370q72-113 72-283 0-125-42-203.5T512 764l-10-10q4-2 5-4t5-7q45-41 87-119.5T641 420q0-84-18.5-154.5T569 139Q481 0 319 0 159 0 72 127q-35 55-53.5 130T0 430z"/><glyph unicode="¹" horiz-adv-x="563" d="M0 1165l242 344h186V0H236v1159l-86-119z"/><glyph unicode="º" d="M0 432v649q0 201 86 312 16 20 40 40.5t57.5 38T260 1500t98 11q111 0 175.5-38.5T631 1393q86-111 86-312V432q0-201-86-311-33-41-97.5-80T358 2Q249 2 184 41t-98 80Q0 231 0 432zm193 0q0-90 17-138t44-69.5 54.5-25.5 49.5-4q20 0 49 4t55.5 25.5 44 69.5T524 432v649q0 88-17.5 136.5t-44 70-55 25.5-49.5 4q-23 0-50-4t-54-25.5-44-70-17-136.5V432z"/><glyph unicode="À" horiz-adv-x="894" d="M0 0l348 1509h154L854 0H653l-96 422H295L199 0H0zm328 1634v310h192v-310H328zm12-1020h172l-86 371zm59 1092h50v164h-50v-164z"/><glyph unicode="Â" horiz-adv-x="894" d="M0 0l348 1509h154L854 0H653l-96 422H295L199 0H0zm340 614h172l-86 371z"/><glyph unicode="Ã" horiz-adv-x="894" d="M0 0l348 1509h154L854 0H653l-96 422H295L199 0H0zm340 614h172l-86 371z"/><glyph unicode="Å" horiz-adv-x="894" d="M0 0l348 1509h154L854 0H653l-96 422H295L199 0H0zm340 614h172l-86 371z"/><glyph unicode="È" horiz-adv-x="761" d="M0 0v1509h625v-192H193V852h432V659H193V193h432V0H0zm217 1634v310h193v-310H217zm72 72h49v164h-49v-164z"/><glyph unicode="Ê" horiz-adv-x="761" d="M0 0v1509h625v-192H193V852h432V659H193V193h432V0H0z"/><glyph unicode="Ì" horiz-adv-x="413" d="M61 0v1509h193V0H61zm0 1634v310h193v-310H61zm72 72h49v164h-49v-164z"/><glyph unicode="Î" horiz-adv-x="413" d="M61 0v1509h193V0H61z"/><glyph unicode="Ñ" horiz-adv-x="870" d="M0 2v1509h162l368-913v913h195V2H561L193 915V2H0z"/><glyph unicode="Ò" d="M0 432v649q0 201 86 312 16 20 40 40.5t57.5 38T260 1500t98 11q111 0 175.5-38.5T631 1393q86-111 86-312V432q0-201-86-311-33-41-97.5-80T358 2Q249 2 184 41t-98 80Q0 231 0 432zm193 0q0-90 17-138t44-69.5 54.5-25.5 49.5-4q20 0 49 4t55.5 25.5 44 69.5T524 432v649q0 88-17.5 136.5t-44 70-55 25.5-49.5 4q-23 0-50-4t-54-25.5-44-70-17-136.5V432zm69 1202v310h193v-310H262zm72 72h49v164h-49v-164z"/><glyph unicode="Ô" d="M0 432v649q0 201 86 312 16 20 40 40.5t57.5 38T260 1500t98 11q111 0 175.5-38.5T631 1393q86-111 86-312V432q0-201-86-311-33-41-97.5-80T358 2Q249 2 184 41t-98 80Q0 231 0 432zm193 0q0-90 17-138t44-69.5 54.5-25.5 49.5-4q20 0 49 4t55.5 25.5 44 69.5T524 432v649q0 88-17.5 136.5t-44 70-55 25.5-49.5 4q-23 0-50-4t-54-25.5-44-70-17-136.5V432z"/><glyph unicode="Õ" d="M0 432v649q0 201 86 312 16 20 40 40.5t57.5 38T260 1500t98 11q111 0 175.5-38.5T631 1393q86-111 86-312V432q0-201-86-311-33-41-97.5-80T358 2Q249 2 184 41t-98 80Q0 231 0 432zm193 0q0-90 17-138t44-69.5 54.5-25.5 49.5-4q20 0 49 4t55.5 25.5 44 69.5T524 432v649q0 88-17.5 136.5t-44 70-55 25.5-49.5 4q-23 0-50-4t-54-25.5-44-70-17-136.5V432z"/><glyph unicode="Ù" d="M0 403v1108h193V403q0-78 15-120.5t37.5-62 47-22.5 45-3 45.5 3 47.5 22.5T468 283t15 120v1108h193V403q0-188-82-288-31-41-92.5-77T338 2 174.5 38 82 115Q0 215 0 403zm242 1231v310h192v-310H242zm71 72h49v164h-49v-164z"/><glyph unicode="Û" d="M0 403v1108h193V403q0-78 15-120.5t37.5-62 47-22.5 45-3 45.5 3 47.5 22.5T468 283t15 120v1108h193V403q0-188-82-288-31-41-92.5-77T338 2 174.5 38 82 115Q0 215 0 403z"/><glyph unicode="à" horiz-adv-x="894" d="M0 0l348 1509h154L854 0H653l-96 422H295L199 0H0zm328 1634v310h192v-310H328zm12-1020h172l-86 371zm59 1092h50v164h-50v-164z"/><glyph unicode="â" horiz-adv-x="894" d="M0 0l348 1509h154L854 0H653l-96 422H295L199 0H0zm340 614h172l-86 371z"/><glyph unicode="ã" horiz-adv-x="894" d="M0 0l348 1509h154L854 0H653l-96 422H295L199 0H0zm340 614h172l-86 371z"/><glyph unicode="å" horiz-adv-x="894" d="M0 0l348 1509h154L854 0H653l-96 422H295L199 0H0zm340 614h172l-86 371z"/><glyph unicode="è" horiz-adv-x="761" d="M0 0v1509h625v-192H193V852h432V659H193V193h432V0H0zm217 1634v310h193v-310H217zm72 72h49v164h-49v-164z"/><glyph unicode="ê" horiz-adv-x="761" d="M0 0v1509h625v-192H193V852h432V659H193V193h432V0H0z"/><glyph unicode="ì" horiz-adv-x="413" d="M61 0v1509h193V0H61zm0 1634v310h193v-310H61zm72 72h49v164h-49v-164z"/><glyph unicode="î" horiz-adv-x="413" d="M61 0v1509h193V0H61z"/><glyph unicode="ñ" horiz-adv-x="870" d="M0 2v1509h162l368-913v913h195V2H561L193 915V2H0z"/><glyph unicode="ò" d="M0 432v649q0 201 86 312 16 20 40 40.5t57.5 38T260 1500t98 11q111 0 175.5-38.5T631 1393q86-111 86-312V432q0-201-86-311-33-41-97.5-80T358 2Q249 2 184 41t-98 80Q0 231 0 432zm193 0q0-90 17-138t44-69.5 54.5-25.5 49.5-4q20 0 49 4t55.5 25.5 44 69.5T524 432v649q0 88-17.5 136.5t-44 70-55 25.5-49.5 4q-23 0-50-4t-54-25.5-44-70-17-136.5V432zm69 1202v310h193v-310H262zm72 72h49v164h-49v-164z"/><glyph unicode="ô" d="M0 432v649q0 201 86 312 16 20 40 40.5t57.5 38T260 1500t98 11q111 0 175.5-38.5T631 1393q86-111 86-312V432q0-201-86-311-33-41-97.5-80T358 2Q249 2 184 41t-98 80Q0 231 0 432zm193 0q0-90 17-138t44-69.5 54.5-25.5 49.5-4q20 0 49 4t55.5 25.5 44 69.5T524 432v649q0 88-17.5 136.5t-44 70-55 25.5-49.5 4q-23 0-50-4t-54-25.5-44-70-17-136.5V432z"/><glyph unicode="õ" d="M0 432v649q0 201 86 312 16 20 40 40.5t57.5 38T260 1500t98 11q111 0 175.5-38.5T631 1393q86-111 86-312V432q0-201-86-311-33-41-97.5-80T358 2Q249 2 184 41t-98 80Q0 231 0 432zm193 0q0-90 17-138t44-69.5 54.5-25.5 49.5-4q20 0 49 4t55.5 25.5 44 69.5T524 432v649q0 88-17.5 136.5t-44 70-55 25.5-49.5 4q-23 0-50-4t-54-25.5-44-70-17-136.5V432z"/><glyph unicode="ù" d="M0 403v1108h193V403q0-78 15-120.5t37.5-62 47-22.5 45-3 45.5 3 47.5 22.5T468 283t15 120v1108h193V403q0-188-82-288-31-41-92.5-77T338 2 174.5 38 82 115Q0 215 0 403zm242 1231v310h192v-310H242zm71 72h49v164h-49v-164z"/><glyph unicode="û" d="M0 403v1108h193V403q0-78 15-120.5t37.5-62 47-22.5 45-3 45.5 3 47.5 22.5T468 283t15 120v1108h193V403q0-188-82-288-31-41-92.5-77T338 2 174.5 38 82 115Q0 215 0 403z"/><glyph unicode="ı" horiz-adv-x="413" d="M61 0v1509h193V0H61z"/><glyph unicode="Œ" horiz-adv-x="1591" d="M0 432v649q0 201 86 312 16 20 40 40.5t57.5 38T260 1500t98 11q111 0 175.5-38.5T631 1393q86-111 86-312V432q0-201-86-311-33-41-97.5-80T358 2Q249 2 184 41t-98 80Q0 231 0 432zm193 0q0-90 17-138t44-69.5 54.5-25.5 49.5-4q20 0 49 4t55.5 25.5 44 69.5T524 432v649q0 88-17.5 136.5t-44 70-55 25.5-49.5 4q-23 0-50-4t-54-25.5-44-70-17-136.5V432zM829 0v1509h625v-192h-432V852h432V659h-432V193h432V0H829z"/><glyph unicode="œ" horiz-adv-x="1591" d="M0 432v649q0 201 86 312 16 20 40 40.5t57.5 38T260 1500t98 11q111 0 175.5-38.5T631 1393q86-111 86-312V432q0-201-86-311-33-41-97.5-80T358 2Q249 2 184 41t-98 80Q0 231 0 432zm193 0q0-90 17-138t44-69.5 54.5-25.5 49.5-4q20 0 49 4t55.5 25.5 44 69.5T524 432v649q0 88-17.5 136.5t-44 70-55 25.5-49.5 4q-23 0-50-4t-54-25.5-44-70-17-136.5V432zM829 0v1509h625v-192h-432V852h432V659h-432V193h432V0H829z"/><glyph unicode="ˆ" horiz-adv-x="1705"/><glyph unicode="˚" horiz-adv-x="1705"/><glyph unicode="˜" horiz-adv-x="1705"/><glyph horiz-adv-x="970"/><glyph horiz-adv-x="1943"/><glyph horiz-adv-x="970"/><glyph horiz-adv-x="1943"/><glyph horiz-adv-x="647"/><glyph horiz-adv-x="485"/><glyph horiz-adv-x="323"/><glyph horiz-adv-x="323"/><glyph horiz-adv-x="241"/><glyph horiz-adv-x="387"/><glyph horiz-adv-x="106"/><glyph unicode="‐" horiz-adv-x="770" d="M0 662v192h629V662H0z"/><glyph unicode="‑" horiz-adv-x="770" d="M0 662v192h629V662H0z"/><glyph unicode="‒" horiz-adv-x="770" d="M0 662v192h629V662H0z"/><glyph unicode="–" horiz-adv-x="770" d="M0 662v192h629V662H0z"/><glyph unicode="—" horiz-adv-x="770" d="M0 662v192h629V662H0z"/><glyph unicode="‘" horiz-adv-x="323" d="M0 1200v309h193v-309H0z"/><glyph unicode="’" horiz-adv-x="323" d="M0 1200v309h193v-309H0z"/><glyph unicode="“" horiz-adv-x="579" d="M0 1200v309h193v-309H0zm285 0v309h192v-309H285z"/><glyph unicode="”" horiz-adv-x="579" d="M0 1200v309h193v-309H0zm285 0v309h192v-309H285z"/><glyph unicode="•" horiz-adv-x="1705"/><glyph unicode="…" horiz-adv-x="1142" d="M0 0v217h193V0H0zm381 0v217h192V0H381zm381 0v217h192V0H762z"/><glyph horiz-adv-x="387"/><glyph horiz-adv-x="485"/><glyph unicode="™" horiz-adv-x="2045"/><glyph unicode="" horiz-adv-x="1510" d="M0 1510h1510V0H0v1510z"/><glyph unicode="ﬁ" horiz-adv-x="1175" d="M0 0v1509h625v-192H193V852h432V659H193V0H0zm823 0v1509h193V0H823z"/><glyph unicode="ﬂ" horiz-adv-x="1490" d="M0 0v1509h625v-192H193V852h432V659H193V0H0zm762 2v1509h192V195h465V2H762z"/><glyph unicode="ﬃ" horiz-adv-x="1937" d="M0 0v1509h625v-192H193V852h432V659H193V0H0zm762 0v1509h624v-192H954V852h432V659H954V0H762zm823 0v1509h193V0h-193z"/><glyph unicode="ﬄ" horiz-adv-x="2252" d="M0 0v1509h625v-192H193V852h432V659H193V0H0zm762 0v1509h624v-192H954V852h432V659H954V0H762zm762 2v1509h192V195h465V2h-657z"/></font>
</defs>
</svg>
