<svg xmlns="http://www.w3.org/2000/svg"><defs><font horiz-adv-x="712"><font-face units-per-em="2048" ascent="1536" descent="-512"/><glyph horiz-adv-x="430"/><glyph horiz-adv-x="430"/><glyph horiz-adv-x="430"/><glyph unicode="!" horiz-adv-x="190" d="M20 33v24q0 12 9.5 21.5t24 9.5T77 79t9-22V33Q86 0 53 0T20 33zm0 200v1117q0 12 9.5 21t24 9 23.5-9 9-21V233q0-33-33-33t-33 33z"/><glyph unicode="&quot;" horiz-adv-x="331" d="M23 1233v117q0 14 9 23t21 9q33 0 33-32v-117q0-12-9-21.5t-24-9.5q-12 0-21 9.5t-9 21.5zm120 0v117q0 33 33 32.5t33-32.5v-117q0-12-9.5-21.5T176 1202t-23.5 9.5-9.5 21.5z"/><glyph unicode="#" horiz-adv-x="1110" d="M-41 496q0 14 9 23t22 9h268l64 324H55q-14 0-23 9t-9 22q0 33 32 32h279l86 441q4 12 14 20 7 5 15 6 4 0 8-2 14-4 22-14t4-23l-84-428h289l86 441q4 12 14 20 7 5 16 6 4 0 9-2 12-4 20.5-14t4.5-23l-84-428h215q33 0 32-32 0-12-9-21.5t-23-9.5H741l-63-324h227q12 0 21.5-9t9.5-23q0-12-9-22.5T905 463H666L580 27q-4-27-31-27h-6q-31 6-27 39l84 424H311L225 27q-6-27-32-27h-7q-12 4-20 14.5T162 39l84 424H-10q-12 0-21.5 10.5T-41 496zm365 32h288l64 324H387z"/><glyph unicode="$" horiz-adv-x="655" d="M27 965q0 133 63 219 59 84 160 94v72q0 12 9 21t23.5 9 23.5-9 9-21v-70q41-4 81-20.5t72-52.5 51.5-95T539 965q0-33-33-33t-33 33q0 74-14.5 121t-37 74.5-50 38.5-56.5 15V700q4-2 7.5-3t7.5-3q27-12 63.5-32.5T462 608t54.5-82T539 406q0-133-64-216-59-78-160-90V33q0-33-32.5-33T250 33v67q-41 4-81 20.5T97.5 172t-51 93.5T27 414q0 33 32.5 32.5T92 414q0-74 14.5-121t37-75 50-40 56.5-14v498q-4 2-7 4t-7 4l-63 35q-36 20-68.5 54t-55 84T27 965zm65 0q0-53 14.5-91t38-64 51-44 54.5-31v479q-43-6-73-30.5t-49-59-27.5-75.5-8.5-84zm223-799q76 10 117 72.5T473 406q0 53-15.5 89.5t-38 62.5-51 42L315 629V166z"/><glyph unicode="%" horiz-adv-x="919" d="M0 922v176q0 84 47 136t121 52 121-52 47-136V922q0-84-47-136.5T168 733 47 785.5 0 922zm63 0q0-43 24-83t81-40 79.5 40 22.5 83v176q0 43-22.5 83t-79.5 40-81-40-24-83V922zM95 20q-2 6-2 12 0 7 3 13l590 1317q10 19 28 19 7 0 15-3 27-14 16-43L156 18Q146 0 125 0q-8 0-12 2-13 6-18 18zm407 261v176q0 84 46 135t122 51q74 0 120-51t46-135V281q0-84-46.5-136.5T670 92q-76 0-122 52.5T502 281zm63 0q0-43 22.5-84t82.5-41q57 0 79.5 41t22.5 84v176q0 20-5 41.5t-17.5 40-32 30-48 11.5-49-11.5-33-30-17.5-40-5-41.5V281z"/><glyph unicode="&" horiz-adv-x="878" d="M-2 340q0 68 16.5 119t44 92 63.5 74l73 63 35 32 36 32q-14 20-36.5 59t-43 86-36 99.5T135 1100q0 137 35 200 43 80 137 80 106 0 148-94 18-41 22-92t4-94q0-74-14-133.5T431.5 862t-44-74.5T348 741l270-460q27 78 34 160.5t7 148.5q0 14 9.5 23.5T690 623q33 0 33-33 0-78-10.5-180.5T659 215q0-2-2-4l97-162q4-8 4-17 0-4-1-8-3-13-16-20-8-4-16-4-16 0-27 16l-77 131Q517 0 307 0 168 0 80 100-2 195-2 340zm65 0q0-51 14.5-101.5t44.5-89T198 87t109-24q193 0 277 146L301 694l-32-27-31-28-69-59q-32-29-55.5-63t-37-77T63 340zm136 760q0-41 12-85t30.5-85 38-76 33.5-57q8 10 18.5 24.5T352 852q66 109 66 248 0 68-8.5 109.5t-22.5 66-34.5 33-45.5 8.5q-20 0-39.5-7t-35-30-24.5-65.5-9-114.5z"/><glyph unicode="'" horiz-adv-x="165" d="M23 1233v117q0 14 9 23t21 9q33 0 33-32v-117q0-12-9-21.5t-24-9.5q-12 0-21 9.5t-9 21.5z"/><glyph unicode="(" horiz-adv-x="339" d="M18 690q0 209 30 341t66 209 66 107l33 31q6 4 14 6 3 1 7 1t8-1q8-2 14-12 6-12 6-21 0-6-2-12-4-8-10-14-12-10-27-27-12-14-26.5-36.5T166 1204q-29-66-56.5-188.5T82 690t27.5-324.5T166 180q31-66 55-94 12-16 27-25 8-4 12-12 4-7 4-14 0-9-6-19T244 3q-5-2-9-2-3 0-6 1-8 2-14 6-4 2-36 31t-66 104Q18 338 18 690z"/><glyph unicode=")" horiz-adv-x="323" d="M23 49q4 8 12 12 10 8 24 25l26 37q15 23 32 57 14 31 28.5 77T172 365.5 192.5 508t8.5 182q0 203-28 326t-56 188q-31 68-56.5 94.5T33 1325h2q-6 6-10 14-4 6-5.5 14.5T27 1372q6 10 14 12 4 1 7.5 1t6.5-1q8-2 15-6 2-2 33.5-31.5T170 1240t64.5-209T264 690q0-350-92-547-37-76-68.5-104.5T68 8q-8-4-17-6-3-1-6-1-12 0-20 15-7 9-8 17 1 8 6 16z"/><glyph unicode="*" horiz-adv-x="604" d="M25 1212q4 12 16 18.5t25 .5l167-62v179q0 33 33 32.5t33-32.5v-179l168 62q12 6 24.5 0t16.5-19q2-5 2-11 0-7-3-13-5-12-18-17l-167-63 127-143q10-10 8-22.5T444 920q-8-8-20-9-14 0-25 11l-133 151-133-151q-10-10-24.5-10.5T86 920q-10 10-11 22t9 23l127 143-168 63q-12 4-17 17-3 7-3 13t2 11z"/><glyph unicode="+" horiz-adv-x="786" d="M12 686q0 33 33 33h266v266q0 33 33 33t33-33V719h266q33 0 33-33t-33-33H377V387q0-33-33-33t-33 33v266H45q-33 0-33 33z"/><glyph unicode="," horiz-adv-x="174" d="M23-47V57q0 33 32.5 33T88 57V-47q0-33-32.5-33T23-47z"/><glyph unicode="-" horiz-adv-x="612" d="M14 692q0 33 33 33h436q12 0 21.5-9t9.5-23.5-9-24-22-9.5H47q-33 0-33 33z"/><glyph unicode="." horiz-adv-x="165" d="M29 33v24q0 12 9 21.5T61.5 88 85 79t9-22V33Q94 0 61.5 0T29 33z"/><glyph unicode="/" horiz-adv-x="786" d="M61 43l484 1317q8 21 27 21 7 0 16-3 12-4 17-16 3-7 3-14 0-5-2-11L123 20Q113 0 92 0q-8 0-12 2-12 4-18 16-3 7-2 14-1 6 1 11z"/><glyph unicode="0" horiz-adv-x="729" d="M20 367v649q0 176 72 270 76 94 221 94 147 0 222-94 74-92 73-270V367q0-115-26.5-185.5T512 70t-95-55.5T313 0q-49 0-101 14.5T117 70 47 181.5 20 367zm64 0q0-156 59-232 55-72 170-72 113 0 172 72 57 72 58 232v649q0 158-57.5 229.5T313 1317q-117 0-170-72-59-76-59-229V367z"/><glyph unicode="1" horiz-adv-x="397" d="M10 1115q0 11 8 20l195 235q9 12 22 12 7 0 15-4 20-6 20-28V33q0-33-32.5-33T205 33v1227L68 1092q-10-10-22.5-11.5T23 1087q-13 13-13 28z"/><glyph unicode="2" horiz-adv-x="655" d="M37 33q0 182 47 309 29 78 75 144.5T270 612q213 190 213 439 0 125-51 194-49 72-139 72-96 0-141-64-51-70-52-211 0-14-9-23t-21-9q-33 0-33 32 0 164 61 250 68 88 195 88 125 0 192-98 63-88 64-231 0-276-236-488-106-96-156.5-215T102 63h414q12 0 22.5-9T549 33q0-14-10.5-23.5T516 0H70Q37 0 37 33z"/><glyph unicode="3" horiz-adv-x="620" d="M18 365q0 33 33 32 12 0 21.5-9t9.5-23q0-154 51-230 49-72 141-72 88 0 139.5 80T465 356q0 92-29.5 147.5T377 588q-41 39-84 54t-72 15h-61q-12 0-21.5 9.5T129 688q0 14 9 23.5t22 9.5h61q37 0 80 18.5t79 55 60.5 93T465 1022q0 131-51 215-49 80-140 80-193 0-192-303 0-14-9.5-23.5T51 981q-33 0-33 33 0 174 62 266 63 100 194 100 123 0 195-110 61-96 61-248 0-106-35.5-174T422 745q-41-37-78-57 43-23 78-55 37-35 72.5-101.5T530 356q0-164-69.5-260T274 0Q143 0 80 98q-62 93-62 267z"/><glyph unicode="4" horiz-adv-x="663" d="M12 436q-5 8-5 16.5t5 16.5l494 895q10 18 27 18 5 0 10-2 25-6 24-30V33q0-14-10-23.5T535 0q-33 0-33 33v389H41q-19 0-29 14zm82 49h408v738z"/><glyph unicode="5" horiz-adv-x="634" d="M23 504v846q0 12 9 21t23 9h447q12 0 22.5-9t10.5-21q0-14-10.5-23.5T502 1317H86V756q74 104 193 104 127 0 192-94 63-88 64-260V360q0-72-16.5-136T473 113Q401 0 279 0 152 0 84 96q-61 92-61 264 0 33 32 33 12 0 21.5-9t9.5-24q0-152 51-227 49-70 142-70 86 0 139 84 51 84 51 213v146q0 154-51 223-45 66-139 66-88 0-142-78-51-80-51-211v-2q0-14-9-23.5T55 471q-32 0-32 33z"/><glyph unicode="6" horiz-adv-x="638" d="M16 324v604q0 147 27 237t65.5 137.5 84 62.5 79.5 15q127 0 193-90 63-82 63-225 0-12-9-21.5t-23-9.5q-12 0-22.5 9.5T463 1065q0 121-49 186.5T272 1317q-61 0-99-40t-58.5-99.5-26.5-127T82 928V774q70 104 190 105 131 0 195-95 61-92 61-266V369q0-74-16-139.5T467 115Q399 0 272 0 151 0 83.5 85T16 324zm66 0q0-37 6-82t26.5-85T173 90t99-27q90 0 140 87 27 41 39 97t12 122v149q0 156-49 230-47 68-142 67-90 0-139-82-51-80-51-213V324z"/><glyph unicode="7" horiz-adv-x="770" d="M8 1350q0 12 9.5 21t21.5 9h629q18 0 26-14 6-9 7-19 0-6-3-12L150 20Q140 0 119 0q-8 0-13 2-12 6-17 18.5T90 45l531 1272H39q-12 0-21.5 9.5T8 1350z"/><glyph unicode="8" horiz-adv-x="679" d="M20 360.5Q20 539 86 629q29 41 70 61-41 23-70 62-66 90-66 268t66 268q68 92 213 92 143 0 211-92 66-86 65.5-268T510 752q-29-37-68-62 39-23 68-61 66-86 65.5-268.5T510 92Q442 0 299 0 154 0 86 92q-66 90-66 268.5zm66 0Q86 201 137 131q51-68 162-68t160 68q51 70 51 229.5T459 592q-49 68-160 67.5T137 592q-51-72-51-231.5zm0 659.5q0-160 51-229 51-68 162-68t160 68q51 70 51 229.5T459 1249q-49 68-160 68t-162-68q-51-69-51-229z"/><glyph unicode="9" horiz-adv-x="630" d="M12 334q0 33 33 33t33-33q0-133 49-203 49-68 141-68 59 0 96 36t58.5 92.5 29 125T459 451v155q-33-51-81-78.5T268 500q-127 0-192 96-63 90-64 268v152q0 166 70 265t186 99q127 0 193-88 63-82 63-231V451q0-211-59-326Q399 0 268 0 141 0 76 94q-64 88-64 240zm66 530q0-160 51-231 45-68 139-68 90 0 140 82 25 39 38 94.5T459 862v199q0 127-49 192-47 63-142 64-88 0-139-82-51-84-51-219V864z"/><glyph unicode=":" horiz-adv-x="231" d="M27 367v90q0 33 32 32 12 0 21.5-9t9.5-23v-90q0-14-9-23.5T59 334q-32 0-32 33zm0 563v92q0 12 9 21.5t23 9.5q12 0 21.5-9.5T90 1022v-92q0-14-9-23.5T59 897q-32 0-32 33z"/><glyph unicode=";" horiz-adv-x="198" d="M25 293v164q0 33 32.5 32.5T90 457V293q0-33-32.5-33T25 293zm0 637v92q0 12 9 21.5t23.5 9.5 23.5-9.5 9-21.5v-92q0-33-32.5-33T25 930z"/><glyph unicode="<" horiz-adv-x="1705"/><glyph unicode="=" horiz-adv-x="638" d="M14 487.5Q14 520 47 520h436q12 0 21.5-9t9.5-23.5-9-23.5-22-9H47q-33 0-33 32.5zM14 897q0 33 33 33h436q12 0 21.5-9.5T514 897t-9-23.5-22-9.5H47q-33 0-33 33z"/><glyph unicode=">" horiz-adv-x="1705"/><glyph unicode="?" horiz-adv-x="620" d="M27 1028q0 166 63 258 63 96 193 96 125 0 194-104 31-47 46.5-107.5T539 1038q0-74-17.5-128t-42-94-52.5-66.5-50-44.5l-18-15q-7-6-13-12-41-47-63.5-159.5T260 244v-6q0-14-9-23.5t-22-9.5q-33 0-32 33v6q0 61 3 130.5t14 134 31.5 121T299 721q12 16 37 33l45 41q25 23 45 56.5t33.5 78.5 13.5 108q0 61-12 113.5t-37 89.5q-53 78-141 78-94 0-140-70-51-70-51-221 0-12-9-21.5T59.5 997t-23.5 9.5-9 21.5zM195 35v24q0 12 9 21.5t23.5 9.5 23.5-9 9-22V35q0-33-32.5-33T195 35z"/><glyph unicode="@" horiz-adv-x="1325" d="M31 719q37 233 190 389 68 70 152 115t180 65q66 14 131 14 22 0 44-2 87-6 164-34.5t141.5-78.5 109.5-120q33-51 51-115.5t24-133.5q2-25 1-49 0-44-6-89-9-70-33-131-23-55-69-99t-102.5-74T895 336q-26-5-50-5-28 0-52 7-45 10-67 43-17 25-17 60 0 10 2 20-33-23-71-28t-85-5q-113 0-164 57-42 50-42 142 0 25 3 53 16 127 76 190 63 70 178 70 29 0 76-6t82-31q6-4 16-14 2 8 2 16 4 12 14.5 20.5T819 930q14-2 22.5-12.5T846 893l-4-29q-4-29-12-71l-16-96-17-100-15-86q-6-38-8-54-1-6-1-12 0-35 36-46 8-2 15-3t18-1q33 0 74.5 12.5t81.5 36 73 56 49 73.5q20 53 30 115 6 39 6 80 0 22-2 44-5 62-21.5 119.5T1087 1032q-39 61-95 105.5t-124.5 69T722 1236q-18 1-37 1-59 0-120-12-74-16-148.5-53t-140-100.5-114.5-154T94 709q-10-61-9-117 0-112 38-207 57-141 192-225 86-53 192-76 83-18 167-18 23 0 46 2 108 6 211 38.5t187 94.5q10 8 23.5 6t21.5-12q16-27-6-48-90-63-200.5-101T723 2h-45Q567 2 467 27.5T283 104Q129 200 63 357 19 461 20 588q0 63 11 131zm387-47q-4-29-4-53 0-61 26-91 29-35 115-34 51 0 80 5t47 23q23 23 40 74t32 139q5 29 5 49t-5 32q-10 24-27 34-16 12-48 18t-73 6q-86 0-131-47-45-51-57-155z"/><glyph unicode="A" horiz-adv-x="802" d="M27 39l305 1317q6 25 30 24 27 0 33-24L700 39l2-8q0-8-6-16-8-11-20-15h-8q-25 0-31 25l-92 397H182L90 25Q86 13 75 4q-8-5-16-5-4 0-8 1-14 4-21 15-5 7-5 15 1 5 2 9zm170 446h333l-168 721z"/><glyph unicode="B" horiz-adv-x="688" d="M29 33v1317q0 12 9 21t23 9h195q158 0 233-90 72-90 72-270 0-178-72-268-16-20-34.5-35T414 690q45-23 75-59 72-90 72-270.5T489 90Q413 0 256 0H61Q29 0 29 33zm65 30h162q129 0 184.5 69T496 360.5 438 590q-55 70-182 69H94V63zm0 660h162q127 0 182 70 57 70 58 227 0 160-55.5 228.5T256 1317H94V723z"/><glyph unicode="C" horiz-adv-x="704" d="M20 367v649q0 113 27 184.5t70 111.5 95 54 101 14q51 0 103.5-14t95.5-54 69.5-112 26.5-184q0-33-32.5-33t-32.5 33q0 154-60 229-53 72-170 72-113 0-170-72-59-76-59-229V367q0-154 59-232 59-72 170-72 115 0 170 72 59 78 60 232 0 33 32.5 32.5T608 367q0-115-26.5-185.5T512 70t-95-55.5T313 0q-49 0-101 14.5T117 70 47 181.5 20 367z"/><glyph unicode="D" d="M25 33v1317q0 12 9 21t23 9h203q164 0 244-98 76-90 76-274V373q0-184-76-275Q424 0 260 0H57Q25 0 25 33zm63 30h172q133 0 193.5 75T514 373v635q0 160-60.5 234.5T260 1317H88V63z"/><glyph unicode="E" horiz-adv-x="638" d="M23 33v1317q0 12 9 21t23 9h430q14 0 23.5-9t9.5-21q0-33-33-33H86V723h399q33 0 33-33 0-12-9-21.5t-24-9.5H86V63h399q14 0 23.5-9t9.5-21q0-33-33-33H55Q23 0 23 33z"/><glyph unicode="F" horiz-adv-x="630" d="M31 33v1317q0 12 9 21t23 9h431q14 0 23-9t9-21q0-33-32-33H94V723h400q33 0 32-33 0-12-9-21.5t-23-9.5H94V33q0-14-9-23.5T63 0Q31 0 31 33z"/><glyph unicode="G" horiz-adv-x="720" d="M14 365v653q0 178 74 270t221.5 92 221-92 73.5-270q0-33-32.5-33t-32.5 33q0 100-22.5 159.5t-56.5 90-74 40-77 9.5-78-9.5-74.5-40-56-90T78 1018V365q0-154 59-230 59-72 172-72t172 72q57 72 58 230v180H272q-33 0-32.5 32.5T272 610h299q33 0 33-32V365q0-178-74-271Q454 0 309 0T88 94q-74 93-74 271z"/><glyph unicode="H" horiz-adv-x="704" d="M25 33v1317q0 12 9 21t23.5 9 23.5-9 9-21V723h418v627q0 12 9 21t23.5 9 23.5-9 9-21V33q0-33-32.5-33T508 33v624H90V33Q90 0 57.5 0T25 33z"/><glyph unicode="I" horiz-adv-x="215" d="M37 33v1317q0 12 9 21t23.5 9 23.5-9 9-21V33q0-33-32.5-33T37 33z"/><glyph unicode="J" horiz-adv-x="663" d="M0 338q0 12 9 22.5T33 371q12 0 21-10.5t9-22.5q0-92 20.5-146.5t51.5-83 68-37 71-8.5q102 0 156 64 53 70 53 211v1012q0 12 9.5 21t23.5 9q12 0 21.5-9t9.5-21V338q0-168-68-250Q411 0 274 0T68 88Q0 170 0 338z"/><glyph unicode="K" horiz-adv-x="737" d="M16 33v1317q0 12 9.5 21t23.5 9q12 0 21.5-9t9.5-21V596l516 770q8 12 21 14 3 1 7 1 9 0 17-5 14-11 14-28 0-9-6-17L260 745 651 47q4-6 4-13 0-5-2-10-4-13-14-20-12-4-16-4-18 0-29 16L219 686 80 477V33q0-14-9.5-23.5T49 0Q16 0 16 33z"/><glyph unicode="L" horiz-adv-x="604" d="M10 33v1317q0 12 9.5 21t23.5 9q12 0 21.5-9t9.5-21V63h432q14 0 23.5-9t9.5-21q0-33-33-33H43Q10 0 10 33z"/><glyph unicode="M" horiz-adv-x="968" d="M14 33v1317q0 27 29 30 4 1 7 1 21 0 28-23L424 150l348 1208q7 23 28 23 3 0 7-1 29-4 29-30V33q0-14-10.5-23.5T803 0q-33 0-33 33v1085L457 23q-8-23-33-23-23 0-31 23L80 1118V33Q80 0 47 0T14 33z"/><glyph unicode="N" horiz-adv-x="737" d="M20 33v1317q0 27 27 30 4 1 7 1 21 0 30-21L551 199v1151q0 12 9 21t23.5 9 23.5-9 9-21V33q0-27-26-33h-6q-23 0-29 20L86 1182V33Q86 0 53 0T20 33z"/><glyph unicode="O" d="M20 367v649q0 176 72 270 76 94 221 94 147 0 222-94 74-92 73-270V367q0-115-26.5-185.5T512 70t-95-55.5T313 0q-49 0-101 14.5T117 70 47 181.5 20 367zm64 0q0-156 59-232 55-72 170-72 113 0 172 72 57 72 58 232v649q0 158-57.5 229.5T313 1317q-117 0-170-72-59-76-59-229V367z"/><glyph unicode="P" horiz-adv-x="696" d="M20 33v1317q0 12 9.5 21t23.5 9h217q166 0 244-90 76-88 76-270t-76-270q-78-90-244-91H86V33Q86 0 53 0T20 33zm66 690h184q133 0 195 70 59 68 59 227.5t-59 228-195 68.5H86V723z"/><glyph unicode="Q" d="M14 373v649q0 176 74 266 74 92 219 92 147 0 221-92 72-86 72-266V373q0-180-72-273 0-2-1-2t-1-2l78-94q7-8 7-18 0-17-13-27-6-8-18-8-18 0-27 12l-74 90Q413 0 307 0 162 0 86 100q-72 97-72 273zm64 0q0-156 59-234 57-76 170-76 78 0 131 37l-69 88q-10 10-8.5 22.5T373 233q25 16 45-4l65-82q53 78 54 226v649q0 152-60 227-55 68-169.5 68T137 1249q-59-76-59-227V373z"/><glyph unicode="R" d="M27 35v1317q0 12 9 21t21 9h217q164 0 242-88t78-276q0-186-76-277-33-39-84-61 20-10 37.5-22.5T506 629q90-86 90-244V35q0-33-33-33-12 0-21.5 9T532 35v350q0 127-67.5 195.5T274 649H90V35Q90 2 57 2q-12 0-21 9.5T27 35zm63 678h184q133 0 195 71 59 68 59 234 0 160-59 230.5T274 1319H90V713z"/><glyph unicode="S" horiz-adv-x="720" d="M29 1016q0 156 71 256 80 111 224 110 147 0 223-94 74-92 74-272 0-12-9.5-22.5t-24-10.5-23.5 10.5-9 22.5q0 156-59 231-55 72-172 72-109 0-170-86-61-84-62-217 0-74 24.5-125t60.5-85 75-54.5 70-32.5l32-14 72-35q45-23 88-63t75-100.5T621 356q0-76-19.5-139T547 106Q467 2 324 2 177 2 102 96q-74 92-73 271 0 33 32 32 12 0 21.5-9t9.5-23q0-100 22.5-160t56.5-91.5T246 75t78-9q111 0 171 76.5T555 356q0 74-25.5 124T468 562t-75 50l-63 31-35 16q-31 12-76 36t-87 66-72.5 103.5T29 1016z"/><glyph unicode="T" horiz-adv-x="778" d="M-29 1352q0 12 9.5 21t21.5 9h662q14 0 23-9t9-21q0-33-32-33H367V35q0-14-10.5-23.5T334 2q-33 0-33 33v1284H2q-12 0-21.5 9.5T-29 1352z"/><glyph unicode="U" d="M18 340v1012q0 12 9.5 21t23.5 9q12 0 21.5-9t9.5-21V340q0-92 20.5-146.5t51-83T221 74t72-8q33 0 69.5 8t67.5 36.5 51.5 83T502 340v1012q0 12 9 21t21 9q14 0 23.5-9t9.5-21V340q0-104-24.5-170T476 66.5t-88-51T293 2t-95 13.5-88 51T44 170 18 340z"/><glyph unicode="V" horiz-adv-x="821" d="M12 1343q-1 4-1 9 0 8 4 15 7 11 22 15 4 1 9 2 8 0 14-5 11-7 16-21L373 168l299 1190q4 14 15 21 7 5 15 5 4 0 9-2 12-4 19-15 5-7 5-15 0-4-2-9L406 27q-6-25-33-25-25 0-31 25z"/><glyph unicode="W" horiz-adv-x="1333" d="M10 1343q-1 4-1 9 0 8 5 15 8 11 21 15 4 1 8 1 26 0 31-25L332 184l260 1174q4 25 30.5 24.5T655 1358L913 184l258 1174q4 12 16 19 9 6 18 6 3 0 5-1 14-4 22-15 5-7 4-15 0-4-1-9L944 27q-4-25-30.5-25T883 27L623 1200 365 27q-6-25-33-25-25 0-31 25z"/><glyph unicode="X" horiz-adv-x="802" d="M18 47l306 645-306 643q-2 6-2 12.5t2 13.5q4 13 17 17 10 5 17 5 16 0 26-19l280-596 281 596q6 12 19 16 5 2 11 2 7 0 13-4 12-4 17-17 2-6 3-12 0-7-4-14L395 692 698 47q3-7 4-13 0-6-3-11-5-12-17-19-4-2-12-2-23 0-31 18L358 616 78 20Q68 2 49 2 39 2 35 4 16 14 16 32q-1 7 2 15z"/><glyph unicode="Y" horiz-adv-x="854" d="M7 1359q3 13 16 19 7 4 14 4l10-2q12-4 21-14l331-606 334 606q6 10 20 14 5 2 10 2 7 0 13-4 12-6 17-19 1-4 1-9 0-8-6-15L432 684V33q0-12-9-21.5T399.5 2 376 11t-9 22v651L10 1335q-4 7-4 15 0 5 1 9z"/><glyph unicode="Z" horiz-adv-x="837" d="M6 1349.5q0 32.5 33 32.5h616q18 0 27-14 10-18 2-33L88 66h567q33 0 33-33 0-12-9-21.5T655 2H39Q19 2 10 16q-5 9-4 18 0 7 2 13l596 1270H39q-33 0-33 32.5z"/><glyph unicode="[" horiz-adv-x="1705"/><glyph unicode="\" horiz-adv-x="778" d="M66 1337q-2 5-2 11 0 7 3 14 5 12 17 16 9 3 16 3 20 0 27-21L610 43q2-5 2-11 0-7-3-14-5-12-17-16-4-2-12-2-20 0-31 20z"/><glyph unicode="]" horiz-adv-x="1705"/><glyph unicode="^" horiz-adv-x="1705"/><glyph unicode="_" horiz-adv-x="944" d="M20-33q0 12 9.5 21.5T53-2h762q14 0 23.5-9t9.5-22q0-33-33-33H53q-33 0-33 33z"/><glyph unicode="`" horiz-adv-x="165" d="M23 1233v117q0 14 9 23t21 9q33 0 33-32v-117q0-12-9-21.5t-24-9.5q-12 0-21 9.5t-9 21.5z"/><glyph unicode="a" horiz-adv-x="802" d="M27 39l305 1317q6 25 30 24 27 0 33-24L700 39l2-8q0-8-6-16-8-11-20-15h-8q-25 0-31 25l-92 397H182L90 25Q86 13 75 4q-8-5-16-5-4 0-8 1-14 4-21 15-5 7-5 15 1 5 2 9zm170 446h333l-168 721z"/><glyph unicode="b" horiz-adv-x="688" d="M29 33v1317q0 12 9 21t23 9h195q158 0 233-90 72-90 72-270 0-178-72-268-16-20-34.5-35T414 690q45-23 75-59 72-90 72-270.5T489 90Q413 0 256 0H61Q29 0 29 33zm65 30h162q129 0 184.5 69T496 360.5 438 590q-55 70-182 69H94V63zm0 660h162q127 0 182 70 57 70 58 227 0 160-55.5 228.5T256 1317H94V723z"/><glyph unicode="c" horiz-adv-x="704" d="M20 367v649q0 113 27 184.5t70 111.5 95 54 101 14q51 0 103.5-14t95.5-54 69.5-112 26.5-184q0-33-32.5-33t-32.5 33q0 154-60 229-53 72-170 72-113 0-170-72-59-76-59-229V367q0-154 59-232 59-72 170-72 115 0 170 72 59 78 60 232 0 33 32.5 32.5T608 367q0-115-26.5-185.5T512 70t-95-55.5T313 0q-49 0-101 14.5T117 70 47 181.5 20 367z"/><glyph unicode="d" d="M25 33v1317q0 12 9 21t23 9h203q164 0 244-98 76-90 76-274V373q0-184-76-275Q424 0 260 0H57Q25 0 25 33zm63 30h172q133 0 193.5 75T514 373v635q0 160-60.5 234.5T260 1317H88V63z"/><glyph unicode="e" horiz-adv-x="638" d="M23 33v1317q0 12 9 21t23 9h430q14 0 23.5-9t9.5-21q0-33-33-33H86V723h399q33 0 33-33 0-12-9-21.5t-24-9.5H86V63h399q14 0 23.5-9t9.5-21q0-33-33-33H55Q23 0 23 33z"/><glyph unicode="f" horiz-adv-x="630" d="M31 33v1317q0 12 9 21t23 9h431q14 0 23-9t9-21q0-33-32-33H94V723h400q33 0 32-33 0-12-9-21.5t-23-9.5H94V33q0-14-9-23.5T63 0Q31 0 31 33z"/><glyph unicode="g" horiz-adv-x="720" d="M14 365v653q0 178 74 270t221.5 92 221-92 73.5-270q0-33-32.5-33t-32.5 33q0 100-22.5 159.5t-56.5 90-74 40-77 9.5-78-9.5-74.5-40-56-90T78 1018V365q0-154 59-230 59-72 172-72t172 72q57 72 58 230v180H272q-33 0-32.5 32.5T272 610h299q33 0 33-32V365q0-178-74-271Q454 0 309 0T88 94q-74 93-74 271z"/><glyph unicode="h" horiz-adv-x="704" d="M25 33v1317q0 12 9 21t23.5 9 23.5-9 9-21V723h418v627q0 12 9 21t23.5 9 23.5-9 9-21V33q0-33-32.5-33T508 33v624H90V33Q90 0 57.5 0T25 33z"/><glyph unicode="i" horiz-adv-x="215" d="M37 33v1317q0 12 9 21t23.5 9 23.5-9 9-21V33q0-33-32.5-33T37 33z"/><glyph unicode="j" horiz-adv-x="663" d="M0 338q0 12 9 22.5T33 371q12 0 21-10.5t9-22.5q0-92 20.5-146.5t51.5-83 68-37 71-8.5q102 0 156 64 53 70 53 211v1012q0 12 9.5 21t23.5 9q12 0 21.5-9t9.5-21V338q0-168-68-250Q411 0 274 0T68 88Q0 170 0 338z"/><glyph unicode="k" horiz-adv-x="737" d="M16 33v1317q0 12 9.5 21t23.5 9q12 0 21.5-9t9.5-21V596l516 770q8 12 21 14 3 1 7 1 9 0 17-5 14-11 14-28 0-9-6-17L260 745 651 47q4-6 4-13 0-5-2-10-4-13-14-20-12-4-16-4-18 0-29 16L219 686 80 477V33q0-14-9.5-23.5T49 0Q16 0 16 33z"/><glyph unicode="l" horiz-adv-x="604" d="M10 33v1317q0 12 9.5 21t23.5 9q12 0 21.5-9t9.5-21V63h432q14 0 23.5-9t9.5-21q0-33-33-33H43Q10 0 10 33z"/><glyph unicode="m" horiz-adv-x="968" d="M14 33v1317q0 27 29 30 4 1 7 1 21 0 28-23L424 150l348 1208q7 23 28 23 3 0 7-1 29-4 29-30V33q0-14-10.5-23.5T803 0q-33 0-33 33v1085L457 23q-8-23-33-23-23 0-31 23L80 1118V33Q80 0 47 0T14 33z"/><glyph unicode="n" horiz-adv-x="737" d="M20 33v1317q0 27 27 30 4 1 7 1 21 0 30-21L551 199v1151q0 12 9 21t23.5 9 23.5-9 9-21V33q0-27-26-33h-6q-23 0-29 20L86 1182V33Q86 0 53 0T20 33z"/><glyph unicode="o" d="M20 367v649q0 176 72 270 76 94 221 94 147 0 222-94 74-92 73-270V367q0-115-26.5-185.5T512 70t-95-55.5T313 0q-49 0-101 14.5T117 70 47 181.5 20 367zm64 0q0-156 59-232 55-72 170-72 113 0 172 72 57 72 58 232v649q0 158-57.5 229.5T313 1317q-117 0-170-72-59-76-59-229V367z"/><glyph unicode="p" horiz-adv-x="696" d="M20 33v1317q0 12 9.5 21t23.5 9h217q166 0 244-90 76-88 76-270t-76-270q-78-90-244-91H86V33Q86 0 53 0T20 33zm66 690h184q133 0 195 70 59 68 59 227.5t-59 228-195 68.5H86V723z"/><glyph unicode="q" d="M14 373v649q0 176 74 266 74 92 219 92 147 0 221-92 72-86 72-266V373q0-180-72-273 0-2-1-2t-1-2l78-94q7-8 7-18 0-17-13-27-6-8-18-8-18 0-27 12l-74 90Q413 0 307 0 162 0 86 100q-72 97-72 273zm64 0q0-156 59-234 57-76 170-76 78 0 131 37l-69 88q-10 10-8.5 22.5T373 233q25 16 45-4l65-82q53 78 54 226v649q0 152-60 227-55 68-169.5 68T137 1249q-59-76-59-227V373z"/><glyph unicode="r" d="M27 35v1317q0 12 9 21t21 9h217q164 0 242-88t78-276q0-186-76-277-33-39-84-61 20-10 37.5-22.5T506 629q90-86 90-244V35q0-33-33-33-12 0-21.5 9T532 35v350q0 127-67.5 195.5T274 649H90V35Q90 2 57 2q-12 0-21 9.5T27 35zm63 678h184q133 0 195 71 59 68 59 234 0 160-59 230.5T274 1319H90V713z"/><glyph unicode="s" horiz-adv-x="720" d="M29 1016q0 156 71 256 80 111 224 110 147 0 223-94 74-92 74-272 0-12-9.5-22.5t-24-10.5-23.5 10.5-9 22.5q0 156-59 231-55 72-172 72-109 0-170-86-61-84-62-217 0-74 24.5-125t60.5-85 75-54.5 70-32.5l32-14 72-35q45-23 88-63t75-100.5T621 356q0-76-19.5-139T547 106Q467 2 324 2 177 2 102 96q-74 92-73 271 0 33 32 32 12 0 21.5-9t9.5-23q0-100 22.5-160t56.5-91.5T246 75t78-9q111 0 171 76.5T555 356q0 74-25.5 124T468 562t-75 50l-63 31-35 16q-31 12-76 36t-87 66-72.5 103.5T29 1016z"/><glyph unicode="t" horiz-adv-x="778" d="M-29 1352q0 12 9.5 21t21.5 9h662q14 0 23-9t9-21q0-33-32-33H367V35q0-14-10.5-23.5T334 2q-33 0-33 33v1284H2q-12 0-21.5 9.5T-29 1352z"/><glyph unicode="u" d="M18 340v1012q0 12 9.5 21t23.5 9q12 0 21.5-9t9.5-21V340q0-92 20.5-146.5t51-83T221 74t72-8q33 0 69.5 8t67.5 36.5 51.5 83T502 340v1012q0 12 9 21t21 9q14 0 23.5-9t9.5-21V340q0-104-24.5-170T476 66.5t-88-51T293 2t-95 13.5-88 51T44 170 18 340z"/><glyph unicode="v" horiz-adv-x="821" d="M12 1343q-1 4-1 9 0 8 4 15 7 11 22 15 4 1 9 2 8 0 14-5 11-7 16-21L373 168l299 1190q4 14 15 21 7 5 15 5 4 0 9-2 12-4 19-15 5-7 5-15 0-4-2-9L406 27q-6-25-33-25-25 0-31 25z"/><glyph unicode="w" horiz-adv-x="1333" d="M10 1343q-1 4-1 9 0 8 5 15 8 11 21 15 4 1 8 1 26 0 31-25L332 184l260 1174q4 25 30.5 24.5T655 1358L913 184l258 1174q4 12 16 19 9 6 18 6 3 0 5-1 14-4 22-15 5-7 4-15 0-4-1-9L944 27q-4-25-30.5-25T883 27L623 1200 365 27q-6-25-33-25-25 0-31 25z"/><glyph unicode="x" horiz-adv-x="802" d="M18 47l306 645-306 643q-2 6-2 12.5t2 13.5q4 13 17 17 10 5 17 5 16 0 26-19l280-596 281 596q6 12 19 16 5 2 11 2 7 0 13-4 12-4 17-17 2-6 3-12 0-7-4-14L395 692 698 47q3-7 4-13 0-6-3-11-5-12-17-19-4-2-12-2-23 0-31 18L358 616 78 20Q68 2 49 2 39 2 35 4 16 14 16 32q-1 7 2 15z"/><glyph unicode="y" horiz-adv-x="854" d="M7 1359q3 13 16 19 7 4 14 4l10-2q12-4 21-14l331-606 334 606q6 10 20 14 5 2 10 2 7 0 13-4 12-6 17-19 1-4 1-9 0-8-6-15L432 684V33q0-12-9-21.5T399.5 2 376 11t-9 22v651L10 1335q-4 7-4 15 0 5 1 9z"/><glyph unicode="z" horiz-adv-x="837" d="M6 1349.5q0 32.5 33 32.5h616q18 0 27-14 10-18 2-33L88 66h567q33 0 33-33 0-12-9-21.5T655 2H39Q19 2 10 16q-5 9-4 18 0 7 2 13l596 1270H39q-33 0-33 32.5z"/><glyph unicode="{" horiz-adv-x="1705"/><glyph unicode="|" horiz-adv-x="182" d="M16 33v1317q0 12 9.5 21t23.5 9 23.5-9 9.5-21V33Q82 0 49 0T16 33z"/><glyph unicode="}" horiz-adv-x="1705"/><glyph unicode="~" horiz-adv-x="1705"/><glyph unicode="©" horiz-adv-x="1705"/><glyph unicode="ª" horiz-adv-x="802" d="M27 39l305 1317q6 25 30 24 27 0 33-24L700 39l2-8q0-8-6-16-8-11-20-15h-8q-25 0-31 25l-92 397H182L90 25Q86 13 75 4q-8-5-16-5-4 0-8 1-14 4-21 15-5 7-5 15 1 5 2 9zm170 446h333l-168 721z"/><glyph unicode="­" horiz-adv-x="612" d="M14 692q0 33 33 33h436q12 0 21.5-9t9.5-23.5-9-24-22-9.5H47q-33 0-33 33z"/><glyph unicode="®" horiz-adv-x="1705"/><glyph unicode="²" horiz-adv-x="655" d="M37 33q0 182 47 309 29 78 75 144.5T270 612q213 190 213 439 0 125-51 194-49 72-139 72-96 0-141-64-51-70-52-211 0-14-9-23t-21-9q-33 0-33 32 0 164 61 250 68 88 195 88 125 0 192-98 63-88 64-231 0-276-236-488-106-96-156.5-215T102 63h414q12 0 22.5-9T549 33q0-14-10.5-23.5T516 0H70Q37 0 37 33z"/><glyph unicode="³" horiz-adv-x="620" d="M18 365q0 33 33 32 12 0 21.5-9t9.5-23q0-154 51-230 49-72 141-72 88 0 139.5 80T465 356q0 92-29.5 147.5T377 588q-41 39-84 54t-72 15h-61q-12 0-21.5 9.5T129 688q0 14 9 23.5t22 9.5h61q37 0 80 18.5t79 55 60.5 93T465 1022q0 131-51 215-49 80-140 80-193 0-192-303 0-14-9.5-23.5T51 981q-33 0-33 33 0 174 62 266 63 100 194 100 123 0 195-110 61-96 61-248 0-106-35.5-174T422 745q-41-37-78-57 43-23 78-55 37-35 72.5-101.5T530 356q0-164-69.5-260T274 0Q143 0 80 98q-62 93-62 267z"/><glyph unicode="¹" horiz-adv-x="397" d="M10 1115q0 11 8 20l195 235q9 12 22 12 7 0 15-4 20-6 20-28V33q0-33-32.5-33T205 33v1227L68 1092q-10-10-22.5-11.5T23 1087q-13 13-13 28z"/><glyph unicode="º" d="M20 367v649q0 176 72 270 76 94 221 94 147 0 222-94 74-92 73-270V367q0-115-26.5-185.5T512 70t-95-55.5T313 0q-49 0-101 14.5T117 70 47 181.5 20 367zm64 0q0-156 59-232 55-72 170-72 113 0 172 72 57 72 58 232v649q0 158-57.5 229.5T313 1317q-117 0-170-72-59-76-59-229V367z"/><glyph unicode="À" horiz-adv-x="802" d="M27 39l305 1317q6 25 30 24 27 0 33-24L700 39l2-8q0-8-6-16-8-11-20-15h-8q-25 0-31 25l-92 397H182L90 25Q86 13 75 4q-8-5-16-5-4 0-8 1-14 4-21 15-5 7-5 15 1 5 2 9zm170 446h333l-168 721zm135 1049v117q0 14 9 23t21 9q33 0 33-32v-117q0-12-9-21.5t-24-9.5q-12 0-21 9.5t-9 21.5z"/><glyph unicode="Â" horiz-adv-x="802" d="M27 39l305 1317q6 25 30 24 27 0 33-24L700 39l2-8q0-8-6-16-8-11-20-15h-8q-25 0-31 25l-92 397H182L90 25Q86 13 75 4q-8-5-16-5-4 0-8 1-14 4-21 15-5 7-5 15 1 5 2 9zm170 446h333l-168 721z"/><glyph unicode="Ã" horiz-adv-x="802" d="M27 39l305 1317q6 25 30 24 27 0 33-24L700 39l2-8q0-8-6-16-8-11-20-15h-8q-25 0-31 25l-92 397H182L90 25Q86 13 75 4q-8-5-16-5-4 0-8 1-14 4-21 15-5 7-5 15 1 5 2 9zm170 446h333l-168 721z"/><glyph unicode="Å" horiz-adv-x="802" d="M27 39l305 1317q6 25 30 24 27 0 33-24L700 39l2-8q0-8-6-16-8-11-20-15h-8q-25 0-31 25l-92 397H182L90 25Q86 13 75 4q-8-5-16-5-4 0-8 1-14 4-21 15-5 7-5 15 1 5 2 9zm170 446h333l-168 721z"/><glyph unicode="È" horiz-adv-x="638" d="M23 33v1317q0 12 9 21t23 9h430q14 0 23.5-9t9.5-21q0-33-33-33H86V723h399q33 0 33-33 0-12-9-21.5t-24-9.5H86V63h399q14 0 23.5-9t9.5-21q0-33-33-33H55Q23 0 23 33zm217 1501v117q0 14 9 23t21 9q33 0 33-32v-117q0-12-9-21.5t-24-9.5q-12 0-21 9.5t-9 21.5z"/><glyph unicode="Ê" horiz-adv-x="638" d="M23 33v1317q0 12 9 21t23 9h430q14 0 23.5-9t9.5-21q0-33-33-33H86V723h399q33 0 33-33 0-12-9-21.5t-24-9.5H86V63h399q14 0 23.5-9t9.5-21q0-33-33-33H55Q23 0 23 33z"/><glyph unicode="Ì" horiz-adv-x="215" d="M37 33v1317q0 12 9 21t23.5 9 23.5-9 9-21V33q0-33-32.5-33T37 33zm2 1501v117q0 14 9 23t22 9q33 0 32-32v-117q0-12-9-21.5t-23-9.5q-12 0-21.5 9.5T39 1534z"/><glyph unicode="Î" horiz-adv-x="215" d="M37 33v1317q0 12 9 21t23.5 9 23.5-9 9-21V33q0-33-32.5-33T37 33z"/><glyph unicode="Ñ" horiz-adv-x="737" d="M20 33v1317q0 27 27 30 4 1 7 1 21 0 30-21L551 199v1151q0 12 9 21t23.5 9 23.5-9 9-21V33q0-27-26-33h-6q-23 0-29 20L86 1182V33Q86 0 53 0T20 33z"/><glyph unicode="Ò" d="M20 367v649q0 176 72 270 76 94 221 94 147 0 222-94 74-92 73-270V367q0-115-26.5-185.5T512 70t-95-55.5T313 0q-49 0-101 14.5T117 70 47 181.5 20 367zm64 0q0-156 59-232 55-72 170-72 113 0 172 72 57 72 58 232v649q0 158-57.5 229.5T313 1317q-117 0-170-72-59-76-59-229V367zm199 1167v117q0 14 9 23t21 9q33 0 33-32v-117q0-12-9-21.5t-24-9.5q-12 0-21 9.5t-9 21.5z"/><glyph unicode="Ô" d="M20 367v649q0 176 72 270 76 94 221 94 147 0 222-94 74-92 73-270V367q0-115-26.5-185.5T512 70t-95-55.5T313 0q-49 0-101 14.5T117 70 47 181.5 20 367zm64 0q0-156 59-232 55-72 170-72 113 0 172 72 57 72 58 232v649q0 158-57.5 229.5T313 1317q-117 0-170-72-59-76-59-229V367z"/><glyph unicode="Õ" d="M20 367v649q0 176 72 270 76 94 221 94 147 0 222-94 74-92 73-270V367q0-115-26.5-185.5T512 70t-95-55.5T313 0q-49 0-101 14.5T117 70 47 181.5 20 367zm64 0q0-156 59-232 55-72 170-72 113 0 172 72 57 72 58 232v649q0 158-57.5 229.5T313 1317q-117 0-170-72-59-76-59-229V367z"/><glyph unicode="Ù" d="M18 340v1012q0 12 9.5 21t23.5 9q12 0 21.5-9t9.5-21V340q0-92 20.5-146.5t51-83T221 74t72-8q33 0 69.5 8t67.5 36.5 51.5 83T502 340v1012q0 12 9 21t21 9q14 0 23.5-9t9.5-21V340q0-104-24.5-170T476 66.5t-88-51T293 2t-95 13.5-88 51T44 170 18 340zm242 1196v117q0 14 9.5 23.5t21.5 9.5q33 0 33-33v-117q0-12-9.5-21.5T291 1505q-12 0-21.5 9.5T260 1536z"/><glyph unicode="Û" d="M18 340v1012q0 12 9.5 21t23.5 9q12 0 21.5-9t9.5-21V340q0-92 20.5-146.5t51-83T221 74t72-8q33 0 69.5 8t67.5 36.5 51.5 83T502 340v1012q0 12 9 21t21 9q14 0 23.5-9t9.5-21V340q0-104-24.5-170T476 66.5t-88-51T293 2t-95 13.5-88 51T44 170 18 340z"/><glyph unicode="à" horiz-adv-x="802" d="M27 39l305 1317q6 25 30 24 27 0 33-24L700 39l2-8q0-8-6-16-8-11-20-15h-8q-25 0-31 25l-92 397H182L90 25Q86 13 75 4q-8-5-16-5-4 0-8 1-14 4-21 15-5 7-5 15 1 5 2 9zm170 446h333l-168 721zm135 1049v117q0 14 9 23t21 9q33 0 33-32v-117q0-12-9-21.5t-24-9.5q-12 0-21 9.5t-9 21.5z"/><glyph unicode="â" horiz-adv-x="802" d="M27 39l305 1317q6 25 30 24 27 0 33-24L700 39l2-8q0-8-6-16-8-11-20-15h-8q-25 0-31 25l-92 397H182L90 25Q86 13 75 4q-8-5-16-5-4 0-8 1-14 4-21 15-5 7-5 15 1 5 2 9zm170 446h333l-168 721z"/><glyph unicode="ã" horiz-adv-x="802" d="M27 39l305 1317q6 25 30 24 27 0 33-24L700 39l2-8q0-8-6-16-8-11-20-15h-8q-25 0-31 25l-92 397H182L90 25Q86 13 75 4q-8-5-16-5-4 0-8 1-14 4-21 15-5 7-5 15 1 5 2 9zm170 446h333l-168 721z"/><glyph unicode="å" horiz-adv-x="802" d="M27 39l305 1317q6 25 30 24 27 0 33-24L700 39l2-8q0-8-6-16-8-11-20-15h-8q-25 0-31 25l-92 397H182L90 25Q86 13 75 4q-8-5-16-5-4 0-8 1-14 4-21 15-5 7-5 15 1 5 2 9zm170 446h333l-168 721z"/><glyph unicode="è" horiz-adv-x="638" d="M23 33v1317q0 12 9 21t23 9h430q14 0 23.5-9t9.5-21q0-33-33-33H86V723h399q33 0 33-33 0-12-9-21.5t-24-9.5H86V63h399q14 0 23.5-9t9.5-21q0-33-33-33H55Q23 0 23 33zm217 1501v117q0 14 9 23t21 9q33 0 33-32v-117q0-12-9-21.5t-24-9.5q-12 0-21 9.5t-9 21.5z"/><glyph unicode="ê" horiz-adv-x="638" d="M23 33v1317q0 12 9 21t23 9h430q14 0 23.5-9t9.5-21q0-33-33-33H86V723h399q33 0 33-33 0-12-9-21.5t-24-9.5H86V63h399q14 0 23.5-9t9.5-21q0-33-33-33H55Q23 0 23 33z"/><glyph unicode="ì" horiz-adv-x="215" d="M37 33v1317q0 12 9 21t23.5 9 23.5-9 9-21V33q0-33-32.5-33T37 33zm2 1501v117q0 14 9 23t22 9q33 0 32-32v-117q0-12-9-21.5t-23-9.5q-12 0-21.5 9.5T39 1534z"/><glyph unicode="î" horiz-adv-x="215" d="M37 33v1317q0 12 9 21t23.5 9 23.5-9 9-21V33q0-33-32.5-33T37 33z"/><glyph unicode="ñ" horiz-adv-x="737" d="M20 33v1317q0 27 27 30 4 1 7 1 21 0 30-21L551 199v1151q0 12 9 21t23.5 9 23.5-9 9-21V33q0-27-26-33h-6q-23 0-29 20L86 1182V33Q86 0 53 0T20 33z"/><glyph unicode="ò" d="M20 367v649q0 176 72 270 76 94 221 94 147 0 222-94 74-92 73-270V367q0-115-26.5-185.5T512 70t-95-55.5T313 0q-49 0-101 14.5T117 70 47 181.5 20 367zm64 0q0-156 59-232 55-72 170-72 113 0 172 72 57 72 58 232v649q0 158-57.5 229.5T313 1317q-117 0-170-72-59-76-59-229V367zm199 1167v117q0 14 9 23t21 9q33 0 33-32v-117q0-12-9-21.5t-24-9.5q-12 0-21 9.5t-9 21.5z"/><glyph unicode="ô" d="M20 367v649q0 176 72 270 76 94 221 94 147 0 222-94 74-92 73-270V367q0-115-26.5-185.5T512 70t-95-55.5T313 0q-49 0-101 14.5T117 70 47 181.5 20 367zm64 0q0-156 59-232 55-72 170-72 113 0 172 72 57 72 58 232v649q0 158-57.5 229.5T313 1317q-117 0-170-72-59-76-59-229V367z"/><glyph unicode="õ" d="M20 367v649q0 176 72 270 76 94 221 94 147 0 222-94 74-92 73-270V367q0-115-26.5-185.5T512 70t-95-55.5T313 0q-49 0-101 14.5T117 70 47 181.5 20 367zm64 0q0-156 59-232 55-72 170-72 113 0 172 72 57 72 58 232v649q0 158-57.5 229.5T313 1317q-117 0-170-72-59-76-59-229V367z"/><glyph unicode="ù" d="M18 340v1012q0 12 9.5 21t23.5 9q12 0 21.5-9t9.5-21V340q0-92 20.5-146.5t51-83T221 74t72-8q33 0 69.5 8t67.5 36.5 51.5 83T502 340v1012q0 12 9 21t21 9q14 0 23.5-9t9.5-21V340q0-104-24.5-170T476 66.5t-88-51T293 2t-95 13.5-88 51T44 170 18 340zm242 1196v117q0 14 9.5 23.5t21.5 9.5q33 0 33-33v-117q0-12-9.5-21.5T291 1505q-12 0-21.5 9.5T260 1536z"/><glyph unicode="û" d="M18 340v1012q0 12 9.5 21t23.5 9q12 0 21.5-9t9.5-21V340q0-92 20.5-146.5t51-83T221 74t72-8q33 0 69.5 8t67.5 36.5 51.5 83T502 340v1012q0 12 9 21t21 9q14 0 23.5-9t9.5-21V340q0-104-24.5-170T476 66.5t-88-51T293 2t-95 13.5-88 51T44 170 18 340z"/><glyph unicode="ı" horiz-adv-x="215" d="M37 33v1317q0 12 9 21t23.5 9 23.5-9 9-21V33q0-33-32.5-33T37 33z"/><glyph unicode="Œ" horiz-adv-x="1351" d="M20 367v649q0 176 72 270 76 94 221 94 147 0 222-94 74-92 73-270V367q0-115-26.5-185.5T512 70t-95-55.5T313 0q-49 0-101 14.5T117 70 47 181.5 20 367zm64 0q0-156 59-232 55-72 170-72 113 0 172 72 57 72 58 232v649q0 158-57.5 229.5T313 1317q-117 0-170-72-59-76-59-229V367zM735 33v1317q0 12 9.5 21t23.5 9h430q14 0 23.5-9t9.5-21q0-33-33-33H799V723h399q33 0 33-33 0-12-9.5-21.5T1198 659H799V63h399q14 0 23.5-9t9.5-21q0-33-33-33H768q-33 0-33 33z"/><glyph unicode="œ" horiz-adv-x="1351" d="M20 367v649q0 176 72 270 76 94 221 94 147 0 222-94 74-92 73-270V367q0-115-26.5-185.5T512 70t-95-55.5T313 0q-49 0-101 14.5T117 70 47 181.5 20 367zm64 0q0-156 59-232 55-72 170-72 113 0 172 72 57 72 58 232v649q0 158-57.5 229.5T313 1317q-117 0-170-72-59-76-59-229V367zM735 33v1317q0 12 9.5 21t23.5 9h430q14 0 23.5-9t9.5-21q0-33-33-33H799V723h399q33 0 33-33 0-12-9.5-21.5T1198 659H799V63h399q14 0 23.5-9t9.5-21q0-33-33-33H768q-33 0-33 33z"/><glyph unicode="ˆ" horiz-adv-x="1705"/><glyph unicode="˚" horiz-adv-x="1705"/><glyph unicode="˜" horiz-adv-x="1705"/><glyph horiz-adv-x="841"/><glyph horiz-adv-x="1685"/><glyph horiz-adv-x="841"/><glyph horiz-adv-x="1685"/><glyph horiz-adv-x="561"/><glyph horiz-adv-x="419"/><glyph horiz-adv-x="280"/><glyph horiz-adv-x="280"/><glyph horiz-adv-x="208"/><glyph horiz-adv-x="335"/><glyph horiz-adv-x="92"/><glyph unicode="‐" horiz-adv-x="612" d="M14 692q0 33 33 33h436q12 0 21.5-9t9.5-23.5-9-24-22-9.5H47q-33 0-33 33z"/><glyph unicode="‑" horiz-adv-x="612" d="M14 692q0 33 33 33h436q12 0 21.5-9t9.5-23.5-9-24-22-9.5H47q-33 0-33 33z"/><glyph unicode="‒" horiz-adv-x="612" d="M14 692q0 33 33 33h436q12 0 21.5-9t9.5-23.5-9-24-22-9.5H47q-33 0-33 33z"/><glyph unicode="–" horiz-adv-x="612" d="M27 657v64h499v-64H27z"/><glyph unicode="—" horiz-adv-x="612" d="M27 657v64h499v-64H27z"/><glyph unicode="‘" horiz-adv-x="165" d="M23 1233v117q0 14 9 23t21 9q33 0 33-32v-117q0-12-9-21.5t-24-9.5q-12 0-21 9.5t-9 21.5z"/><glyph unicode="’" horiz-adv-x="165" d="M23 1233v117q0 14 9 23t21 9q33 0 33-32v-117q0-12-9-21.5t-24-9.5q-12 0-21 9.5t-9 21.5z"/><glyph unicode="“" horiz-adv-x="331" d="M23 1233v117q0 14 9 23t21 9q33 0 33-32v-117q0-12-9-21.5t-24-9.5q-12 0-21 9.5t-9 21.5zm120 0v117q0 33 33 32.5t33-32.5v-117q0-12-9.5-21.5T176 1202t-23.5 9.5-9.5 21.5z"/><glyph unicode="”" horiz-adv-x="331" d="M23 1233v117q0 14 9 23t21 9q33 0 33-32v-117q0-12-9-21.5t-24-9.5q-12 0-21 9.5t-9 21.5zm120 0v117q0 33 33 32.5t33-32.5v-117q0-12-9.5-21.5T176 1202t-23.5 9.5-9.5 21.5z"/><glyph unicode="•" horiz-adv-x="1705"/><glyph unicode="…" horiz-adv-x="497" d="M29 33v24q0 12 9 21.5T61.5 88 85 79t9-22V33Q94 0 61.5 0T29 33zm166 0v24q0 12 9 21.5t23.5 9.5 23.5-9 9-22V33q0-33-32.5-33T195 33zm165 0v24q0 12 9.5 21.5t24 9.5 23.5-9 9-22V33q0-33-33-33t-33 33z"/><glyph horiz-adv-x="335"/><glyph horiz-adv-x="419"/><glyph unicode="™" horiz-adv-x="1746"/><glyph unicode="" horiz-adv-x="1385" d="M0 1385h1385V0H0v1385z"/><glyph unicode="ﬁ" horiz-adv-x="845" d="M31 33v1317q0 12 9 21t23 9h431q14 0 23-9t9-21q0-33-32-33H94V723h400q33 0 32-33 0-12-9-21.5t-23-9.5H94V33q0-14-9-23.5T63 0Q31 0 31 33zm637 0v1317q0 12 9 21t23.5 9 23.5-9 9-21V33q0-33-32.5-33T668 33z"/><glyph unicode="ﬂ" horiz-adv-x="1234" d="M31 33v1317q0 12 9 21t23 9h431q14 0 23-9t9-21q0-33-32-33H94V723h400q33 0 32-33 0-12-9-21.5t-23-9.5H94V33q0-14-9-23.5T63 0Q31 0 31 33zm610 0v1317q0 12 9 21t24 9q12 0 21.5-9t9.5-21V63h432q14 0 23-9t9-21q0-33-32-33H674q-33 0-33 33z"/><glyph unicode="ﬃ" horiz-adv-x="1476" d="M31 33v1317q0 12 9 21t23 9h431q14 0 23-9t9-21q0-33-32-33H94V723h400q33 0 32-33 0-12-9-21.5t-23-9.5H94V33q0-14-9-23.5T63 0Q31 0 31 33zm631 0v1317q0 12 9 21t23 9h430q14 0 23.5-9t9.5-21q0-33-33-33H725V723h399q33 0 33-33 0-12-9-21.5t-24-9.5H725V33q0-14-9-23.5T694 0q-32 0-32 33zm636 0v1317q0 12 9.5 21t24 9 23.5-9 9-21V33q0-33-33-33t-33 33z"/><glyph unicode="ﬄ" horiz-adv-x="1865" d="M31 33v1317q0 12 9 21t23 9h431q14 0 23-9t9-21q0-33-32-33H94V723h400q33 0 32-33 0-12-9-21.5t-23-9.5H94V33q0-14-9-23.5T63 0Q31 0 31 33zm631 0v1317q0 12 9 21t23 9h430q14 0 23.5-9t9.5-21q0-33-33-33H725V723h399q33 0 33-33 0-12-9-21.5t-24-9.5H725V33q0-14-9-23.5T694 0q-32 0-32 33zm610 0v1317q0 12 9 21t24 9q12 0 21-9t9-21V63h432q14 0 23.5-9t9.5-21q0-33-33-33h-462q-33 0-33 33z"/></font>
</defs>
</svg>
