<svg xmlns="http://www.w3.org/2000/svg"><defs><font horiz-adv-x="1705"><font-face units-per-em="2048" ascent="1536" descent="-512"/><glyph horiz-adv-x="430"/><glyph horiz-adv-x="430"/><glyph horiz-adv-x="430"/><glyph unicode="!" horiz-adv-x="100" d="M8 0v33h10V0H8zm0 201v1126h10V201H8z"/><glyph unicode="&quot;" horiz-adv-x="256" d="M2 1184v127h10v-127H2zm123 0v127h10v-127h-10z"/><glyph unicode="#" horiz-adv-x="1040" d="M12 463v10h295l74 379H78v8h305l92 467h8l-90-467h346l90 467h11l-92-467h253v-8H745l-73-379h264v-10H670L580 0h-11l93 463H315L223 0h-8l90 463H12zm305 10h347l73 379H391z"/><glyph unicode="$" horiz-adv-x="591" d="M10 387v6h10v-6q0-141 56-209 51-66 157-69v542l-13 8.5-15 8.5q-27 12-60.5 31.5t-63.5 50T30.5 825 10 934v8q2 129 61.5 206t161.5 79v100h11v-100q223-4 223-289v-4h-10v4q0 139-56 211-55 68-157 68V657q6-4 12-7l14-7 58-30q33-17 62.5-46.5t51-71.5T467 393v-26q-6-123-65.5-194T244 100V0h-11v100Q10 104 10 387zm10 551q0-63 19.5-107.5t48.5-74 61.5-49T209 676q6-4 13-6t11-6v553q-98-2-155.5-77T20 938zm224-829q96 4 153.5 75.5T457 379q0 61-20.5 104T387 555t-61.5 48.5T266 635q-16 8-22 12V109z"/><glyph unicode="%" horiz-adv-x="923" d="M53 895v180q2 59 35 106.5t100 49.5h11q72-2 103.5-51.5T334 1071V895q0-59-32-108.5T199 733h-11q-70 4-102.5 53.5T53 895zm10 0q0-57 32-104.5t99.5-47.5 99.5 47.5T326 895v176q0 55-32 102.5t-99.5 47.5-99.5-47.5T63 1071V895zM199 0l487 1327h10L209 0h-10zm356 252v182q2 57 34 104.5T690 588v2h10v-2q70-2 103-51.5T836 428V252q0-59-33-108.5T700 92h-10q-72 2-103.5 51.5T555 252zm10 0q0-55 31-102.5t98.5-47.5 99 47.5T825 252v176q0 57-31.5 104.5t-99 47.5-98.5-47.5T565 428V252z"/><glyph unicode="&" horiz-adv-x="778" d="M10 313q0 63 15.5 110.5t41 85.5 59.5 69.5 71 62.5l45 38q23 19 45 42-8 10-31 46t-47.5 86-44 107.5T145 1073q0 129 33 189 35 66 115 65 88 0 121-78 16-39 20-87t4-89q0-94-23.5-160.5T367 805q-23-37-42.5-58.5T299 719l307-526q2 4 2 6t2 6q39 86 49.5 185T670 563v6h10v-6q0-76-10.5-175T621 201q-4-4-5.5-9.5T610 182L717 0h-10L606 174Q512 2 297 0h-10Q160 4 84 92q-35 41-54.5 98T10 313zm10 0q0-135 75-219t198-84q215 0 307 172L291 713q-23-23-44.5-42.5T203 633q-37-31-70-61.5T74.5 504t-40-83.5T20 313zm136 760q0-53 18.5-109.5t42-105.5 45.5-84l31-47q8 8 30.5 33.5t45 68.5 41 103.5T428 1073q0 47-4 91t-18.5 78-41 54.5T293 1317q-72 0-104.5-57.5T156 1073z"/><glyph unicode="'" horiz-adv-x="100" d="M2 1184v127h10v-127H2z"/><glyph unicode="(" horiz-adv-x="235" d="M-2 662q0 211 29.5 339.5T88 1198q35 74 63 100l29 29 4 2 6-8-4-2q-14-10-28-27l-29-40q-16-24-33-58-31-68-59.5-196T8 662q0-211 29-337t59-192q16-35 32.5-58.5T158 37q14-16 28-27l4-2-6-8-4 2q-2 2-29.5 27.5T88 127q-31 66-60.5 194T-2 662z"/><glyph unicode=")" horiz-adv-x="206" d="M8 1321l4 8 4-2 30-29q28-27 63-100 33-68 62.5-197T201 662q0-106-8.5-190.5t-21.5-150T141.5 208 109 127Q74 55 46 29.5T16 2l-4-2-4 8 4 2q14 10 29 27 12 14 27.5 37.5T100 133q31 66 60.5 192T190 662q0 209-29.5 336.5T100 1194q-16 35-31.5 58.5T41 1292q-14 16-29 27z"/><glyph unicode="*" horiz-adv-x="456" d="M10 1155l4 10 209-78v224h10v-224l209 78 4-10-208-78 155-176-8-6-156 178L72 895l-9 6 158 176z"/><glyph unicode="+" horiz-adv-x="655" d="M2 657v11h299v299h10V668h299v-11H311V358h-10v299H2z"/><glyph unicode="," horiz-adv-x="108" d="M14 33h11V-82H14V33z"/><glyph unicode="-" horiz-adv-x="477" d="M20 657v11h447v-11H20z"/><glyph unicode="." horiz-adv-x="124" d="M16 0v33h11V0H16z"/><glyph unicode="/" horiz-adv-x="612" d="M12 0l488 1325h10L23 0H12z"/><glyph unicode="0" horiz-adv-x="630" d="M6 344v641q0 340 227 340 115 0 173-88 57-90 57-252V344q0-170-58.5-257t-171-87-170 87T6 344zm10 0q0-168 56-250 55-84 161-84 109 0 164 84 55 82 56 250v641q0 164-55.5 248T233 1317q-106 0-161.5-84T16 985V344z"/><glyph unicode="1" horiz-adv-x="364" d="M4 1085l201 240h6V0h-10v1309L12 1079z"/><glyph unicode="2" horiz-adv-x="595" d="M18 1010v6q0 309 230 309 98 0 159.5-77t67.5-210v-28q-2-59-14-105.5T428.5 818 382 741l-54-75-38-53-40-56-92-142q-41-65-70-128.5t-44-130T29 10h446V0H18v4q0 82 16.5 151.5t46.5 135T152 422l92 141 39 55 36 54q31 39 56.5 75.5t45 78.5 32 89.5T465 1024q-2 135-60.5 214T248 1317q-113 0-164-74-55-78-55-227v-6H18z"/><glyph unicode="3" horiz-adv-x="563" d="M8 338v4h10v-4q0-164 55.5-246T238 10q102 0 161 96 27 41 41.5 98.5T455 328q-2 94-33 153.5T358 575q-39 37-85 59.5T182 657H88v9h94q35 0 82 18t88 58 71 102.5T455 995q0 133-56 224-59 98-161 98-109 0-164.5-84T18 985v-4H8v4q0 340 230 340 109 0 170-102 27-41 40-95.5t17-117.5v-29q-4-90-36-148.5T365 741q-29-31-66-51t-74-28q37-8 74-29t66-51q33-33 64.5-90.5T465 342v-29q-4-61-17.5-116.5T408 100Q345 0 238 0 123 0 66 86 8 176 8 338z"/><glyph unicode="4" horiz-adv-x="638" d="M8 422v10l494 893h8V0h-10v422H8zm10 8h482v873z"/><glyph unicode="5" horiz-adv-x="587" d="M14 332v6h11v-6q0-160 55-242 55-80 162-80 104 0 164 94 55 90 55 228v147q0 160-55.5 238T242 795q-98 0-157.5-85T25 479v-8H14v854h457v-8H25V586q20 102 76.5 160.5T242 805q229 0 229-326V332q0-68-14.5-128.5T414 100Q351 0 242 0 129 0 72 86q-58 82-58 246z"/><glyph unicode="6" horiz-adv-x="571" d="M10 291v612q0 207 56.5 313.5T233 1325h11q106 0 166-82 57-82 57-223v-4h-10v4q0 143-56.5 220t-163 77-162-104.5T20 903V598q20 106 77 166.5T238 825q229 0 229-336V338q0-154-62.5-246T238 0Q127 0 68 78q-58 76-58 213zm10 0q0-133 55.5-207T238 10q100 0 159.5 88T457 338v151q0 166-56 246-57 82-163 82-98 0-158-89T20 492V291z"/><glyph unicode="7" horiz-adv-x="720" d="M27 1315v10h637v-8L113-2h-11l549 1317H27z"/><glyph unicode="8" horiz-adv-x="620" d="M8 977v31q6 154 60 231 61 86 186 86h8q125 0 187-86 53-78 59-231v-31q-6-156-59-229-45-68-134-84 86-16 134-84 53-78 59-230v-33q-6-156-59-229Q388 0 262 0h-8Q129 0 68 88 15 162 8 317v33q6 152 60 230 47 68 133 84-88 16-133 84-54 73-60 229zm10-643q2-166 59.5-245T258 10t180.5 79T498 334q-2 166-59.5 245.5T258 659 77.5 579.5 18 334zm0 659q2-166 59.5-245.5T258 668t180.5 79.5T498 993q-2 324-240 324T18 993z"/><glyph unicode="9" horiz-adv-x="595" d="M6 307v4h10v-4q0-145 56.5-221T233 10q109 0 164.5 103.5T453 422v305q-20-106-77-166.5T233 500Q6 500 6 838v151q0 154 61.5 245t165.5 91q115 0 173-78 57-80 57-213V422q0-205-56.5-312.5T240 0h-11Q120 4 63 82T6 307zm10 531q0-166 56-248 51-80 161-80 100 0 160 88t60 236v200q0 133-56 207-57 76-164 76-98 0-157.5-89T16 989V838z"/><glyph unicode=":" d="M16 334v100h11V334H16zm0 563v102h11V897H16z"/><glyph unicode=";" horiz-adv-x="141" d="M12 260v174h11V260H12zm0 637v102h11V897H12z"/><glyph unicode="<"/><glyph unicode="=" horiz-adv-x="579" d="M20 432v10h447v-10H20zm0 410v10h447v-10H20z"/><glyph unicode=">"/><glyph unicode="?" horiz-adv-x="530" d="M16 995v4q0 160 57.5 243t170.5 83q111 0 172-98 51-82 55-205v-6q0-4 1-5t1-3-1-3-1-4v-6q-4-70-26.5-128T391 763t-63.5-82-55.5-58l-24-25q-23-25-34-64.5t-15-87-4-97.5V203h-11v147q0 51 5.5 99.5T207 539t35 65l10 10q6 6 12 15l57.5 60.5L385 772l53.5 106.5L463 1008q-2 63-15.5 118.5T408 1223q-59 94-164 94-106 0-161.5-80T27 999v-4H16zM184 0v33h11V0h-11z"/><glyph unicode="@" horiz-adv-x="1234" d="M14 719q18 111 64.5 206T197 1092q66 66 145.5 110.5T514 1266q66 13 129 13 101 0 195-35 152-56 237-189 29-47 48.5-107.5T1147 815q1-23 1-45 0-45-5-88-8-66-31-119-20-47-61-89t-101-71q-53-27-104-35-24-4-46-5-24 0-44 6-63 16-63 75 0 10 1 21l7 47 12 74q-18-57-47-86t-67-35-89-6q-98 0-141 49-37 38-37 116 0 26 4 56 14 117 67.5 176T561 915q23 0 67-4t77-26q39-27 45-76 4 20 7 38l5 30q2 14 4 26v6l10-2v-4q0-2-5-29.5T759 802l-17-96q-9-52-16-101l-13-87q-6-39-8-55-2-11-2-20 0-28 14-42 18-18 41-24 10-2 19-3t22-1q37 0 83 13t89 39 77.5 61.5T1102 567q23 55 31 121 5 44 5 87 0 22-1 43-4 65-21.5 125.5T1067 1051q-41 63-101.5 110t-132 74-152.5 33q-20 2-41 1-61 0-124-14-76-16-154.5-55T214 1095.5 95 936 25 717q-10-66-11-126 0-117 39-214 59-147 205-236 88-55 198-79 90-19 181-19 20 0 40 1 112 5 220.5 40t194.5 98l2 4 6-8-4-4q-86-61-192.5-98T678 33h-43q-106 0-204.5 25.5T254 133Q107 223 45 374 4 474 4 594q0 60 10 125zm332-39q-4-29-3-54 0-75 32-112 39-45 135-45 49 0 85 5t62.5 31.5 45 80T737 735q4 29 5 52 0 29-8 45-13 30-36 45-20 14-56 22t-81 8q-96 0-148.5-55T346 680z"/><glyph unicode="A" horiz-adv-x="761" d="M12 0l307 1325h9L635 0h-10l-99 420H119L23 0H12zm111 430h401l-200 868z"/><glyph unicode="B" horiz-adv-x="595" d="M16 0v1325h199q141 0 213-86 29-41 45-96.5t21-132.5v-33q-6-150-66-232-55-68-149-81 92-14 149-84 59-82 66-232v-33q-4-78-20.5-133T428 86Q356 0 215 0H16zm9 8h190q266 0 268 324-2 168-67.5 247.5T215 659H25V8zm0 660h190q135 0 200.5 79.5T483 993q-2 324-268 324H25V668z"/><glyph unicode="C" horiz-adv-x="663" d="M10 340v653q2 328 262 332h11q260-4 260-338v-4h-11v4q0 166-63 248-66 82-192.5 82T86 1235q-66-84-66-248V340Q20 8 276 8t256 332v4h11v-4Q543 4 283 0h-11Q10 4 10 340z"/><glyph unicode="D" horiz-adv-x="620" d="M8 0v1325h209q147 0 221-88 70-84 70-256V344q0-172-70-256Q364 0 217 0H8zm8 8h201q281 0 281 336v637q0 336-281 336H16V8z"/><glyph unicode="E" horiz-adv-x="530" d="M8 0v1325h441v-8H16V668h433v-9H16V8h433V0H8z"/><glyph unicode="F" horiz-adv-x="522" d="M12 0v1325h441v-8H20V668h433v-9H20V0h-8z"/><glyph unicode="G" horiz-adv-x="663" d="M12 338v657q0 164 66 248 68 82 201 82t200-82q68-86 68-254v-4h-10v4q0 164-66 248-63 80-192 80-125 0-193-80-66-84-66-248V338q0-166 66-248T279 8t192.5 82T537 338v207H238v10h309V338Q547 0 279 0 12 0 12 338z"/><glyph unicode="H" horiz-adv-x="655" d="M10 0v1325h8V668h476v657h10V0h-10v657H18V0h-8z"/><glyph unicode="I" horiz-adv-x="206" d="M49 0v1325h10V0H49z"/><glyph unicode="J" horiz-adv-x="630" d="M12 309v6h11v-6q0-150 59-227Q143 8 258 8q117 0 178 74 59 78 60 227v1016h10V309q0-154-62-233Q383 0 258 0 135 0 74 76q-62 79-62 233z"/><glyph unicode="K" horiz-adv-x="647" d="M10 2v1325h8V498l156 227 2 2 410 600h10L186 723 598 0h-10L180 715 18 481V2h-8z"/><glyph unicode="L" horiz-adv-x="546" d="M12 0v1327h8V10h465V0H12z"/><glyph unicode="M" horiz-adv-x="919" d="M10 2v1325h8L393 23l375 1304h8V2h-10v1286L397 0h-8L20 1288V2H10z"/><glyph unicode="N" horiz-adv-x="704" d="M10 2v1325h8L541 31v1296h10V0h-8L20 1298V2H10z"/><glyph unicode="O" horiz-adv-x="679" d="M6 338v651q0 336 268 336 266 0 267-336V338Q541 0 274 0 6 0 6 338zm10 0q0-164 66-248Q148 8 274.5 8T465 90q66 84 65 248v651q0 164-65 246-63 82-190.5 82t-193-82T16 989V338z"/><glyph unicode="P" horiz-adv-x="638" d="M12 0v1325h221q150 0 224-86 66-78 67-229v-6q0-4 1-6.5t1-4.5-1-4-1-6v-6q-2-152-67-232-74-88-224-88H20V0h-8zm8 668h213q141 0 210 79.5T516 993q-4 166-72.5 245T233 1317H20V668z"/><glyph unicode="Q" horiz-adv-x="696" d="M12 346v647q0 170 68 250 63 82 198.5 82t198.5-82q68-80 68-250V346q0-188-84-276L561-53h-12L453 61Q387 0 279 0 12 0 12 346zm11 0q0-168 63-252Q149 8 279 8q104 0 170 62l-93 110h13l86-104q4 4 7 9t7 9q66 88 66 252v647q0 324-256 324T23 993V346z"/><glyph unicode="R" horiz-adv-x="679" d="M10 0v1325h221q143 0 215-78t76-243v-33q-2-156-67-236-59-70-158-84 109-18 168-93t61-198V0h-10v354q0 137-74.5 215T231 647H20V0H10zm10 655h211q143 0 212 81t71 253q-2 162-68 242-72 86-215 86H20V655z"/><glyph unicode="S" horiz-adv-x="655" d="M10 981v10q2 154 74 244t195 90q268 0 268-338v-6h-10v6q0 164-66 248-66 82-192 82-119 0-190-90T18 987q0-82 28-137t66-92 79.5-59.5T264 664l29-13q25-10 65.5-30.5T439 564t71-90 35-132v-12q0-2 2-2 0-2-1-4t-1-5v-6q-4-131-66-215Q407 0 279 0 144 0 78 84q-68 82-68 252v6h8v-6q0-164 66-246T279 8q117 0 185 86t73 232q-2 80-31 135t-69 92-81 57.5-65 30.5l-31 14q-31 12-73 34t-81 61q-96 90-96 231z"/><glyph unicode="T" horiz-adv-x="737" d="M10 1317v8h672v-8H350V0h-8v1317H10z"/><glyph unicode="U" horiz-adv-x="688" d="M10 311v1014h8V311q0-154 62-227Q139 8 256 8t176 76q59 72 60 227v1014h10V311Q502 2 260 0h-8Q10 2 10 311z"/><glyph unicode="V" horiz-adv-x="778" d="M14 1327h11L350 27l326 1300h10L354 0h-6z"/><glyph unicode="W" horiz-adv-x="1308" d="M12 1327h11L307 29l287 1298h8L889 29l287 1298h10L893 0h-8L598 1300 311 0h-6z"/><glyph unicode="X" horiz-adv-x="745" d="M16 0l314 664-314 661h11l309-651 305 651h10L340 664 653 0h-10L336 651 29 0H16z"/><glyph unicode="Y" horiz-adv-x="761" d="M-27 1325h13l358-653 361 653h12L350 662V0h-10v662z"/><glyph unicode="Z" horiz-adv-x="770" d="M14 1317v8h625v-10L27 8h614V0H16v10l613 1307H14z"/><glyph unicode="["/><glyph unicode="\" horiz-adv-x="612" d="M20 1325h11L518 0h-10z"/><glyph unicode="]"/><glyph unicode="^"/><glyph unicode="_" horiz-adv-x="837" d="M14 0h772v-10H14V0z"/><glyph unicode="a" horiz-adv-x="761" d="M12 0l307 1325h9L635 0h-10l-99 420H119L23 0H12zm111 430h401l-200 868z"/><glyph unicode="b" horiz-adv-x="595" d="M16 0v1325h199q141 0 213-86 29-41 45-96.5t21-132.5v-33q-6-150-66-232-55-68-149-81 92-14 149-84 59-82 66-232v-33q-4-78-20.5-133T428 86Q356 0 215 0H16zm9 8h190q266 0 268 324-2 168-67.5 247.5T215 659H25V8zm0 660h190q135 0 200.5 79.5T483 993q-2 324-268 324H25V668z"/><glyph unicode="c" horiz-adv-x="663" d="M10 340v653q2 328 262 332h11q260-4 260-338v-4h-11v4q0 166-63 248-66 82-192.5 82T86 1235q-66-84-66-248V340Q20 8 276 8t256 332v4h11v-4Q543 4 283 0h-11Q10 4 10 340z"/><glyph unicode="d" horiz-adv-x="620" d="M8 0v1325h209q147 0 221-88 70-84 70-256V344q0-172-70-256Q364 0 217 0H8zm8 8h201q281 0 281 336v637q0 336-281 336H16V8z"/><glyph unicode="e" horiz-adv-x="530" d="M8 0v1325h441v-8H16V668h433v-9H16V8h433V0H8z"/><glyph unicode="f" horiz-adv-x="522" d="M12 0v1325h441v-8H20V668h433v-9H20V0h-8z"/><glyph unicode="g" horiz-adv-x="663" d="M12 338v657q0 164 66 248 68 82 201 82t200-82q68-86 68-254v-4h-10v4q0 164-66 248-63 80-192 80-125 0-193-80-66-84-66-248V338q0-166 66-248T279 8t192.5 82T537 338v207H238v10h309V338Q547 0 279 0 12 0 12 338z"/><glyph unicode="h" horiz-adv-x="655" d="M10 0v1325h8V668h476v657h10V0h-10v657H18V0h-8z"/><glyph unicode="i" horiz-adv-x="206" d="M49 0v1325h10V0H49z"/><glyph unicode="j" horiz-adv-x="630" d="M12 309v6h11v-6q0-150 59-227Q143 8 258 8q117 0 178 74 59 78 60 227v1016h10V309q0-154-62-233Q383 0 258 0 135 0 74 76q-62 79-62 233z"/><glyph unicode="k" horiz-adv-x="647" d="M10 2v1325h8V498l156 227 2 2 410 600h10L186 723 598 0h-10L180 715 18 481V2h-8z"/><glyph unicode="l" horiz-adv-x="546" d="M12 0v1327h8V10h465V0H12z"/><glyph unicode="m" horiz-adv-x="919" d="M10 2v1325h8L393 23l375 1304h8V2h-10v1286L397 0h-8L20 1288V2H10z"/><glyph unicode="n" horiz-adv-x="704" d="M10 2v1325h8L541 31v1296h10V0h-8L20 1298V2H10z"/><glyph unicode="o" horiz-adv-x="679" d="M6 338v651q0 336 268 336 266 0 267-336V338Q541 0 274 0 6 0 6 338zm10 0q0-164 66-248Q148 8 274.5 8T465 90q66 84 65 248v651q0 164-65 246-63 82-190.5 82t-193-82T16 989V338z"/><glyph unicode="p" horiz-adv-x="638" d="M12 0v1325h221q150 0 224-86 66-78 67-229v-6q0-4 1-6.5t1-4.5-1-4-1-6v-6q-2-152-67-232-74-88-224-88H20V0h-8zm8 668h213q141 0 210 79.5T516 993q-4 166-72.5 245T233 1317H20V668z"/><glyph unicode="q" horiz-adv-x="696" d="M12 346v647q0 170 68 250 63 82 198.5 82t198.5-82q68-80 68-250V346q0-188-84-276L561-53h-12L453 61Q387 0 279 0 12 0 12 346zm11 0q0-168 63-252Q149 8 279 8q104 0 170 62l-93 110h13l86-104q4 4 7 9t7 9q66 88 66 252v647q0 324-256 324T23 993V346z"/><glyph unicode="r" horiz-adv-x="679" d="M10 0v1325h221q143 0 215-78t76-243v-33q-2-156-67-236-59-70-158-84 109-18 168-93t61-198V0h-10v354q0 137-74.5 215T231 647H20V0H10zm10 655h211q143 0 212 81t71 253q-2 162-68 242-72 86-215 86H20V655z"/><glyph unicode="s" horiz-adv-x="655" d="M10 981v10q2 154 74 244t195 90q268 0 268-338v-6h-10v6q0 164-66 248-66 82-192 82-119 0-190-90T18 987q0-82 28-137t66-92 79.5-59.5T264 664l29-13q25-10 65.5-30.5T439 564t71-90 35-132v-12q0-2 2-2 0-2-1-4t-1-5v-6q-4-131-66-215Q407 0 279 0 144 0 78 84q-68 82-68 252v6h8v-6q0-164 66-246T279 8q117 0 185 86t73 232q-2 80-31 135t-69 92-81 57.5-65 30.5l-31 14q-31 12-73 34t-81 61q-96 90-96 231z"/><glyph unicode="t" horiz-adv-x="737" d="M10 1317v8h672v-8H350V0h-8v1317H10z"/><glyph unicode="u" horiz-adv-x="688" d="M10 311v1014h8V311q0-154 62-227Q139 8 256 8t176 76q59 72 60 227v1014h10V311Q502 2 260 0h-8Q10 2 10 311z"/><glyph unicode="v" horiz-adv-x="778" d="M14 1327h11L350 27l326 1300h10L354 0h-6z"/><glyph unicode="w" horiz-adv-x="1308" d="M12 1327h11L307 29l287 1298h8L889 29l287 1298h10L893 0h-8L598 1300 311 0h-6z"/><glyph unicode="x" horiz-adv-x="745" d="M16 0l314 664-314 661h11l309-651 305 651h10L340 664 653 0h-10L336 651 29 0H16z"/><glyph unicode="y" horiz-adv-x="761" d="M-27 1325h13l358-653 361 653h12L350 662V0h-10v662z"/><glyph unicode="z" horiz-adv-x="770" d="M14 1317v8h625v-10L27 8h614V0H16v10l613 1307H14z"/><glyph unicode="{"/><glyph unicode="|" horiz-adv-x="182" d="M27 0v1325h10V0H27z"/><glyph unicode="}"/><glyph unicode="~"/><glyph unicode="©"/><glyph unicode="ª" horiz-adv-x="761" d="M12 0l307 1325h9L635 0h-10l-99 420H119L23 0H12zm111 430h401l-200 868z"/><glyph unicode="­" horiz-adv-x="477" d="M20 657v11h447v-11H20z"/><glyph unicode="®"/><glyph unicode="²" horiz-adv-x="595" d="M18 0v4q0 82 16.5 151.5t46.5 135T152 422l92 141 39 55 36 54q31 39 56.5 75.5t45 78.5 32 89.5T465 1024q-2 135-60.5 214T248 1317q-113 0-164-74-55-78-55-227v-6H18v6q0 309 230 309 98 0 159.5-77t67.5-210v-28q-2-59-14-105.5T428.5 818 382 741l-54-75-38-53-40-56-92-142q-41-65-70-128.5t-44-130T29 10h446V0H18z"/><glyph unicode="³" horiz-adv-x="563" d="M8 338v4h10v-4q0-164 55.5-246T238 10q102 0 161 96 27 41 41.5 98.5T455 328q-2 94-33 153.5T358 575q-39 37-85 59.5T182 657H88v9h94q35 0 82 18t88 58 71 102.5T455 995q0 133-56 224-59 98-161 98-109 0-164.5-84T18 985v-4H8v4q0 340 230 340 109 0 170-102 27-41 40-95.5t17-117.5v-29q-4-90-36-148.5T365 741q-29-31-66-51t-74-28q37-8 74-29t66-51q33-33 64.5-90.5T465 342v-29q-4-61-17.5-116.5T408 100Q345 0 238 0 123 0 66 86 8 176 8 338z"/><glyph unicode="¹" horiz-adv-x="364" d="M4 1085l201 240h6V0h-10v1309L12 1079z"/><glyph unicode="º" horiz-adv-x="679" d="M6 338v651q0 336 268 336 266 0 267-336V338Q541 0 274 0 6 0 6 338zm10 0q0-164 66-248Q148 8 274.5 8T465 90q66 84 65 248v651q0 164-65 246-63 82-190.5 82t-193-82T16 989V338z"/><glyph unicode="Â" horiz-adv-x="761" d="M12 0l307 1325h9L635 0h-10l-99 420H119L23 0H12zm111 430h401l-200 868z"/><glyph unicode="Ã" horiz-adv-x="761" d="M12 0l307 1325h9L635 0h-10l-99 420H119L23 0H12zm111 430h401l-200 868z"/><glyph unicode="Å" horiz-adv-x="761" d="M12 0l307 1325h9L635 0h-10l-99 420H119L23 0H12zm111 430h401l-200 868z"/><glyph unicode="Ê" horiz-adv-x="530" d="M8 0v1325h441v-8H16V668h433v-9H16V8h433V0H8z"/><glyph unicode="Î" horiz-adv-x="206" d="M49 0v1325h10V0H49z"/><glyph unicode="Ñ" horiz-adv-x="704" d="M10 2v1325h8L541 31v1296h10V0h-8L20 1298V2H10z"/><glyph unicode="Ô" horiz-adv-x="679" d="M6 338v651q0 336 268 336 266 0 267-336V338Q541 0 274 0 6 0 6 338zm10 0q0-164 66-248Q148 8 274.5 8T465 90q66 84 65 248v651q0 164-65 246-63 82-190.5 82t-193-82T16 989V338z"/><glyph unicode="Õ" horiz-adv-x="679" d="M6 338v651q0 336 268 336 266 0 267-336V338Q541 0 274 0 6 0 6 338zm10 0q0-164 66-248Q148 8 274.5 8T465 90q66 84 65 248v651q0 164-65 246-63 82-190.5 82t-193-82T16 989V338z"/><glyph unicode="Û" horiz-adv-x="688" d="M10 311v1014h8V311q0-154 62-227Q139 8 256 8t176 76q59 72 60 227v1014h10V311Q502 2 260 0h-8Q10 2 10 311z"/><glyph unicode="â" horiz-adv-x="761" d="M12 0l307 1325h9L635 0h-10l-99 420H119L23 0H12zm111 430h401l-200 868z"/><glyph unicode="ã" horiz-adv-x="761" d="M12 0l307 1325h9L635 0h-10l-99 420H119L23 0H12zm111 430h401l-200 868z"/><glyph unicode="å" horiz-adv-x="761" d="M12 0l307 1325h9L635 0h-10l-99 420H119L23 0H12zm111 430h401l-200 868z"/><glyph unicode="ê" horiz-adv-x="530" d="M8 0v1325h441v-8H16V668h433v-9H16V8h433V0H8z"/><glyph unicode="î" horiz-adv-x="206" d="M49 0v1325h10V0H49z"/><glyph unicode="ñ" horiz-adv-x="704" d="M10 2v1325h8L541 31v1296h10V0h-8L20 1298V2H10z"/><glyph unicode="ô" horiz-adv-x="679" d="M6 338v651q0 336 268 336 266 0 267-336V338Q541 0 274 0 6 0 6 338zm10 0q0-164 66-248Q148 8 274.5 8T465 90q66 84 65 248v651q0 164-65 246-63 82-190.5 82t-193-82T16 989V338z"/><glyph unicode="õ" horiz-adv-x="679" d="M6 338v651q0 336 268 336 266 0 267-336V338Q541 0 274 0 6 0 6 338zm10 0q0-164 66-248Q148 8 274.5 8T465 90q66 84 65 248v651q0 164-65 246-63 82-190.5 82t-193-82T16 989V338z"/><glyph unicode="û" horiz-adv-x="688" d="M10 311v1014h8V311q0-154 62-227Q139 8 256 8t176 76q59 72 60 227v1014h10V311Q502 2 260 0h-8Q10 2 10 311z"/><glyph unicode="ı" horiz-adv-x="206" d="M49 0v1325h10V0H49z"/><glyph unicode="Œ" horiz-adv-x="1210" d="M6 338v651q0 336 268 336 266 0 267-336V338Q541 0 274 0 6 0 6 338zm10 0q0-164 66-248Q148 8 274.5 8T465 90q66 84 65 248v651q0 164-65 246-63 82-190.5 82t-193-82T16 989V338zM688 0v1325h440v-8H696V668h432v-9H696V8h432V0H688z"/><glyph unicode="œ" horiz-adv-x="1210" d="M6 338v651q0 336 268 336 266 0 267-336V338Q541 0 274 0 6 0 6 338zm10 0q0-164 66-248Q148 8 274.5 8T465 90q66 84 65 248v651q0 164-65 246-63 82-190.5 82t-193-82T16 989V338zM688 0v1325h440v-8H696V668h432v-9H696V8h432V0H688z"/><glyph unicode="ˆ"/><glyph unicode="˚"/><glyph unicode="˜"/><glyph horiz-adv-x="663"/><glyph horiz-adv-x="1327"/><glyph horiz-adv-x="663"/><glyph horiz-adv-x="1327"/><glyph horiz-adv-x="442"/><glyph horiz-adv-x="331"/><glyph horiz-adv-x="221"/><glyph horiz-adv-x="221"/><glyph horiz-adv-x="165"/><glyph horiz-adv-x="264"/><glyph horiz-adv-x="73"/><glyph unicode="‐" horiz-adv-x="477" d="M20 657v11h447v-11H20z"/><glyph unicode="‑" horiz-adv-x="477" d="M20 657v11h447v-11H20z"/><glyph unicode="‒" horiz-adv-x="477" d="M20 657v11h447v-11H20z"/><glyph unicode="–" horiz-adv-x="477" d="M20 657v11h447v-11H20z"/><glyph unicode="—" horiz-adv-x="477" d="M20 657v11h447v-11H20z"/><glyph unicode="‘" horiz-adv-x="100" d="M2 1184v127h10v-127H2z"/><glyph unicode="’" horiz-adv-x="100" d="M2 1184v127h10v-127H2z"/><glyph unicode="“" horiz-adv-x="256" d="M2 1184v127h10v-127H2zm123 0v127h10v-127h-10z"/><glyph unicode="”" horiz-adv-x="256" d="M2 1184v127h10v-127H2zm123 0v127h10v-127h-10z"/><glyph unicode="•"/><glyph unicode="…" horiz-adv-x="374" d="M16 0v33h11V0H16zm125 0v33h11V0h-11zm125 0v33h10V0h-10z"/><glyph horiz-adv-x="264"/><glyph horiz-adv-x="331"/><glyph unicode="™" horiz-adv-x="1656"/><glyph unicode="" horiz-adv-x="1325" d="M0 1325h1325V0H0v1325z"/><glyph unicode="ﬁ" horiz-adv-x="729" d="M12 0v1325h441v-8H20V668h433v-9H20V0h-8zm559 0v1325h11V0h-11z"/><glyph unicode="ﬂ" horiz-adv-x="1069" d="M12 0v1325h441v-8H20V668h433v-9H20V0h-8zm523 0v1327h8V10h465V0H535z"/><glyph unicode="ﬃ" horiz-adv-x="1251" d="M12 0v1325h441v-8H20V668h433v-9H20V0h-8zm523 0v1325h440v-8H543V668h432v-9H543V0h-8zm559 0v1325h10V0h-10z"/><glyph unicode="ﬄ" horiz-adv-x="1591" d="M12 0v1325h441v-8H20V668h433v-9H20V0h-8zm523 0v1325h440v-8H543V668h432v-9H543V0h-8zm522 0v1327h8V10h465V0h-473z"/></font>
</defs>
</svg>
